<svg width="914" height="91" viewBox="0 0 914 91" fill="none" xmlns="http://www.w3.org/2000/svg">
<g clip-path="url(#clip0_1_50)">
<path fill-rule="evenodd" clip-rule="evenodd" d="M44 68C56.9787 68 67.5 57.4787 67.5 44.5C67.5 31.5213 56.9787 21 44 21C31.0213 21 20.5 31.5213 20.5 44.5C20.5 57.4787 31.0213 68 44 68Z" stroke="#EEEEEE"/>
<path fill-rule="evenodd" clip-rule="evenodd" d="M34 45C34 44.7236 34.2251 44.5 34.5 44.5H37.5C37.7768 44.5 38 44.7217 38 45C38 45.2759 37.7744 45.5 37.5 45.5H34.5C34.2232 45.5 34 45.2779 34 45Z" fill="white"/>
<path fill-rule="evenodd" clip-rule="evenodd" d="M39 45C39 44.7236 39.2251 44.5 39.5 44.5H42.5C42.7764 44.5 43 44.7217 43 45C43 45.2759 42.7744 45.5 42.5 45.5H39.5C39.2232 45.5 39 45.2779 39 45Z" fill="white"/>
<path fill-rule="evenodd" clip-rule="evenodd" d="M44 45C44 44.7236 44.2256 44.5 44.5 44.5H47.5C47.7764 44.5 48 44.7217 48 45C48 45.2759 47.7744 45.5 47.5 45.5H44.5C44.2232 45.5 44 45.2779 44 45Z" fill="white"/>
<path fill-rule="evenodd" clip-rule="evenodd" d="M50 45C50 44.7236 50.2256 44.5 50.5 44.5H53.5C53.7768 44.5 54 44.7217 54 45C54 45.2759 53.7744 45.5 53.5 45.5H50.5C50.2232 45.5 50 45.2779 50 45Z" fill="white"/>
<path fill-rule="evenodd" clip-rule="evenodd" d="M33.584 36.5H54.416C55.2908 36.5 56 37.2092 56 38.084V50.916C56 51.7908 55.2908 52.5 54.416 52.5H33.584C32.7092 52.5 32 51.7908 32 50.916V38.084C32 37.2092 32.7092 36.5 33.584 36.5Z" fill="#5697FA"/>
<path d="M56 39.5H32V42.5H56V39.5Z" fill="#0864EE"/>
<path d="M54 43.5H34V46.5H54V43.5Z" fill="white"/>
<path d="M43.5 49.5H34.5C34.2239 49.5 34 49.7239 34 50C34 50.2761 34.2239 50.5 34.5 50.5H43.5C43.7761 50.5 44 50.2761 44 50C44 49.7239 43.7761 49.5 43.5 49.5Z" fill="#0864EE"/>
<path d="M48.5 47.5H34.5C34.2239 47.5 34 47.7239 34 48C34 48.2761 34.2239 48.5 34.5 48.5H48.5C48.7761 48.5 49 48.2761 49 48C49 47.7239 48.7761 47.5 48.5 47.5Z" fill="#0864EE"/>
</g>
<path d="M93.2969 33.6104V34.9136H86.7559V33.6104H93.2969ZM87.0049 28.4141V40.5H85.4028V28.4141H87.0049ZM94.6914 28.4141V40.5H93.0977V28.4141H94.6914ZM102.602 38.9644V34.3408C102.602 33.9867 102.53 33.6795 102.386 33.4194C102.248 33.1538 102.038 32.9491 101.755 32.8052C101.473 32.6613 101.125 32.5894 100.709 32.5894C100.322 32.5894 99.9818 32.6558 99.6885 32.7886C99.4007 32.9214 99.1738 33.0957 99.0078 33.3115C98.8473 33.5273 98.7671 33.7598 98.7671 34.0088H97.2314C97.2314 33.6878 97.3145 33.3696 97.4805 33.0542C97.6465 32.7388 97.8844 32.4538 98.1943 32.1992C98.5098 31.9391 98.8861 31.7344 99.3232 31.585C99.766 31.43 100.258 31.3525 100.801 31.3525C101.454 31.3525 102.029 31.4632 102.527 31.6846C103.031 31.9059 103.424 32.2407 103.706 32.689C103.994 33.1317 104.138 33.6878 104.138 34.3574V38.541C104.138 38.8398 104.163 39.158 104.212 39.4956C104.268 39.8332 104.348 40.1237 104.453 40.3672V40.5H102.851C102.774 40.3229 102.713 40.0877 102.668 39.7944C102.624 39.4956 102.602 39.2189 102.602 38.9644ZM102.868 35.0547L102.884 36.1338H101.332C100.895 36.1338 100.505 36.1698 100.162 36.2417C99.8185 36.3081 99.5308 36.4105 99.2983 36.5488C99.0659 36.6872 98.8888 36.8615 98.7671 37.0718C98.6453 37.2765 98.5845 37.5173 98.5845 37.7939C98.5845 38.0762 98.6481 38.3335 98.7754 38.5659C98.9027 38.7983 99.0936 38.9837 99.3481 39.1221C99.6082 39.2549 99.9264 39.3213 100.303 39.3213C100.773 39.3213 101.188 39.2217 101.548 39.0225C101.908 38.8232 102.193 38.5798 102.403 38.292C102.619 38.0042 102.735 37.7248 102.751 37.4536L103.407 38.1924C103.368 38.4248 103.263 38.6821 103.092 38.9644C102.92 39.2466 102.691 39.5177 102.403 39.7778C102.121 40.0324 101.783 40.2454 101.39 40.417C101.003 40.583 100.566 40.666 100.079 40.666C99.4699 40.666 98.9359 40.547 98.4766 40.3091C98.0228 40.0711 97.6686 39.7529 97.4141 39.3545C97.165 38.9505 97.0405 38.4995 97.0405 38.0015C97.0405 37.52 97.1346 37.0967 97.3228 36.7314C97.5109 36.3607 97.7821 36.0535 98.1362 35.8101C98.4904 35.561 98.9165 35.3729 99.4146 35.2456C99.9126 35.1183 100.469 35.0547 101.083 35.0547H102.868ZM111.783 38.1177C111.783 37.8963 111.733 37.6916 111.633 37.5034C111.539 37.3097 111.343 37.1354 111.044 36.9805C110.751 36.82 110.308 36.6816 109.716 36.5654C109.218 36.4603 108.767 36.3358 108.363 36.1919C107.964 36.048 107.624 35.8737 107.342 35.6689C107.065 35.4642 106.852 35.2235 106.703 34.9468C106.553 34.6701 106.479 34.3464 106.479 33.9756C106.479 33.6214 106.556 33.2866 106.711 32.9712C106.871 32.6558 107.096 32.3763 107.383 32.1328C107.677 31.8893 108.028 31.6984 108.438 31.5601C108.847 31.4217 109.304 31.3525 109.807 31.3525C110.527 31.3525 111.141 31.4798 111.65 31.7344C112.159 31.9889 112.549 32.3293 112.82 32.7554C113.091 33.1759 113.227 33.6436 113.227 34.1582H111.691C111.691 33.9092 111.617 33.6685 111.467 33.436C111.323 33.1981 111.11 33.0016 110.828 32.8467C110.551 32.6917 110.211 32.6143 109.807 32.6143C109.381 32.6143 109.035 32.6807 108.77 32.8135C108.509 32.9408 108.319 33.104 108.197 33.3032C108.081 33.5024 108.022 33.7127 108.022 33.9341C108.022 34.1001 108.05 34.2495 108.105 34.3823C108.166 34.5096 108.271 34.6286 108.421 34.7393C108.57 34.8444 108.781 34.944 109.052 35.0381C109.323 35.1322 109.669 35.2262 110.089 35.3203C110.825 35.4863 111.431 35.6855 111.907 35.918C112.383 36.1504 112.737 36.4354 112.97 36.7729C113.202 37.1105 113.318 37.52 113.318 38.0015C113.318 38.3944 113.235 38.7541 113.069 39.0806C112.909 39.4071 112.674 39.6893 112.364 39.9272C112.059 40.1597 111.694 40.3423 111.268 40.4751C110.847 40.6024 110.374 40.666 109.849 40.666C109.057 40.666 108.388 40.5249 107.84 40.2427C107.292 39.9604 106.877 39.5952 106.595 39.147C106.312 38.6987 106.171 38.2256 106.171 37.7275H107.715C107.737 38.1481 107.859 38.4829 108.081 38.7319C108.302 38.9754 108.573 39.1497 108.894 39.2549C109.215 39.3545 109.533 39.4043 109.849 39.4043C110.269 39.4043 110.621 39.349 110.903 39.2383C111.191 39.1276 111.409 38.9754 111.559 38.7817C111.708 38.5881 111.783 38.3667 111.783 38.1177ZM119.096 31.5186V32.6973H114.24V31.5186H119.096ZM115.883 29.3354H117.419V38.2754C117.419 38.5798 117.466 38.8094 117.56 38.9644C117.654 39.1193 117.776 39.2217 117.925 39.2715C118.075 39.3213 118.235 39.3462 118.407 39.3462C118.534 39.3462 118.667 39.3351 118.805 39.313C118.949 39.2853 119.057 39.2632 119.129 39.2466L119.137 40.5C119.015 40.5387 118.855 40.5747 118.656 40.6079C118.462 40.6466 118.227 40.666 117.95 40.666C117.574 40.666 117.228 40.5913 116.913 40.4419C116.597 40.2925 116.345 40.0435 116.157 39.6948C115.975 39.3407 115.883 38.8647 115.883 38.2671V29.3354ZM126.193 38.9644V34.3408C126.193 33.9867 126.121 33.6795 125.977 33.4194C125.839 33.1538 125.628 32.9491 125.346 32.8052C125.064 32.6613 124.715 32.5894 124.3 32.5894C123.913 32.5894 123.573 32.6558 123.279 32.7886C122.992 32.9214 122.765 33.0957 122.599 33.3115C122.438 33.5273 122.358 33.7598 122.358 34.0088H120.822C120.822 33.6878 120.905 33.3696 121.071 33.0542C121.237 32.7388 121.475 32.4538 121.785 32.1992C122.101 31.9391 122.477 31.7344 122.914 31.585C123.357 31.43 123.849 31.3525 124.392 31.3525C125.045 31.3525 125.62 31.4632 126.118 31.6846C126.622 31.9059 127.015 32.2407 127.297 32.689C127.585 33.1317 127.729 33.6878 127.729 34.3574V38.541C127.729 38.8398 127.753 39.158 127.803 39.4956C127.859 39.8332 127.939 40.1237 128.044 40.3672V40.5H126.442C126.364 40.3229 126.304 40.0877 126.259 39.7944C126.215 39.4956 126.193 39.2189 126.193 38.9644ZM126.458 35.0547L126.475 36.1338H124.923C124.486 36.1338 124.096 36.1698 123.752 36.2417C123.409 36.3081 123.122 36.4105 122.889 36.5488C122.657 36.6872 122.48 36.8615 122.358 37.0718C122.236 37.2765 122.175 37.5173 122.175 37.7939C122.175 38.0762 122.239 38.3335 122.366 38.5659C122.493 38.7983 122.684 38.9837 122.939 39.1221C123.199 39.2549 123.517 39.3213 123.894 39.3213C124.364 39.3213 124.779 39.2217 125.139 39.0225C125.498 38.8232 125.783 38.5798 125.994 38.292C126.209 38.0042 126.326 37.7248 126.342 37.4536L126.998 38.1924C126.959 38.4248 126.854 38.6821 126.683 38.9644C126.511 39.2466 126.281 39.5177 125.994 39.7778C125.711 40.0324 125.374 40.2454 124.981 40.417C124.594 40.583 124.156 40.666 123.669 40.666C123.061 40.666 122.527 40.547 122.067 40.3091C121.614 40.0711 121.259 39.7529 121.005 39.3545C120.756 38.9505 120.631 38.4995 120.631 38.0015C120.631 37.52 120.725 37.0967 120.914 36.7314C121.102 36.3607 121.373 36.0535 121.727 35.8101C122.081 35.561 122.507 35.3729 123.005 35.2456C123.503 35.1183 124.06 35.0547 124.674 35.0547H126.458ZM142.363 36.4326V37.6943H133.63V36.7896L139.042 28.4141H140.296L138.951 30.8379L135.374 36.4326H142.363ZM140.678 28.4141V40.5H139.142V28.4141H140.678ZM151.377 37.2295C151.377 37.9655 151.206 38.5908 150.863 39.1055C150.525 39.6146 150.066 40.002 149.485 40.2676C148.909 40.5332 148.259 40.666 147.534 40.666C146.809 40.666 146.156 40.5332 145.575 40.2676C144.994 40.002 144.535 39.6146 144.197 39.1055C143.86 38.5908 143.691 37.9655 143.691 37.2295C143.691 36.748 143.782 36.3081 143.965 35.9097C144.153 35.5057 144.416 35.1543 144.753 34.8555C145.097 34.5566 145.5 34.327 145.965 34.1665C146.436 34.0005 146.953 33.9175 147.518 33.9175C148.259 33.9175 148.92 34.0614 149.501 34.3491C150.083 34.6313 150.539 35.0215 150.871 35.5195C151.209 36.0176 151.377 36.5876 151.377 37.2295ZM149.833 37.1963C149.833 36.748 149.737 36.3524 149.543 36.0093C149.349 35.6606 149.078 35.3895 148.729 35.1958C148.381 35.0021 147.977 34.9053 147.518 34.9053C147.047 34.9053 146.64 35.0021 146.297 35.1958C145.96 35.3895 145.697 35.6606 145.509 36.0093C145.321 36.3524 145.227 36.748 145.227 37.1963C145.227 37.6611 145.318 38.0596 145.5 38.3916C145.689 38.7181 145.954 38.9699 146.297 39.147C146.646 39.3185 147.058 39.4043 147.534 39.4043C148.01 39.4043 148.42 39.3185 148.763 39.147C149.106 38.9699 149.369 38.7181 149.551 38.3916C149.739 38.0596 149.833 37.6611 149.833 37.1963ZM151.095 31.5601C151.095 32.1466 150.94 32.6751 150.63 33.1455C150.32 33.6159 149.897 33.9867 149.36 34.2578C148.824 34.529 148.215 34.6646 147.534 34.6646C146.842 34.6646 146.225 34.529 145.683 34.2578C145.146 33.9867 144.726 33.6159 144.421 33.1455C144.117 32.6751 143.965 32.1466 143.965 31.5601C143.965 30.8573 144.117 30.2596 144.421 29.7671C144.731 29.2746 145.155 28.8983 145.691 28.6382C146.228 28.3781 146.84 28.248 147.526 28.248C148.218 28.248 148.832 28.3781 149.369 28.6382C149.905 28.8983 150.326 29.2746 150.63 29.7671C150.94 30.2596 151.095 30.8573 151.095 31.5601ZM149.56 31.585C149.56 31.181 149.474 30.8241 149.302 30.5142C149.131 30.2043 148.893 29.9608 148.588 29.7837C148.284 29.6011 147.93 29.5098 147.526 29.5098C147.122 29.5098 146.768 29.5955 146.463 29.7671C146.165 29.9331 145.929 30.1711 145.758 30.481C145.592 30.7909 145.509 31.1589 145.509 31.585C145.509 32 145.592 32.3625 145.758 32.6724C145.929 32.9823 146.167 33.223 146.472 33.3945C146.776 33.5661 147.13 33.6519 147.534 33.6519C147.938 33.6519 148.29 33.5661 148.588 33.3945C148.893 33.223 149.131 32.9823 149.302 32.6724C149.474 32.3625 149.56 32 149.56 31.585ZM161.297 39.4043C161.662 39.4043 162 39.3296 162.31 39.1802C162.619 39.0308 162.874 38.826 163.073 38.5659C163.272 38.3003 163.386 37.9987 163.414 37.6611H164.875C164.847 38.1924 164.667 38.6877 164.335 39.147C164.008 39.6007 163.58 39.9688 163.048 40.251C162.517 40.5277 161.933 40.666 161.297 40.666C160.622 40.666 160.032 40.547 159.529 40.3091C159.031 40.0711 158.616 39.7446 158.284 39.3296C157.957 38.9146 157.711 38.4386 157.545 37.9019C157.384 37.3595 157.304 36.7868 157.304 36.1836V35.835C157.304 35.2318 157.384 34.6618 157.545 34.125C157.711 33.5827 157.957 33.104 158.284 32.689C158.616 32.2739 159.031 31.9474 159.529 31.7095C160.032 31.4715 160.622 31.3525 161.297 31.3525C162 31.3525 162.614 31.4964 163.14 31.7842C163.665 32.0664 164.078 32.4538 164.376 32.9463C164.681 33.4333 164.847 33.9867 164.875 34.6064H163.414C163.386 34.2357 163.281 33.9009 163.098 33.6021C162.921 33.3032 162.678 33.0653 162.368 32.8882C162.063 32.7056 161.706 32.6143 161.297 32.6143C160.826 32.6143 160.431 32.7083 160.11 32.8965C159.794 33.0791 159.543 33.3281 159.354 33.6436C159.172 33.9535 159.039 34.2993 158.956 34.6812C158.879 35.0575 158.84 35.4421 158.84 35.835V36.1836C158.84 36.5765 158.879 36.9639 158.956 37.3457C159.034 37.7275 159.164 38.0734 159.346 38.3833C159.534 38.6932 159.786 38.9422 160.102 39.1304C160.423 39.313 160.821 39.4043 161.297 39.4043ZM172.096 38.4248V31.5186H173.64V40.5H172.171L172.096 38.4248ZM172.387 36.5322L173.026 36.5156C173.026 37.1133 172.962 37.6667 172.835 38.1758C172.713 38.6794 172.514 39.1165 172.237 39.4873C171.961 39.8581 171.598 40.1486 171.15 40.3589C170.702 40.5636 170.157 40.666 169.515 40.666C169.077 40.666 168.676 40.6024 168.311 40.4751C167.951 40.3478 167.641 40.1514 167.381 39.8857C167.121 39.6201 166.919 39.2743 166.775 38.8481C166.637 38.422 166.568 37.9102 166.568 37.3125V31.5186H168.104V37.3291C168.104 37.7331 168.148 38.0679 168.236 38.3335C168.33 38.5936 168.455 38.8011 168.61 38.9561C168.77 39.1055 168.947 39.2106 169.141 39.2715C169.34 39.3324 169.545 39.3628 169.755 39.3628C170.408 39.3628 170.926 39.2383 171.308 38.9893C171.689 38.7347 171.963 38.3944 172.129 37.9683C172.301 37.5366 172.387 37.0579 172.387 36.5322ZM175.574 36.1089V35.918C175.574 35.2705 175.668 34.6701 175.856 34.1167C176.045 33.5578 176.316 33.0736 176.67 32.6641C177.024 32.249 177.453 31.9281 177.957 31.7012C178.46 31.4688 179.025 31.3525 179.65 31.3525C180.281 31.3525 180.848 31.4688 181.352 31.7012C181.861 31.9281 182.292 32.249 182.646 32.6641C183.006 33.0736 183.28 33.5578 183.468 34.1167C183.656 34.6701 183.75 35.2705 183.75 35.918V36.1089C183.75 36.7563 183.656 37.3568 183.468 37.9102C183.28 38.4635 183.006 38.9478 182.646 39.3628C182.292 39.7723 181.863 40.0933 181.36 40.3257C180.862 40.5526 180.297 40.666 179.667 40.666C179.036 40.666 178.468 40.5526 177.965 40.3257C177.461 40.0933 177.03 39.7723 176.67 39.3628C176.316 38.9478 176.045 38.4635 175.856 37.9102C175.668 37.3568 175.574 36.7563 175.574 36.1089ZM177.11 35.918V36.1089C177.11 36.5571 177.162 36.9805 177.268 37.3789C177.373 37.7718 177.53 38.1204 177.741 38.4248C177.957 38.7292 178.225 38.9699 178.546 39.147C178.867 39.3185 179.24 39.4043 179.667 39.4043C180.087 39.4043 180.455 39.3185 180.771 39.147C181.091 38.9699 181.357 38.7292 181.567 38.4248C181.778 38.1204 181.935 37.7718 182.041 37.3789C182.151 36.9805 182.207 36.5571 182.207 36.1089V35.918C182.207 35.4753 182.151 35.0575 182.041 34.6646C181.935 34.2661 181.775 33.9147 181.559 33.6104C181.349 33.3005 181.083 33.057 180.762 32.8799C180.447 32.7028 180.076 32.6143 179.65 32.6143C179.229 32.6143 178.859 32.7028 178.538 32.8799C178.222 33.057 177.957 33.3005 177.741 33.6104C177.53 33.9147 177.373 34.2661 177.268 34.6646C177.162 35.0575 177.11 35.4753 177.11 35.918ZM189.437 31.5186V32.6973H184.581V31.5186H189.437ZM186.224 29.3354H187.76V38.2754C187.76 38.5798 187.807 38.8094 187.901 38.9644C187.995 39.1193 188.117 39.2217 188.266 39.2715C188.416 39.3213 188.576 39.3462 188.748 39.3462C188.875 39.3462 189.008 39.3351 189.146 39.313C189.29 39.2853 189.398 39.2632 189.47 39.2466L189.478 40.5C189.356 40.5387 189.196 40.5747 188.997 40.6079C188.803 40.6466 188.568 40.666 188.291 40.666C187.915 40.666 187.569 40.5913 187.253 40.4419C186.938 40.2925 186.686 40.0435 186.498 39.6948C186.315 39.3407 186.224 38.8647 186.224 38.2671V29.3354ZM196.534 38.9644V34.3408C196.534 33.9867 196.462 33.6795 196.318 33.4194C196.18 33.1538 195.969 32.9491 195.687 32.8052C195.405 32.6613 195.056 32.5894 194.641 32.5894C194.254 32.5894 193.913 32.6558 193.62 32.7886C193.332 32.9214 193.105 33.0957 192.939 33.3115C192.779 33.5273 192.699 33.7598 192.699 34.0088H191.163C191.163 33.6878 191.246 33.3696 191.412 33.0542C191.578 32.7388 191.816 32.4538 192.126 32.1992C192.441 31.9391 192.818 31.7344 193.255 31.585C193.698 31.43 194.19 31.3525 194.732 31.3525C195.385 31.3525 195.961 31.4632 196.459 31.6846C196.963 31.9059 197.355 32.2407 197.638 32.689C197.925 33.1317 198.069 33.6878 198.069 34.3574V38.541C198.069 38.8398 198.094 39.158 198.144 39.4956C198.199 39.8332 198.28 40.1237 198.385 40.3672V40.5H196.783C196.705 40.3229 196.644 40.0877 196.6 39.7944C196.556 39.4956 196.534 39.2189 196.534 38.9644ZM196.799 35.0547L196.816 36.1338H195.264C194.826 36.1338 194.436 36.1698 194.093 36.2417C193.75 36.3081 193.462 36.4105 193.23 36.5488C192.998 36.6872 192.82 36.8615 192.699 37.0718C192.577 37.2765 192.516 37.5173 192.516 37.7939C192.516 38.0762 192.58 38.3335 192.707 38.5659C192.834 38.7983 193.025 38.9837 193.28 39.1221C193.54 39.2549 193.858 39.3213 194.234 39.3213C194.705 39.3213 195.12 39.2217 195.479 39.0225C195.839 38.8232 196.124 38.5798 196.334 38.292C196.55 38.0042 196.667 37.7248 196.683 37.4536L197.339 38.1924C197.3 38.4248 197.195 38.6821 197.023 38.9644C196.852 39.2466 196.622 39.5177 196.334 39.7778C196.052 40.0324 195.715 40.2454 195.322 40.417C194.934 40.583 194.497 40.666 194.01 40.666C193.402 40.666 192.868 40.547 192.408 40.3091C191.954 40.0711 191.6 39.7529 191.346 39.3545C191.097 38.9505 190.972 38.4995 190.972 38.0015C190.972 37.52 191.066 37.0967 191.254 36.7314C191.443 36.3607 191.714 36.0535 192.068 35.8101C192.422 35.561 192.848 35.3729 193.346 35.2456C193.844 35.1183 194.4 35.0547 195.015 35.0547H196.799ZM205.714 38.1177C205.714 37.8963 205.665 37.6916 205.565 37.5034C205.471 37.3097 205.274 37.1354 204.976 36.9805C204.682 36.82 204.24 36.6816 203.647 36.5654C203.149 36.4603 202.698 36.3358 202.294 36.1919C201.896 36.048 201.556 35.8737 201.273 35.6689C200.997 35.4642 200.784 35.2235 200.634 34.9468C200.485 34.6701 200.41 34.3464 200.41 33.9756C200.41 33.6214 200.488 33.2866 200.643 32.9712C200.803 32.6558 201.027 32.3763 201.315 32.1328C201.608 31.8893 201.96 31.6984 202.369 31.5601C202.779 31.4217 203.235 31.3525 203.739 31.3525C204.458 31.3525 205.072 31.4798 205.582 31.7344C206.091 31.9889 206.481 32.3293 206.752 32.7554C207.023 33.1759 207.159 33.6436 207.159 34.1582H205.623C205.623 33.9092 205.548 33.6685 205.399 33.436C205.255 33.1981 205.042 33.0016 204.76 32.8467C204.483 32.6917 204.143 32.6143 203.739 32.6143C203.313 32.6143 202.967 32.6807 202.701 32.8135C202.441 32.9408 202.25 33.104 202.128 33.3032C202.012 33.5024 201.954 33.7127 201.954 33.9341C201.954 34.1001 201.982 34.2495 202.037 34.3823C202.098 34.5096 202.203 34.6286 202.353 34.7393C202.502 34.8444 202.712 34.944 202.983 35.0381C203.255 35.1322 203.6 35.2262 204.021 35.3203C204.757 35.4863 205.363 35.6855 205.839 35.918C206.315 36.1504 206.669 36.4354 206.901 36.7729C207.134 37.1105 207.25 37.52 207.25 38.0015C207.25 38.3944 207.167 38.7541 207.001 39.0806C206.84 39.4071 206.605 39.6893 206.295 39.9272C205.991 40.1597 205.626 40.3423 205.2 40.4751C204.779 40.6024 204.306 40.666 203.78 40.666C202.989 40.666 202.319 40.5249 201.771 40.2427C201.224 39.9604 200.809 39.5952 200.526 39.147C200.244 38.6987 200.103 38.2256 200.103 37.7275H201.647C201.669 38.1481 201.791 38.4829 202.012 38.7319C202.234 38.9754 202.505 39.1497 202.826 39.2549C203.147 39.3545 203.465 39.4043 203.78 39.4043C204.201 39.4043 204.552 39.349 204.834 39.2383C205.122 39.1276 205.341 38.9754 205.49 38.7817C205.64 38.5881 205.714 38.3667 205.714 38.1177Z" fill="black"/>
<path d="M88.0562 58.0972L90.7793 50.2578H92.106L88.6846 59.5H87.7388L88.0562 58.0972ZM85.5107 50.2578L88.2085 58.0972L88.5449 59.5H87.5991L84.1841 50.2578H85.5107ZM95.7432 59.627C95.265 59.627 94.8312 59.5465 94.4419 59.3857C94.0568 59.2207 93.7246 58.9901 93.4453 58.6938C93.1702 58.3976 92.9587 58.0464 92.8105 57.6401C92.6624 57.2339 92.5884 56.7896 92.5884 56.3071V56.0405C92.5884 55.4819 92.6709 54.9847 92.8359 54.5488C93.001 54.1087 93.2253 53.7363 93.5088 53.4316C93.7923 53.127 94.1139 52.8963 94.4736 52.7397C94.8333 52.5832 95.2057 52.5049 95.5908 52.5049C96.0817 52.5049 96.5049 52.5895 96.8604 52.7588C97.2201 52.9281 97.5142 53.165 97.7427 53.4697C97.9712 53.7702 98.1405 54.1257 98.2505 54.5361C98.3605 54.9424 98.4155 55.3867 98.4155 55.8691V56.396H93.2866V55.4375H97.2412V55.3486C97.2243 55.0439 97.1608 54.7477 97.0508 54.46C96.945 54.1722 96.7757 53.9352 96.543 53.749C96.3102 53.5628 95.9928 53.4697 95.5908 53.4697C95.3242 53.4697 95.0788 53.5269 94.8545 53.6411C94.6302 53.7511 94.4377 53.9162 94.2769 54.1362C94.116 54.3563 93.9912 54.625 93.9023 54.9424C93.8135 55.2598 93.769 55.6258 93.769 56.0405V56.3071C93.769 56.633 93.8135 56.9398 93.9023 57.2275C93.9954 57.5111 94.1287 57.7607 94.3022 57.9766C94.48 58.1924 94.6937 58.3617 94.9434 58.4844C95.1973 58.6071 95.485 58.6685 95.8066 58.6685C96.2214 58.6685 96.5726 58.5838 96.8604 58.4146C97.1481 58.2453 97.3999 58.0189 97.6157 57.7354L98.3267 58.3003C98.1785 58.5246 97.9902 58.7383 97.7617 58.9414C97.5332 59.1445 97.2518 59.3096 96.9175 59.4365C96.5874 59.5635 96.196 59.627 95.7432 59.627ZM100.961 53.7109V59.5H99.7866V52.6318H100.929L100.961 53.7109ZM103.106 52.5938L103.1 53.6855C103.003 53.6644 102.91 53.6517 102.821 53.6475C102.736 53.639 102.639 53.6348 102.529 53.6348C102.258 53.6348 102.019 53.6771 101.812 53.7617C101.604 53.8464 101.429 53.9648 101.285 54.1172C101.141 54.2695 101.027 54.4515 100.942 54.6631C100.861 54.8704 100.809 55.099 100.783 55.3486L100.453 55.5391C100.453 55.1243 100.493 54.735 100.574 54.3711C100.658 54.0072 100.787 53.6855 100.961 53.4062C101.134 53.1227 101.354 52.9027 101.621 52.7461C101.892 52.5853 102.214 52.5049 102.586 52.5049C102.671 52.5049 102.768 52.5155 102.878 52.5366C102.988 52.5535 103.064 52.5726 103.106 52.5938ZM108.584 53.9966V59.5H107.404V52.6318H108.521L108.584 53.9966ZM108.343 55.8057L107.797 55.7866C107.802 55.3169 107.863 54.8831 107.981 54.4854C108.1 54.0833 108.276 53.7342 108.508 53.438C108.741 53.1418 109.031 52.9132 109.378 52.7524C109.725 52.5874 110.127 52.5049 110.584 52.5049C110.906 52.5049 111.202 52.5514 111.473 52.6445C111.743 52.7334 111.978 52.8752 112.177 53.0698C112.376 53.2645 112.531 53.5142 112.641 53.8188C112.751 54.1235 112.806 54.4917 112.806 54.9233V59.5H111.631V54.9805C111.631 54.6208 111.57 54.333 111.447 54.1172C111.329 53.9014 111.16 53.7448 110.939 53.6475C110.719 53.5459 110.461 53.4951 110.165 53.4951C109.818 53.4951 109.528 53.5565 109.295 53.6792C109.063 53.8019 108.876 53.9712 108.737 54.187C108.597 54.4028 108.496 54.6504 108.432 54.9297C108.373 55.2048 108.343 55.4967 108.343 55.8057ZM112.793 55.1582L112.006 55.3994C112.01 55.0228 112.071 54.661 112.19 54.314C112.313 53.967 112.488 53.658 112.717 53.3872C112.95 53.1164 113.235 52.9027 113.574 52.7461C113.912 52.5853 114.299 52.5049 114.735 52.5049C115.104 52.5049 115.429 52.5535 115.713 52.6509C116.001 52.7482 116.242 52.8984 116.437 53.1016C116.635 53.3005 116.786 53.5565 116.887 53.8696C116.989 54.1828 117.04 54.5552 117.04 54.9868V59.5H115.859V54.9741C115.859 54.589 115.798 54.2907 115.675 54.0791C115.556 53.8633 115.387 53.7131 115.167 53.6284C114.951 53.5396 114.693 53.4951 114.393 53.4951C114.134 53.4951 113.906 53.5396 113.707 53.6284C113.508 53.7173 113.341 53.84 113.206 53.9966C113.07 54.1489 112.966 54.3245 112.895 54.5234C112.827 54.7223 112.793 54.9339 112.793 55.1582ZM122.867 58.3257V54.79C122.867 54.5192 122.812 54.2843 122.702 54.0854C122.596 53.8823 122.435 53.7257 122.219 53.6157C122.003 53.5057 121.737 53.4507 121.419 53.4507C121.123 53.4507 120.863 53.5015 120.639 53.603C120.419 53.7046 120.245 53.8379 120.118 54.0029C119.995 54.168 119.934 54.3457 119.934 54.5361H118.76C118.76 54.2907 118.823 54.0474 118.95 53.8062C119.077 53.5649 119.259 53.347 119.496 53.1523C119.737 52.9535 120.025 52.7969 120.359 52.6826C120.698 52.5641 121.075 52.5049 121.489 52.5049C121.989 52.5049 122.429 52.5895 122.81 52.7588C123.195 52.9281 123.495 53.1841 123.711 53.5269C123.931 53.8654 124.041 54.2907 124.041 54.8027V58.002C124.041 58.2305 124.06 58.4738 124.098 58.7319C124.14 58.9901 124.202 59.2122 124.282 59.3984V59.5H123.057C122.998 59.3646 122.951 59.1847 122.917 58.9604C122.884 58.7319 122.867 58.5203 122.867 58.3257ZM123.07 55.3359L123.083 56.1611H121.896C121.561 56.1611 121.263 56.1886 121 56.2437C120.738 56.2944 120.518 56.3727 120.34 56.4785C120.163 56.5843 120.027 56.7176 119.934 56.8784C119.841 57.035 119.794 57.2191 119.794 57.4307C119.794 57.6465 119.843 57.8433 119.94 58.021C120.038 58.1987 120.184 58.3405 120.378 58.4463C120.577 58.5479 120.821 58.5986 121.108 58.5986C121.468 58.5986 121.785 58.5225 122.061 58.3701C122.336 58.2178 122.554 58.0316 122.714 57.8115C122.879 57.5915 122.968 57.3778 122.981 57.1704L123.482 57.7354C123.453 57.9131 123.372 58.1099 123.241 58.3257C123.11 58.5415 122.934 58.7489 122.714 58.9478C122.499 59.1424 122.24 59.3053 121.94 59.4365C121.644 59.5635 121.309 59.627 120.937 59.627C120.472 59.627 120.063 59.536 119.712 59.354C119.365 59.172 119.094 58.9287 118.899 58.624C118.709 58.3151 118.614 57.9702 118.614 57.5894C118.614 57.2212 118.686 56.8975 118.83 56.6182C118.973 56.3346 119.181 56.0998 119.452 55.9136C119.722 55.7231 120.048 55.5793 120.429 55.4819C120.81 55.3846 121.235 55.3359 121.705 55.3359H123.07ZM120.969 51.6162L122.2 49.75H123.616L121.915 51.6162H120.969ZM129.887 57.6782C129.887 57.509 129.849 57.3524 129.773 57.2085C129.701 57.0604 129.551 56.9271 129.322 56.8086C129.098 56.6859 128.759 56.5801 128.307 56.4912C127.926 56.4108 127.581 56.3156 127.272 56.2056C126.967 56.0955 126.707 55.9622 126.491 55.8057C126.28 55.6491 126.117 55.465 126.002 55.2534C125.888 55.0418 125.831 54.7943 125.831 54.5107C125.831 54.2399 125.89 53.9839 126.009 53.7427C126.132 53.5015 126.303 53.2878 126.523 53.1016C126.747 52.9154 127.016 52.7694 127.329 52.6636C127.642 52.5578 127.991 52.5049 128.376 52.5049C128.927 52.5049 129.396 52.6022 129.786 52.7969C130.175 52.9915 130.473 53.2518 130.681 53.5776C130.888 53.8993 130.992 54.2568 130.992 54.6504H129.817C129.817 54.46 129.76 54.2759 129.646 54.0981C129.536 53.9162 129.373 53.766 129.157 53.6475C128.946 53.529 128.685 53.4697 128.376 53.4697C128.051 53.4697 127.786 53.5205 127.583 53.6221C127.384 53.7194 127.238 53.8442 127.145 53.9966C127.056 54.1489 127.012 54.3097 127.012 54.479C127.012 54.606 127.033 54.7202 127.075 54.8218C127.122 54.9191 127.202 55.0101 127.316 55.0947C127.431 55.1751 127.591 55.2513 127.799 55.3232C128.006 55.3952 128.271 55.4671 128.592 55.5391C129.155 55.666 129.618 55.8184 129.982 55.9961C130.346 56.1738 130.617 56.3918 130.795 56.6499C130.973 56.908 131.062 57.2212 131.062 57.5894C131.062 57.8898 130.998 58.1649 130.871 58.4146C130.748 58.6642 130.569 58.88 130.332 59.062C130.099 59.2397 129.819 59.3794 129.494 59.481C129.172 59.5783 128.81 59.627 128.408 59.627C127.803 59.627 127.291 59.519 126.872 59.3032C126.453 59.0874 126.136 58.8081 125.92 58.4653C125.704 58.1226 125.596 57.7607 125.596 57.3799H126.777C126.794 57.7015 126.887 57.9575 127.056 58.1479C127.225 58.3341 127.433 58.4674 127.678 58.5479C127.924 58.624 128.167 58.6621 128.408 58.6621C128.73 58.6621 128.999 58.6198 129.214 58.5352C129.434 58.4505 129.602 58.3341 129.716 58.186C129.83 58.0379 129.887 57.8687 129.887 57.6782Z" fill="#3483FA"/>
<g clip-path="url(#clip1_1_50)">
<path fill-rule="evenodd" clip-rule="evenodd" d="M348.656 68C361.635 68 372.156 57.4787 372.156 44.5C372.156 31.5213 361.635 21 348.656 21C335.678 21 325.156 31.5213 325.156 44.5C325.156 57.4787 335.678 68 348.656 68Z" stroke="#EEEEEE"/>
<path fill-rule="evenodd" clip-rule="evenodd" d="M339.656 53.5H342.656V41.5H339.656V53.5Z" fill="#0864EE"/>
<path fill-rule="evenodd" clip-rule="evenodd" d="M344.656 53.5H347.656V41.5H344.656V53.5Z" fill="#0864EE"/>
<path fill-rule="evenodd" clip-rule="evenodd" d="M349.656 53.5H352.656V41.5H349.656V53.5Z" fill="#0864EE"/>
<path fill-rule="evenodd" clip-rule="evenodd" d="M354.656 53.5H357.656V41.5H354.656V53.5Z" fill="#0864EE"/>
<path fill-rule="evenodd" clip-rule="evenodd" d="M337.656 55.5H359.656V52.5H337.656V55.5Z" fill="#5697FA"/>
<path fill-rule="evenodd" clip-rule="evenodd" d="M349.302 31.0466L360.197 40.2656C360.493 40.5153 360.529 40.957 360.28 41.2521C360.147 41.4093 359.951 41.5 359.745 41.5H337.567C337.181 41.5 336.867 41.1866 336.867 40.8C336.867 40.5941 336.958 40.3986 337.115 40.2656L348.01 31.0466C348.383 30.7311 348.929 30.7311 349.302 31.0466Z" fill="#5697FA"/>
<path fill-rule="evenodd" clip-rule="evenodd" d="M343.866 38.5H353.476L348.656 34.4363" fill="#0864EE"/>
</g>
<path d="M394.525 28.4141V40.5H392.948V28.4141H394.525ZM398.41 28.4141V29.7256H389.071V28.4141H398.41ZM400.875 32.9297V40.5H399.339V31.5186H400.833L400.875 32.9297ZM403.681 31.4688L403.672 32.8965C403.545 32.8688 403.423 32.8522 403.307 32.8467C403.196 32.8356 403.069 32.8301 402.925 32.8301C402.571 32.8301 402.258 32.8854 401.987 32.9961C401.716 33.1068 401.486 33.2617 401.298 33.4609C401.11 33.6602 400.961 33.8981 400.85 34.1748C400.745 34.446 400.676 34.7448 400.643 35.0713L400.211 35.3203C400.211 34.778 400.264 34.2689 400.369 33.793C400.479 33.3171 400.648 32.8965 400.875 32.5312C401.102 32.1605 401.39 31.8727 401.738 31.668C402.092 31.4577 402.513 31.3525 403 31.3525C403.111 31.3525 403.238 31.3664 403.382 31.394C403.526 31.4162 403.625 31.4411 403.681 31.4688ZM410.064 38.9644V34.3408C410.064 33.9867 409.992 33.6795 409.848 33.4194C409.71 33.1538 409.5 32.9491 409.217 32.8052C408.935 32.6613 408.586 32.5894 408.171 32.5894C407.784 32.5894 407.444 32.6558 407.15 32.7886C406.863 32.9214 406.636 33.0957 406.47 33.3115C406.309 33.5273 406.229 33.7598 406.229 34.0088H404.693C404.693 33.6878 404.776 33.3696 404.942 33.0542C405.108 32.7388 405.346 32.4538 405.656 32.1992C405.972 31.9391 406.348 31.7344 406.785 31.585C407.228 31.43 407.72 31.3525 408.263 31.3525C408.916 31.3525 409.491 31.4632 409.989 31.6846C410.493 31.9059 410.886 32.2407 411.168 32.689C411.456 33.1317 411.6 33.6878 411.6 34.3574V38.541C411.6 38.8398 411.625 39.158 411.674 39.4956C411.73 39.8332 411.81 40.1237 411.915 40.3672V40.5H410.313C410.236 40.3229 410.175 40.0877 410.13 39.7944C410.086 39.4956 410.064 39.2189 410.064 38.9644ZM410.33 35.0547L410.346 36.1338H408.794C408.357 36.1338 407.967 36.1698 407.624 36.2417C407.28 36.3081 406.993 36.4105 406.76 36.5488C406.528 36.6872 406.351 36.8615 406.229 37.0718C406.107 37.2765 406.046 37.5173 406.046 37.7939C406.046 38.0762 406.11 38.3335 406.237 38.5659C406.365 38.7983 406.556 38.9837 406.81 39.1221C407.07 39.2549 407.388 39.3213 407.765 39.3213C408.235 39.3213 408.65 39.2217 409.01 39.0225C409.369 38.8232 409.654 38.5798 409.865 38.292C410.081 38.0042 410.197 37.7248 410.213 37.4536L410.869 38.1924C410.83 38.4248 410.725 38.6821 410.554 38.9644C410.382 39.2466 410.153 39.5177 409.865 39.7778C409.583 40.0324 409.245 40.2454 408.852 40.417C408.465 40.583 408.028 40.666 407.541 40.666C406.932 40.666 406.398 40.547 405.938 40.3091C405.485 40.0711 405.131 39.7529 404.876 39.3545C404.627 38.9505 404.502 38.4995 404.502 38.0015C404.502 37.52 404.597 37.0967 404.785 36.7314C404.973 36.3607 405.244 36.0535 405.598 35.8101C405.952 35.561 406.378 35.3729 406.876 35.2456C407.375 35.1183 407.931 35.0547 408.545 35.0547H410.33ZM415.551 33.436V40.5H414.015V31.5186H415.468L415.551 33.436ZM415.186 35.6689L414.546 35.644C414.552 35.0298 414.643 34.4626 414.82 33.9424C414.997 33.4167 415.246 32.9601 415.567 32.5728C415.888 32.1854 416.27 31.8866 416.713 31.6763C417.161 31.4604 417.656 31.3525 418.199 31.3525C418.641 31.3525 419.04 31.4134 419.394 31.5352C419.748 31.6514 420.05 31.8395 420.299 32.0996C420.553 32.3597 420.747 32.6973 420.88 33.1123C421.013 33.5218 421.079 34.0226 421.079 34.6147V40.5H419.535V34.5981C419.535 34.1278 419.466 33.7515 419.328 33.4692C419.189 33.1815 418.987 32.974 418.722 32.8467C418.456 32.7139 418.13 32.6475 417.742 32.6475C417.36 32.6475 417.012 32.7277 416.696 32.8882C416.386 33.0487 416.118 33.27 415.891 33.5522C415.67 33.8345 415.495 34.1582 415.368 34.5234C415.246 34.8831 415.186 35.265 415.186 35.6689ZM428.641 38.1177C428.641 37.8963 428.591 37.6916 428.492 37.5034C428.398 37.3097 428.201 37.1354 427.902 36.9805C427.609 36.82 427.166 36.6816 426.574 36.5654C426.076 36.4603 425.625 36.3358 425.221 36.1919C424.823 36.048 424.482 35.8737 424.2 35.6689C423.924 35.4642 423.71 35.2235 423.561 34.9468C423.412 34.6701 423.337 34.3464 423.337 33.9756C423.337 33.6214 423.414 33.2866 423.569 32.9712C423.73 32.6558 423.954 32.3763 424.242 32.1328C424.535 31.8893 424.886 31.6984 425.296 31.5601C425.705 31.4217 426.162 31.3525 426.666 31.3525C427.385 31.3525 427.999 31.4798 428.508 31.7344C429.017 31.9889 429.408 32.3293 429.679 32.7554C429.95 33.1759 430.085 33.6436 430.085 34.1582H428.55C428.55 33.9092 428.475 33.6685 428.326 33.436C428.182 33.1981 427.969 33.0016 427.687 32.8467C427.41 32.6917 427.069 32.6143 426.666 32.6143C426.239 32.6143 425.894 32.6807 425.628 32.8135C425.368 32.9408 425.177 33.104 425.055 33.3032C424.939 33.5024 424.881 33.7127 424.881 33.9341C424.881 34.1001 424.909 34.2495 424.964 34.3823C425.025 34.5096 425.13 34.6286 425.279 34.7393C425.429 34.8444 425.639 34.944 425.91 35.0381C426.181 35.1322 426.527 35.2262 426.948 35.3203C427.684 35.4863 428.29 35.6855 428.766 35.918C429.242 36.1504 429.596 36.4354 429.828 36.7729C430.061 37.1105 430.177 37.52 430.177 38.0015C430.177 38.3944 430.094 38.7541 429.928 39.0806C429.767 39.4071 429.532 39.6893 429.222 39.9272C428.918 40.1597 428.553 40.3423 428.126 40.4751C427.706 40.6024 427.233 40.666 426.707 40.666C425.916 40.666 425.246 40.5249 424.698 40.2427C424.15 39.9604 423.735 39.5952 423.453 39.147C423.171 38.6987 423.03 38.2256 423.03 37.7275H424.574C424.596 38.1481 424.718 38.4829 424.939 38.7319C425.16 38.9754 425.431 39.1497 425.752 39.2549C426.073 39.3545 426.392 39.4043 426.707 39.4043C427.128 39.4043 427.479 39.349 427.761 39.2383C428.049 39.1276 428.268 38.9754 428.417 38.7817C428.566 38.5881 428.641 38.3667 428.641 38.1177ZM434.485 40.5H432.949V30.5723C432.949 29.9248 433.065 29.3797 433.298 28.937C433.536 28.4888 433.876 28.1512 434.319 27.9243C434.762 27.6919 435.287 27.5757 435.896 27.5757C436.073 27.5757 436.25 27.5868 436.427 27.6089C436.61 27.631 436.787 27.6642 436.958 27.7085L436.875 28.9619C436.759 28.9342 436.626 28.9149 436.477 28.9038C436.333 28.8927 436.189 28.8872 436.045 28.8872C435.719 28.8872 435.437 28.9536 435.199 29.0864C434.966 29.2137 434.789 29.4019 434.667 29.6509C434.546 29.8999 434.485 30.207 434.485 30.5723V40.5ZM436.394 31.5186V32.6973H431.53V31.5186H436.394ZM441.632 40.666C441.007 40.666 440.439 40.5609 439.93 40.3506C439.427 40.1348 438.992 39.8332 438.627 39.4458C438.267 39.0584 437.991 38.5991 437.797 38.0679C437.603 37.5366 437.506 36.9556 437.506 36.3247V35.9761C437.506 35.2456 437.614 34.5954 437.83 34.0254C438.046 33.4499 438.339 32.9629 438.71 32.5645C439.081 32.166 439.501 31.8644 439.972 31.6597C440.442 31.4549 440.929 31.3525 441.433 31.3525C442.075 31.3525 442.628 31.4632 443.093 31.6846C443.563 31.9059 443.948 32.2158 444.247 32.6143C444.545 33.0072 444.767 33.472 444.911 34.0088C445.055 34.54 445.126 35.1211 445.126 35.752V36.4409H438.419V35.1875H443.591V35.0713C443.569 34.6729 443.486 34.2855 443.342 33.9092C443.203 33.5329 442.982 33.223 442.678 32.9795C442.373 32.736 441.958 32.6143 441.433 32.6143C441.084 32.6143 440.763 32.689 440.47 32.8384C440.176 32.9823 439.925 33.1981 439.714 33.4858C439.504 33.7736 439.341 34.125 439.225 34.54C439.108 34.9551 439.05 35.4338 439.05 35.9761V36.3247C439.05 36.7508 439.108 37.152 439.225 37.5283C439.346 37.8991 439.521 38.2256 439.748 38.5078C439.98 38.79 440.259 39.0114 440.586 39.1719C440.918 39.3324 441.294 39.4126 441.715 39.4126C442.257 39.4126 442.716 39.3019 443.093 39.0806C443.469 38.8592 443.798 38.5632 444.081 38.1924L445.01 38.9312C444.817 39.2244 444.57 39.5039 444.271 39.7695C443.973 40.0352 443.605 40.251 443.167 40.417C442.736 40.583 442.224 40.666 441.632 40.666ZM448.455 32.9297V40.5H446.919V31.5186H448.414L448.455 32.9297ZM451.261 31.4688L451.252 32.8965C451.125 32.8688 451.003 32.8522 450.887 32.8467C450.777 32.8356 450.649 32.8301 450.505 32.8301C450.151 32.8301 449.839 32.8854 449.567 32.9961C449.296 33.1068 449.067 33.2617 448.878 33.4609C448.69 33.6602 448.541 33.8981 448.43 34.1748C448.325 34.446 448.256 34.7448 448.223 35.0713L447.791 35.3203C447.791 34.778 447.844 34.2689 447.949 33.793C448.059 33.3171 448.228 32.8965 448.455 32.5312C448.682 32.1605 448.97 31.8727 449.318 31.668C449.673 31.4577 450.093 31.3525 450.58 31.3525C450.691 31.3525 450.818 31.3664 450.962 31.394C451.106 31.4162 451.205 31.4411 451.261 31.4688ZM456.241 40.666C455.616 40.666 455.049 40.5609 454.54 40.3506C454.036 40.1348 453.602 39.8332 453.236 39.4458C452.877 39.0584 452.6 38.5991 452.406 38.0679C452.213 37.5366 452.116 36.9556 452.116 36.3247V35.9761C452.116 35.2456 452.224 34.5954 452.439 34.0254C452.655 33.4499 452.949 32.9629 453.319 32.5645C453.69 32.166 454.111 31.8644 454.581 31.6597C455.051 31.4549 455.538 31.3525 456.042 31.3525C456.684 31.3525 457.237 31.4632 457.702 31.6846C458.173 31.9059 458.557 32.2158 458.856 32.6143C459.155 33.0072 459.376 33.472 459.52 34.0088C459.664 34.54 459.736 35.1211 459.736 35.752V36.4409H453.029V35.1875H458.2V35.0713C458.178 34.6729 458.095 34.2855 457.951 33.9092C457.813 33.5329 457.591 33.223 457.287 32.9795C456.983 32.736 456.568 32.6143 456.042 32.6143C455.693 32.6143 455.372 32.689 455.079 32.8384C454.786 32.9823 454.534 33.1981 454.324 33.4858C454.113 33.7736 453.95 34.125 453.834 34.54C453.718 34.9551 453.66 35.4338 453.66 35.9761V36.3247C453.66 36.7508 453.718 37.152 453.834 37.5283C453.956 37.8991 454.13 38.2256 454.357 38.5078C454.589 38.79 454.869 39.0114 455.195 39.1719C455.527 39.3324 455.904 39.4126 456.324 39.4126C456.867 39.4126 457.326 39.3019 457.702 39.0806C458.078 38.8592 458.408 38.5632 458.69 38.1924L459.62 38.9312C459.426 39.2244 459.18 39.5039 458.881 39.7695C458.582 40.0352 458.214 40.251 457.777 40.417C457.345 40.583 456.833 40.666 456.241 40.666ZM463.064 33.436V40.5H461.529V31.5186H462.981L463.064 33.436ZM462.699 35.6689L462.06 35.644C462.066 35.0298 462.157 34.4626 462.334 33.9424C462.511 33.4167 462.76 32.9601 463.081 32.5728C463.402 32.1854 463.784 31.8866 464.227 31.6763C464.675 31.4604 465.17 31.3525 465.712 31.3525C466.155 31.3525 466.554 31.4134 466.908 31.5352C467.262 31.6514 467.563 31.8395 467.812 32.0996C468.067 32.3597 468.261 32.6973 468.394 33.1123C468.526 33.5218 468.593 34.0226 468.593 34.6147V40.5H467.049V34.5981C467.049 34.1278 466.98 33.7515 466.841 33.4692C466.703 33.1815 466.501 32.974 466.235 32.8467C465.97 32.7139 465.643 32.6475 465.256 32.6475C464.874 32.6475 464.525 32.7277 464.21 32.8882C463.9 33.0487 463.632 33.27 463.405 33.5522C463.183 33.8345 463.009 34.1582 462.882 34.5234C462.76 34.8831 462.699 35.265 462.699 35.6689ZM474.52 39.4043C474.885 39.4043 475.222 39.3296 475.532 39.1802C475.842 39.0308 476.097 38.826 476.296 38.5659C476.495 38.3003 476.609 37.9987 476.636 37.6611H478.097C478.069 38.1924 477.89 38.6877 477.558 39.147C477.231 39.6007 476.802 39.9688 476.271 40.251C475.74 40.5277 475.156 40.666 474.52 40.666C473.844 40.666 473.255 40.547 472.751 40.3091C472.253 40.0711 471.838 39.7446 471.506 39.3296C471.18 38.9146 470.934 38.4386 470.768 37.9019C470.607 37.3595 470.527 36.7868 470.527 36.1836V35.835C470.527 35.2318 470.607 34.6618 470.768 34.125C470.934 33.5827 471.18 33.104 471.506 32.689C471.838 32.2739 472.253 31.9474 472.751 31.7095C473.255 31.4715 473.844 31.3525 474.52 31.3525C475.222 31.3525 475.837 31.4964 476.362 31.7842C476.888 32.0664 477.3 32.4538 477.599 32.9463C477.903 33.4333 478.069 33.9867 478.097 34.6064H476.636C476.609 34.2357 476.503 33.9009 476.321 33.6021C476.144 33.3032 475.9 33.0653 475.59 32.8882C475.286 32.7056 474.929 32.6143 474.52 32.6143C474.049 32.6143 473.653 32.7083 473.333 32.8965C473.017 33.0791 472.765 33.3281 472.577 33.6436C472.395 33.9535 472.262 34.2993 472.179 34.6812C472.101 35.0575 472.062 35.4421 472.062 35.835V36.1836C472.062 36.5765 472.101 36.9639 472.179 37.3457C472.256 37.7275 472.386 38.0734 472.569 38.3833C472.757 38.6932 473.009 38.9422 473.324 39.1304C473.645 39.313 474.044 39.4043 474.52 39.4043ZM481.492 31.5186V40.5H479.948V31.5186H481.492ZM479.832 29.1362C479.832 28.8872 479.907 28.6769 480.056 28.5054C480.211 28.3338 480.438 28.248 480.737 28.248C481.03 28.248 481.254 28.3338 481.409 28.5054C481.57 28.6769 481.65 28.8872 481.65 29.1362C481.65 29.3742 481.57 29.5789 481.409 29.7505C481.254 29.9165 481.03 29.9995 480.737 29.9995C480.438 29.9995 480.211 29.9165 480.056 29.7505C479.907 29.5789 479.832 29.3742 479.832 29.1362ZM489.253 38.9644V34.3408C489.253 33.9867 489.181 33.6795 489.038 33.4194C488.899 33.1538 488.689 32.9491 488.407 32.8052C488.125 32.6613 487.776 32.5894 487.361 32.5894C486.973 32.5894 486.633 32.6558 486.34 32.7886C486.052 32.9214 485.825 33.0957 485.659 33.3115C485.499 33.5273 485.418 33.7598 485.418 34.0088H483.883C483.883 33.6878 483.966 33.3696 484.132 33.0542C484.298 32.7388 484.536 32.4538 484.846 32.1992C485.161 31.9391 485.537 31.7344 485.975 31.585C486.417 31.43 486.91 31.3525 487.452 31.3525C488.105 31.3525 488.681 31.4632 489.179 31.6846C489.682 31.9059 490.075 32.2407 490.357 32.689C490.645 33.1317 490.789 33.6878 490.789 34.3574V38.541C490.789 38.8398 490.814 39.158 490.864 39.4956C490.919 39.8332 490.999 40.1237 491.104 40.3672V40.5H489.502C489.425 40.3229 489.364 40.0877 489.32 39.7944C489.276 39.4956 489.253 39.2189 489.253 38.9644ZM489.519 35.0547L489.536 36.1338H487.983C487.546 36.1338 487.156 36.1698 486.813 36.2417C486.47 36.3081 486.182 36.4105 485.95 36.5488C485.717 36.6872 485.54 36.8615 485.418 37.0718C485.297 37.2765 485.236 37.5173 485.236 37.7939C485.236 38.0762 485.299 38.3335 485.427 38.5659C485.554 38.7983 485.745 38.9837 486 39.1221C486.26 39.2549 486.578 39.3213 486.954 39.3213C487.424 39.3213 487.84 39.2217 488.199 39.0225C488.559 38.8232 488.844 38.5798 489.054 38.292C489.27 38.0042 489.386 37.7248 489.403 37.4536L490.059 38.1924C490.02 38.4248 489.915 38.6821 489.743 38.9644C489.572 39.2466 489.342 39.5177 489.054 39.7778C488.772 40.0324 488.434 40.2454 488.042 40.417C487.654 40.583 487.217 40.666 486.73 40.666C486.121 40.666 485.587 40.547 485.128 40.3091C484.674 40.0711 484.32 39.7529 484.065 39.3545C483.816 38.9505 483.692 38.4995 483.692 38.0015C483.692 37.52 483.786 37.0967 483.974 36.7314C484.162 36.3607 484.433 36.0535 484.788 35.8101C485.142 35.561 485.568 35.3729 486.066 35.2456C486.564 35.1183 487.12 35.0547 487.734 35.0547H489.519ZM503.083 38.7568V27.75H504.626V40.5H503.215L503.083 38.7568ZM497.04 36.1089V35.9346C497.04 35.2484 497.123 34.6258 497.289 34.0669C497.46 33.5024 497.701 33.0182 498.011 32.6143C498.326 32.2103 498.7 31.9004 499.131 31.6846C499.569 31.4632 500.056 31.3525 500.592 31.3525C501.157 31.3525 501.649 31.4521 502.07 31.6514C502.496 31.8451 502.856 32.13 503.149 32.5063C503.448 32.8771 503.683 33.3254 503.854 33.8511C504.026 34.3768 504.145 34.9717 504.211 35.6357V36.3994C504.151 37.0579 504.032 37.6501 503.854 38.1758C503.683 38.7015 503.448 39.1497 503.149 39.5205C502.856 39.8913 502.496 40.1763 502.07 40.3755C501.644 40.5692 501.146 40.666 500.576 40.666C500.05 40.666 499.569 40.5526 499.131 40.3257C498.7 40.0988 498.326 39.7806 498.011 39.3711C497.701 38.9616 497.46 38.4801 497.289 37.9268C497.123 37.3678 497.04 36.7619 497.04 36.1089ZM498.583 35.9346V36.1089C498.583 36.5571 498.628 36.9777 498.716 37.3706C498.81 37.7635 498.954 38.1094 499.148 38.4082C499.342 38.707 499.588 38.9422 499.887 39.1138C500.186 39.2798 500.542 39.3628 500.958 39.3628C501.467 39.3628 501.884 39.2549 502.211 39.0391C502.543 38.8232 502.809 38.5382 503.008 38.1841C503.207 37.8299 503.362 37.4453 503.473 37.0303V35.0298C503.406 34.7254 503.309 34.4321 503.182 34.1499C503.06 33.8621 502.9 33.6076 502.701 33.3862C502.507 33.1593 502.266 32.9795 501.979 32.8467C501.696 32.7139 501.361 32.6475 500.974 32.6475C500.554 32.6475 500.191 32.736 499.887 32.9131C499.588 33.0846 499.342 33.3226 499.148 33.627C498.954 33.9258 498.81 34.2744 498.716 34.6729C498.628 35.0658 498.583 35.4863 498.583 35.9346ZM510.744 40.666C510.119 40.666 509.552 40.5609 509.042 40.3506C508.539 40.1348 508.104 39.8332 507.739 39.4458C507.38 39.0584 507.103 38.5991 506.909 38.0679C506.715 37.5366 506.619 36.9556 506.619 36.3247V35.9761C506.619 35.2456 506.727 34.5954 506.942 34.0254C507.158 33.4499 507.451 32.9629 507.822 32.5645C508.193 32.166 508.614 31.8644 509.084 31.6597C509.554 31.4549 510.041 31.3525 510.545 31.3525C511.187 31.3525 511.74 31.4632 512.205 31.6846C512.675 31.9059 513.06 32.2158 513.359 32.6143C513.658 33.0072 513.879 33.472 514.023 34.0088C514.167 34.54 514.239 35.1211 514.239 35.752V36.4409H507.532V35.1875H512.703V35.0713C512.681 34.6729 512.598 34.2855 512.454 33.9092C512.316 33.5329 512.094 33.223 511.79 32.9795C511.486 32.736 511.071 32.6143 510.545 32.6143C510.196 32.6143 509.875 32.689 509.582 32.8384C509.289 32.9823 509.037 33.1981 508.827 33.4858C508.616 33.7736 508.453 34.125 508.337 34.54C508.221 34.9551 508.163 35.4338 508.163 35.9761V36.3247C508.163 36.7508 508.221 37.152 508.337 37.5283C508.459 37.8991 508.633 38.2256 508.86 38.5078C509.092 38.79 509.372 39.0114 509.698 39.1719C510.03 39.3324 510.407 39.4126 510.827 39.4126C511.369 39.4126 511.829 39.3019 512.205 39.0806C512.581 38.8592 512.911 38.5632 513.193 38.1924L514.123 38.9312C513.929 39.2244 513.683 39.5039 513.384 39.7695C513.085 40.0352 512.717 40.251 512.28 40.417C511.848 40.583 511.336 40.666 510.744 40.666ZM521.261 38.1177C521.261 37.8963 521.211 37.6916 521.112 37.5034C521.018 37.3097 520.821 37.1354 520.522 36.9805C520.229 36.82 519.786 36.6816 519.194 36.5654C518.696 36.4603 518.245 36.3358 517.841 36.1919C517.443 36.048 517.103 35.8737 516.82 35.6689C516.544 35.4642 516.331 35.2235 516.181 34.9468C516.032 34.6701 515.957 34.3464 515.957 33.9756C515.957 33.6214 516.035 33.2866 516.189 32.9712C516.35 32.6558 516.574 32.3763 516.862 32.1328C517.155 31.8893 517.507 31.6984 517.916 31.5601C518.326 31.4217 518.782 31.3525 519.286 31.3525C520.005 31.3525 520.619 31.4798 521.128 31.7344C521.638 31.9889 522.028 32.3293 522.299 32.7554C522.57 33.1759 522.706 33.6436 522.706 34.1582H521.17C521.17 33.9092 521.095 33.6685 520.946 33.436C520.802 33.1981 520.589 33.0016 520.307 32.8467C520.03 32.6917 519.69 32.6143 519.286 32.6143C518.86 32.6143 518.514 32.6807 518.248 32.8135C517.988 32.9408 517.797 33.104 517.675 33.3032C517.559 33.5024 517.501 33.7127 517.501 33.9341C517.501 34.1001 517.529 34.2495 517.584 34.3823C517.645 34.5096 517.75 34.6286 517.899 34.7393C518.049 34.8444 518.259 34.944 518.53 35.0381C518.801 35.1322 519.147 35.2262 519.568 35.3203C520.304 35.4863 520.91 35.6855 521.386 35.918C521.862 36.1504 522.216 36.4354 522.448 36.7729C522.681 37.1105 522.797 37.52 522.797 38.0015C522.797 38.3944 522.714 38.7541 522.548 39.0806C522.387 39.4071 522.152 39.6893 521.842 39.9272C521.538 40.1597 521.173 40.3423 520.747 40.4751C520.326 40.6024 519.853 40.666 519.327 40.666C518.536 40.666 517.866 40.5249 517.318 40.2427C516.771 39.9604 516.355 39.5952 516.073 39.147C515.791 38.6987 515.65 38.2256 515.65 37.7275H517.194C517.216 38.1481 517.338 38.4829 517.559 38.7319C517.78 38.9754 518.052 39.1497 518.373 39.2549C518.694 39.3545 519.012 39.4043 519.327 39.4043C519.748 39.4043 520.099 39.349 520.381 39.2383C520.669 39.1276 520.888 38.9754 521.037 38.7817C521.187 38.5881 521.261 38.3667 521.261 38.1177ZM530.475 38.7568V27.75H532.019V40.5H530.608L530.475 38.7568ZM524.432 36.1089V35.9346C524.432 35.2484 524.515 34.6258 524.681 34.0669C524.853 33.5024 525.093 33.0182 525.403 32.6143C525.719 32.2103 526.092 31.9004 526.524 31.6846C526.961 31.4632 527.448 31.3525 527.985 31.3525C528.549 31.3525 529.042 31.4521 529.462 31.6514C529.889 31.8451 530.248 32.13 530.542 32.5063C530.84 32.8771 531.076 33.3254 531.247 33.8511C531.419 34.3768 531.538 34.9717 531.604 35.6357V36.3994C531.543 37.0579 531.424 37.6501 531.247 38.1758C531.076 38.7015 530.84 39.1497 530.542 39.5205C530.248 39.8913 529.889 40.1763 529.462 40.3755C529.036 40.5692 528.538 40.666 527.968 40.666C527.443 40.666 526.961 40.5526 526.524 40.3257C526.092 40.0988 525.719 39.7806 525.403 39.3711C525.093 38.9616 524.853 38.4801 524.681 37.9268C524.515 37.3678 524.432 36.7619 524.432 36.1089ZM525.976 35.9346V36.1089C525.976 36.5571 526.02 36.9777 526.109 37.3706C526.203 37.7635 526.347 38.1094 526.541 38.4082C526.734 38.707 526.98 38.9422 527.279 39.1138C527.578 39.2798 527.935 39.3628 528.35 39.3628C528.859 39.3628 529.277 39.2549 529.604 39.0391C529.936 38.8232 530.201 38.5382 530.4 38.1841C530.6 37.8299 530.755 37.4453 530.865 37.0303V35.0298C530.799 34.7254 530.702 34.4321 530.575 34.1499C530.453 33.8621 530.292 33.6076 530.093 33.3862C529.9 33.1593 529.659 32.9795 529.371 32.8467C529.089 32.7139 528.754 32.6475 528.367 32.6475C527.946 32.6475 527.584 32.736 527.279 32.9131C526.98 33.0846 526.734 33.3226 526.541 33.627C526.347 33.9258 526.203 34.2744 526.109 34.6729C526.02 35.0658 525.976 35.4863 525.976 35.9346ZM538.137 40.666C537.511 40.666 536.944 40.5609 536.435 40.3506C535.931 40.1348 535.497 39.8332 535.132 39.4458C534.772 39.0584 534.495 38.5991 534.302 38.0679C534.108 37.5366 534.011 36.9556 534.011 36.3247V35.9761C534.011 35.2456 534.119 34.5954 534.335 34.0254C534.551 33.4499 534.844 32.9629 535.215 32.5645C535.586 32.166 536.006 31.8644 536.477 31.6597C536.947 31.4549 537.434 31.3525 537.938 31.3525C538.579 31.3525 539.133 31.4632 539.598 31.6846C540.068 31.9059 540.453 32.2158 540.751 32.6143C541.05 33.0072 541.272 33.472 541.416 34.0088C541.559 34.54 541.631 35.1211 541.631 35.752V36.4409H534.924V35.1875H540.096V35.0713C540.074 34.6729 539.991 34.2855 539.847 33.9092C539.708 33.5329 539.487 33.223 539.183 32.9795C538.878 32.736 538.463 32.6143 537.938 32.6143C537.589 32.6143 537.268 32.689 536.975 32.8384C536.681 32.9823 536.43 33.1981 536.219 33.4858C536.009 33.7736 535.846 34.125 535.729 34.54C535.613 34.9551 535.555 35.4338 535.555 35.9761V36.3247C535.555 36.7508 535.613 37.152 535.729 37.5283C535.851 37.8991 536.026 38.2256 536.252 38.5078C536.485 38.79 536.764 39.0114 537.091 39.1719C537.423 39.3324 537.799 39.4126 538.22 39.4126C538.762 39.4126 539.221 39.3019 539.598 39.0806C539.974 38.8592 540.303 38.5632 540.585 38.1924L541.515 38.9312C541.321 39.2244 541.075 39.5039 540.776 39.7695C540.478 40.0352 540.11 40.251 539.672 40.417C539.241 40.583 538.729 40.666 538.137 40.666ZM551.401 31.5186V32.6973H546.545V31.5186H551.401ZM548.189 29.3354H549.725V38.2754C549.725 38.5798 549.772 38.8094 549.866 38.9644C549.96 39.1193 550.082 39.2217 550.231 39.2715C550.38 39.3213 550.541 39.3462 550.712 39.3462C550.84 39.3462 550.972 39.3351 551.111 39.313C551.255 39.2853 551.363 39.2632 551.435 39.2466L551.443 40.5C551.321 40.5387 551.161 40.5747 550.961 40.6079C550.768 40.6466 550.533 40.666 550.256 40.666C549.88 40.666 549.534 40.5913 549.218 40.4419C548.903 40.2925 548.651 40.0435 548.463 39.6948C548.28 39.3407 548.189 38.8647 548.189 38.2671V29.3354ZM558.698 38.4248V31.5186H560.242V40.5H558.772L558.698 38.4248ZM558.988 36.5322L559.627 36.5156C559.627 37.1133 559.564 37.6667 559.437 38.1758C559.315 38.6794 559.116 39.1165 558.839 39.4873C558.562 39.8581 558.2 40.1486 557.751 40.3589C557.303 40.5636 556.758 40.666 556.116 40.666C555.679 40.666 555.278 40.6024 554.913 40.4751C554.553 40.3478 554.243 40.1514 553.983 39.8857C553.723 39.6201 553.521 39.2743 553.377 38.8481C553.239 38.422 553.169 37.9102 553.169 37.3125V31.5186H554.705V37.3291C554.705 37.7331 554.749 38.0679 554.838 38.3335C554.932 38.5936 555.056 38.8011 555.211 38.9561C555.372 39.1055 555.549 39.2106 555.743 39.2715C555.942 39.3324 556.147 39.3628 556.357 39.3628C557.01 39.3628 557.527 39.2383 557.909 38.9893C558.291 38.7347 558.565 38.3944 558.731 37.9683C558.903 37.5366 558.988 37.0579 558.988 36.5322ZM566.791 27.75H568.335V38.7568L568.202 40.5H566.791V27.75ZM574.403 35.9346V36.1089C574.403 36.7619 574.325 37.3678 574.17 37.9268C574.015 38.4801 573.789 38.9616 573.49 39.3711C573.191 39.7806 572.826 40.0988 572.394 40.3257C571.962 40.5526 571.467 40.666 570.908 40.666C570.338 40.666 569.837 40.5692 569.406 40.3755C568.98 40.1763 568.62 39.8913 568.327 39.5205C568.033 39.1497 567.798 38.7015 567.621 38.1758C567.45 37.6501 567.331 37.0579 567.264 36.3994V35.6357C567.331 34.9717 567.45 34.3768 567.621 33.8511C567.798 33.3254 568.033 32.8771 568.327 32.5063C568.62 32.13 568.98 31.8451 569.406 31.6514C569.832 31.4521 570.327 31.3525 570.892 31.3525C571.456 31.3525 571.957 31.4632 572.394 31.6846C572.831 31.9004 573.196 32.2103 573.49 32.6143C573.789 33.0182 574.015 33.5024 574.17 34.0669C574.325 34.6258 574.403 35.2484 574.403 35.9346ZM572.859 36.1089V35.9346C572.859 35.4863 572.817 35.0658 572.734 34.6729C572.651 34.2744 572.519 33.9258 572.336 33.627C572.153 33.3226 571.913 33.0846 571.614 32.9131C571.315 32.736 570.947 32.6475 570.51 32.6475C570.122 32.6475 569.785 32.7139 569.497 32.8467C569.215 32.9795 568.974 33.1593 568.775 33.3862C568.576 33.6076 568.412 33.8621 568.285 34.1499C568.163 34.4321 568.072 34.7254 568.011 35.0298V37.0303C568.1 37.4176 568.244 37.7912 568.443 38.1509C568.648 38.505 568.919 38.7956 569.256 39.0225C569.599 39.2493 570.023 39.3628 570.526 39.3628C570.941 39.3628 571.296 39.2798 571.589 39.1138C571.888 38.9422 572.128 38.707 572.311 38.4082C572.499 38.1094 572.638 37.7635 572.726 37.3706C572.815 36.9777 572.859 36.5571 572.859 36.1089ZM581.641 38.9644V34.3408C581.641 33.9867 581.569 33.6795 581.425 33.4194C581.287 33.1538 581.077 32.9491 580.794 32.8052C580.512 32.6613 580.164 32.5894 579.749 32.5894C579.361 32.5894 579.021 32.6558 578.728 32.7886C578.44 32.9214 578.213 33.0957 578.047 33.3115C577.886 33.5273 577.806 33.7598 577.806 34.0088H576.271C576.271 33.6878 576.354 33.3696 576.52 33.0542C576.686 32.7388 576.924 32.4538 577.233 32.1992C577.549 31.9391 577.925 31.7344 578.362 31.585C578.805 31.43 579.298 31.3525 579.84 31.3525C580.493 31.3525 581.068 31.4632 581.566 31.6846C582.07 31.9059 582.463 32.2407 582.745 32.689C583.033 33.1317 583.177 33.6878 583.177 34.3574V38.541C583.177 38.8398 583.202 39.158 583.251 39.4956C583.307 39.8332 583.387 40.1237 583.492 40.3672V40.5H581.89C581.813 40.3229 581.752 40.0877 581.708 39.7944C581.663 39.4956 581.641 39.2189 581.641 38.9644ZM581.907 35.0547L581.923 36.1338H580.371C579.934 36.1338 579.544 36.1698 579.201 36.2417C578.858 36.3081 578.57 36.4105 578.337 36.5488C578.105 36.6872 577.928 36.8615 577.806 37.0718C577.684 37.2765 577.624 37.5173 577.624 37.7939C577.624 38.0762 577.687 38.3335 577.814 38.5659C577.942 38.7983 578.133 38.9837 578.387 39.1221C578.647 39.2549 578.965 39.3213 579.342 39.3213C579.812 39.3213 580.227 39.2217 580.587 39.0225C580.947 38.8232 581.232 38.5798 581.442 38.292C581.658 38.0042 581.774 37.7248 581.791 37.4536L582.446 38.1924C582.408 38.4248 582.302 38.6821 582.131 38.9644C581.959 39.2466 581.73 39.5177 581.442 39.7778C581.16 40.0324 580.822 40.2454 580.429 40.417C580.042 40.583 579.605 40.666 579.118 40.666C578.509 40.666 577.975 40.547 577.516 40.3091C577.062 40.0711 576.708 39.7529 576.453 39.3545C576.204 38.9505 576.08 38.4995 576.08 38.0015C576.08 37.52 576.174 37.0967 576.362 36.7314C576.55 36.3607 576.821 36.0535 577.175 35.8101C577.529 35.561 577.956 35.3729 578.454 35.2456C578.952 35.1183 579.508 35.0547 580.122 35.0547H581.907ZM587.128 33.436V40.5H585.592V31.5186H587.045L587.128 33.436ZM586.763 35.6689L586.124 35.644C586.129 35.0298 586.22 34.4626 586.397 33.9424C586.575 33.4167 586.824 32.9601 587.145 32.5728C587.465 32.1854 587.847 31.8866 588.29 31.6763C588.738 31.4604 589.234 31.3525 589.776 31.3525C590.219 31.3525 590.617 31.4134 590.971 31.5352C591.325 31.6514 591.627 31.8395 591.876 32.0996C592.131 32.3597 592.324 32.6973 592.457 33.1123C592.59 33.5218 592.656 34.0226 592.656 34.6147V40.5H591.112V34.5981C591.112 34.1278 591.043 33.7515 590.905 33.4692C590.766 33.1815 590.564 32.974 590.299 32.8467C590.033 32.7139 589.707 32.6475 589.319 32.6475C588.938 32.6475 588.589 32.7277 588.273 32.8882C587.964 33.0487 587.695 33.27 587.468 33.5522C587.247 33.8345 587.073 34.1582 586.945 34.5234C586.824 34.8831 586.763 35.265 586.763 35.6689ZM598.583 39.4043C598.948 39.4043 599.286 39.3296 599.596 39.1802C599.906 39.0308 600.16 38.826 600.359 38.5659C600.559 38.3003 600.672 37.9987 600.7 37.6611H602.161C602.133 38.1924 601.953 38.6877 601.621 39.147C601.295 39.6007 600.866 39.9688 600.334 40.251C599.803 40.5277 599.219 40.666 598.583 40.666C597.908 40.666 597.319 40.547 596.815 40.3091C596.317 40.0711 595.902 39.7446 595.57 39.3296C595.243 38.9146 594.997 38.4386 594.831 37.9019C594.671 37.3595 594.59 36.7868 594.59 36.1836V35.835C594.59 35.2318 594.671 34.6618 594.831 34.125C594.997 33.5827 595.243 33.104 595.57 32.689C595.902 32.2739 596.317 31.9474 596.815 31.7095C597.319 31.4715 597.908 31.3525 598.583 31.3525C599.286 31.3525 599.9 31.4964 600.426 31.7842C600.951 32.0664 601.364 32.4538 601.663 32.9463C601.967 33.4333 602.133 33.9867 602.161 34.6064H600.7C600.672 34.2357 600.567 33.9009 600.384 33.6021C600.207 33.3032 599.964 33.0653 599.654 32.8882C599.349 32.7056 598.993 32.6143 598.583 32.6143C598.113 32.6143 597.717 32.7083 597.396 32.8965C597.081 33.0791 596.829 33.3281 596.641 33.6436C596.458 33.9535 596.325 34.2993 596.242 34.6812C596.165 35.0575 596.126 35.4421 596.126 35.835V36.1836C596.126 36.5765 596.165 36.9639 596.242 37.3457C596.32 37.7275 596.45 38.0734 596.632 38.3833C596.82 38.6932 597.072 38.9422 597.388 39.1304C597.709 39.313 598.107 39.4043 598.583 39.4043ZM603.48 36.1089V35.918C603.48 35.2705 603.575 34.6701 603.763 34.1167C603.951 33.5578 604.222 33.0736 604.576 32.6641C604.93 32.249 605.359 31.9281 605.863 31.7012C606.366 31.4688 606.931 31.3525 607.556 31.3525C608.187 31.3525 608.754 31.4688 609.258 31.7012C609.767 31.9281 610.199 32.249 610.553 32.6641C610.912 33.0736 611.186 33.5578 611.375 34.1167C611.563 34.6701 611.657 35.2705 611.657 35.918V36.1089C611.657 36.7563 611.563 37.3568 611.375 37.9102C611.186 38.4635 610.912 38.9478 610.553 39.3628C610.199 39.7723 609.77 40.0933 609.266 40.3257C608.768 40.5526 608.204 40.666 607.573 40.666C606.942 40.666 606.375 40.5526 605.871 40.3257C605.368 40.0933 604.936 39.7723 604.576 39.3628C604.222 38.9478 603.951 38.4635 603.763 37.9102C603.575 37.3568 603.48 36.7563 603.48 36.1089ZM605.016 35.918V36.1089C605.016 36.5571 605.069 36.9805 605.174 37.3789C605.279 37.7718 605.437 38.1204 605.647 38.4248C605.863 38.7292 606.131 38.9699 606.452 39.147C606.773 39.3185 607.147 39.4043 607.573 39.4043C607.993 39.4043 608.361 39.3185 608.677 39.147C608.998 38.9699 609.263 38.7292 609.474 38.4248C609.684 38.1204 609.842 37.7718 609.947 37.3789C610.057 36.9805 610.113 36.5571 610.113 36.1089V35.918C610.113 35.4753 610.057 35.0575 609.947 34.6646C609.842 34.2661 609.681 33.9147 609.465 33.6104C609.255 33.3005 608.989 33.057 608.668 32.8799C608.353 32.7028 607.982 32.6143 607.556 32.6143C607.136 32.6143 606.765 32.7028 606.444 32.8799C606.128 33.057 605.863 33.3005 605.647 33.6104C605.437 33.9147 605.279 34.2661 605.174 34.6646C605.069 35.0575 605.016 35.4753 605.016 35.918Z" fill="black"/>
<path d="M392.712 58.0972L395.436 50.2578H396.762L393.341 59.5H392.395L392.712 58.0972ZM390.167 50.2578L392.865 58.0972L393.201 59.5H392.255L388.84 50.2578H390.167ZM400.399 59.627C399.921 59.627 399.487 59.5465 399.098 59.3857C398.713 59.2207 398.381 58.9901 398.102 58.6938C397.826 58.3976 397.615 58.0464 397.467 57.6401C397.319 57.2339 397.245 56.7896 397.245 56.3071V56.0405C397.245 55.4819 397.327 54.9847 397.492 54.5488C397.657 54.1087 397.882 53.7363 398.165 53.4316C398.449 53.127 398.77 52.8963 399.13 52.7397C399.49 52.5832 399.862 52.5049 400.247 52.5049C400.738 52.5049 401.161 52.5895 401.517 52.7588C401.876 52.9281 402.17 53.165 402.399 53.4697C402.627 53.7702 402.797 54.1257 402.907 54.5361C403.017 54.9424 403.072 55.3867 403.072 55.8691V56.396H397.943V55.4375H401.897V55.3486C401.881 55.0439 401.817 54.7477 401.707 54.46C401.601 54.1722 401.432 53.9352 401.199 53.749C400.966 53.5628 400.649 53.4697 400.247 53.4697C399.98 53.4697 399.735 53.5269 399.511 53.6411C399.286 53.7511 399.094 53.9162 398.933 54.1362C398.772 54.3563 398.647 54.625 398.559 54.9424C398.47 55.2598 398.425 55.6258 398.425 56.0405V56.3071C398.425 56.633 398.47 56.9398 398.559 57.2275C398.652 57.5111 398.785 57.7607 398.958 57.9766C399.136 58.1924 399.35 58.3617 399.6 58.4844C399.854 58.6071 400.141 58.6685 400.463 58.6685C400.878 58.6685 401.229 58.5838 401.517 58.4146C401.804 58.2453 402.056 58.0189 402.272 57.7354L402.983 58.3003C402.835 58.5246 402.646 58.7383 402.418 58.9414C402.189 59.1445 401.908 59.3096 401.574 59.4365C401.244 59.5635 400.852 59.627 400.399 59.627ZM405.617 53.7109V59.5H404.443V52.6318H405.585L405.617 53.7109ZM407.763 52.5938L407.756 53.6855C407.659 53.6644 407.566 53.6517 407.477 53.6475C407.392 53.639 407.295 53.6348 407.185 53.6348C406.914 53.6348 406.675 53.6771 406.468 53.7617C406.26 53.8464 406.085 53.9648 405.941 54.1172C405.797 54.2695 405.683 54.4515 405.598 54.6631C405.518 54.8704 405.465 55.099 405.439 55.3486L405.109 55.5391C405.109 55.1243 405.15 54.735 405.23 54.3711C405.315 54.0072 405.444 53.6855 405.617 53.4062C405.791 53.1227 406.011 52.9027 406.277 52.7461C406.548 52.5853 406.87 52.5049 407.242 52.5049C407.327 52.5049 407.424 52.5155 407.534 52.5366C407.644 52.5535 407.72 52.5726 407.763 52.5938ZM413.241 53.9966V59.5H412.06V52.6318H413.177L413.241 53.9966ZM413 55.8057L412.454 55.7866C412.458 55.3169 412.519 54.8831 412.638 54.4854C412.756 54.0833 412.932 53.7342 413.165 53.438C413.397 53.1418 413.687 52.9132 414.034 52.7524C414.381 52.5874 414.783 52.5049 415.24 52.5049C415.562 52.5049 415.858 52.5514 416.129 52.6445C416.4 52.7334 416.635 52.8752 416.833 53.0698C417.032 53.2645 417.187 53.5142 417.297 53.8188C417.407 54.1235 417.462 54.4917 417.462 54.9233V59.5H416.288V54.9805C416.288 54.6208 416.226 54.333 416.104 54.1172C415.985 53.9014 415.816 53.7448 415.596 53.6475C415.376 53.5459 415.118 53.4951 414.821 53.4951C414.474 53.4951 414.184 53.5565 413.952 53.6792C413.719 53.8019 413.533 53.9712 413.393 54.187C413.253 54.4028 413.152 54.6504 413.088 54.9297C413.029 55.2048 413 55.4967 413 55.8057ZM417.449 55.1582L416.662 55.3994C416.666 55.0228 416.728 54.661 416.846 54.314C416.969 53.967 417.145 53.658 417.373 53.3872C417.606 53.1164 417.891 52.9027 418.23 52.7461C418.569 52.5853 418.956 52.5049 419.392 52.5049C419.76 52.5049 420.086 52.5535 420.369 52.6509C420.657 52.7482 420.898 52.8984 421.093 53.1016C421.292 53.3005 421.442 53.5565 421.543 53.8696C421.645 54.1828 421.696 54.5552 421.696 54.9868V59.5H420.515V54.9741C420.515 54.589 420.454 54.2907 420.331 54.0791C420.213 53.8633 420.043 53.7131 419.823 53.6284C419.607 53.5396 419.349 53.4951 419.049 53.4951C418.791 53.4951 418.562 53.5396 418.363 53.6284C418.164 53.7173 417.997 53.84 417.862 53.9966C417.726 54.1489 417.623 54.3245 417.551 54.5234C417.483 54.7223 417.449 54.9339 417.449 55.1582ZM427.523 58.3257V54.79C427.523 54.5192 427.468 54.2843 427.358 54.0854C427.252 53.8823 427.091 53.7257 426.875 53.6157C426.66 53.5057 426.393 53.4507 426.076 53.4507C425.779 53.4507 425.519 53.5015 425.295 53.603C425.075 53.7046 424.901 53.8379 424.774 54.0029C424.652 54.168 424.59 54.3457 424.59 54.5361H423.416C423.416 54.2907 423.479 54.0474 423.606 53.8062C423.733 53.5649 423.915 53.347 424.152 53.1523C424.394 52.9535 424.681 52.7969 425.016 52.6826C425.354 52.5641 425.731 52.5049 426.146 52.5049C426.645 52.5049 427.085 52.5895 427.466 52.7588C427.851 52.9281 428.151 53.1841 428.367 53.5269C428.587 53.8654 428.697 54.2907 428.697 54.8027V58.002C428.697 58.2305 428.716 58.4738 428.754 58.7319C428.797 58.9901 428.858 59.2122 428.938 59.3984V59.5H427.713C427.654 59.3646 427.608 59.1847 427.574 58.9604C427.54 58.7319 427.523 58.5203 427.523 58.3257ZM427.726 55.3359L427.739 56.1611H426.552C426.217 56.1611 425.919 56.1886 425.657 56.2437C425.394 56.2944 425.174 56.3727 424.997 56.4785C424.819 56.5843 424.683 56.7176 424.59 56.8784C424.497 57.035 424.451 57.2191 424.451 57.4307C424.451 57.6465 424.499 57.8433 424.597 58.021C424.694 58.1987 424.84 58.3405 425.035 58.4463C425.234 58.5479 425.477 58.5986 425.765 58.5986C426.124 58.5986 426.442 58.5225 426.717 58.3701C426.992 58.2178 427.21 58.0316 427.371 57.8115C427.536 57.5915 427.625 57.3778 427.637 57.1704L428.139 57.7354C428.109 57.9131 428.029 58.1099 427.897 58.3257C427.766 58.5415 427.591 58.7489 427.371 58.9478C427.155 59.1424 426.897 59.3053 426.596 59.4365C426.3 59.5635 425.966 59.627 425.593 59.627C425.128 59.627 424.719 59.536 424.368 59.354C424.021 59.172 423.75 58.9287 423.556 58.624C423.365 58.3151 423.27 57.9702 423.27 57.5894C423.27 57.2212 423.342 56.8975 423.486 56.6182C423.63 56.3346 423.837 56.0998 424.108 55.9136C424.379 55.7231 424.705 55.5793 425.085 55.4819C425.466 55.3846 425.892 55.3359 426.361 55.3359H427.726ZM425.625 51.6162L426.856 49.75H428.272L426.571 51.6162H425.625ZM434.543 57.6782C434.543 57.509 434.505 57.3524 434.429 57.2085C434.357 57.0604 434.207 56.9271 433.979 56.8086C433.754 56.6859 433.416 56.5801 432.963 56.4912C432.582 56.4108 432.237 56.3156 431.928 56.2056C431.624 56.0955 431.363 55.9622 431.147 55.8057C430.936 55.6491 430.773 55.465 430.659 55.2534C430.544 55.0418 430.487 54.7943 430.487 54.5107C430.487 54.2399 430.547 53.9839 430.665 53.7427C430.788 53.5015 430.959 53.2878 431.179 53.1016C431.403 52.9154 431.672 52.7694 431.985 52.6636C432.299 52.5578 432.648 52.5049 433.033 52.5049C433.583 52.5049 434.053 52.6022 434.442 52.7969C434.831 52.9915 435.13 53.2518 435.337 53.5776C435.544 53.8993 435.648 54.2568 435.648 54.6504H434.474C434.474 54.46 434.417 54.2759 434.302 54.0981C434.192 53.9162 434.029 53.766 433.813 53.6475C433.602 53.529 433.342 53.4697 433.033 53.4697C432.707 53.4697 432.442 53.5205 432.239 53.6221C432.04 53.7194 431.894 53.8442 431.801 53.9966C431.712 54.1489 431.668 54.3097 431.668 54.479C431.668 54.606 431.689 54.7202 431.731 54.8218C431.778 54.9191 431.858 55.0101 431.973 55.0947C432.087 55.1751 432.248 55.2513 432.455 55.3232C432.662 55.3952 432.927 55.4671 433.249 55.5391C433.811 55.666 434.275 55.8184 434.639 55.9961C435.003 56.1738 435.273 56.3918 435.451 56.6499C435.629 56.908 435.718 57.2212 435.718 57.5894C435.718 57.8898 435.654 58.1649 435.527 58.4146C435.405 58.6642 435.225 58.88 434.988 59.062C434.755 59.2397 434.476 59.3794 434.15 59.481C433.828 59.5783 433.466 59.627 433.064 59.627C432.459 59.627 431.947 59.519 431.528 59.3032C431.109 59.0874 430.792 58.8081 430.576 58.4653C430.36 58.1226 430.252 57.7607 430.252 57.3799H431.433C431.45 57.7015 431.543 57.9575 431.712 58.1479C431.882 58.3341 432.089 58.4674 432.334 58.5479C432.58 58.624 432.823 58.6621 433.064 58.6621C433.386 58.6621 433.655 58.6198 433.871 58.5352C434.091 58.4505 434.258 58.3341 434.372 58.186C434.486 58.0379 434.543 57.8687 434.543 57.6782Z" fill="#3483FA"/>
<g clip-path="url(#clip2_1_50)">
<path fill-rule="evenodd" clip-rule="evenodd" d="M653.312 68C666.291 68 676.812 57.4787 676.812 44.5C676.812 31.5213 666.291 21 653.312 21C640.334 21 629.812 31.5213 629.812 44.5C629.812 57.4787 640.334 68 653.312 68Z" stroke="#EEEEEE"/>
<path fill-rule="evenodd" clip-rule="evenodd" d="M649.179 32.2717L664.533 47.6266L655.084 57.0757L639.729 41.7209L649.179 32.2717Z" fill="#5697FA"/>
<path fill-rule="evenodd" clip-rule="evenodd" d="M643.605 40.2079L647.666 36.147C647.977 36.6563 648.538 36.9963 649.179 36.9963C649.819 36.9963 650.38 36.6563 650.691 36.147L660.658 46.1136C660.149 46.4248 659.809 46.986 659.809 47.6266C659.809 48.2671 660.149 48.8283 660.658 49.1395L656.597 53.2005C656.286 52.6911 655.725 52.3511 655.084 52.3511C654.444 52.3511 653.882 52.6911 653.571 53.2005L643.605 43.2338C644.114 42.9226 644.454 42.3614 644.454 41.7209C644.454 41.0803 644.114 40.5191 643.605 40.2079Z" fill="white"/>
<path d="M652.131 48.8077C654.415 48.8077 656.265 46.9569 656.265 44.6737C656.265 42.3906 654.415 40.5397 652.131 40.5397C649.848 40.5397 647.997 42.3906 647.997 44.6737C647.997 46.9569 649.848 48.8077 652.131 48.8077Z" fill="#3483FA"/>
<path fill-rule="evenodd" clip-rule="evenodd" d="M650.252 46.1395L649.988 46.4039C649.771 46.6206 649.899 47.0215 650.33 47.0172C650.347 47.0167 650.364 47.0098 650.376 46.9977L650.733 46.6401C651.427 47.1927 652.205 47.2144 652.727 46.6921C653.249 46.1698 653.245 45.5348 652.682 44.5964L652.404 44.1196C652.157 43.6341 652.205 43.4478 652.38 43.2722C652.556 43.0967 652.877 43.088 653.176 43.3329C653.212 43.3629 653.247 43.3948 653.28 43.4283C653.367 43.5187 653.442 43.6199 653.503 43.7295C653.625 43.9479 653.718 44.181 653.78 44.423C653.798 44.5045 653.838 44.5796 653.895 44.6397C654.064 44.8049 654.334 44.8049 654.502 44.6397C654.617 44.5272 654.656 44.3578 654.602 44.2063C654.522 43.8457 654.365 43.5069 654.14 43.2137L654.474 42.88C654.486 42.8678 654.493 42.8515 654.493 42.8344C654.493 42.401 654.086 42.284 653.88 42.492L653.663 42.7087C652.987 42.1561 652.222 42.1323 651.713 42.6524C651.204 43.1725 651.188 43.788 651.743 44.7351L652.029 45.2032C652.287 45.6952 652.246 45.8946 652.057 46.0701C651.841 46.2868 651.55 46.263 651.234 46.0094C651.234 46.0094 651.193 45.9726 651.134 45.9141C651.042 45.823 650.958 45.7244 650.883 45.6193C650.69 45.3124 650.561 44.9696 650.504 44.6116C650.499 44.4393 650.393 44.2861 650.233 44.2213C650.074 44.1565 649.891 44.1924 649.767 44.3128C649.644 44.4332 649.604 44.6151 649.665 44.7763C649.743 45.2728 649.945 45.7417 650.252 46.1395Z" fill="white"/>
<path fill-rule="evenodd" clip-rule="evenodd" d="M659.312 37.5L658.009 36.284C656.394 34.7765 653.817 34.8213 652.252 36.3861L649.179 39.4601C650.483 40.7647 653.312 40.0506 653.312 40.0506L655.084 38.2789L663.262 46.5H666.312V37.5H659.312Z" fill="#0864EE"/>
<path d="M645.714 43.1264C646.06 42.78 646.514 42.6067 646.968 42.6067C647.39 42.6067 647.811 42.7564 648.147 43.0558C648.768 43.7524 648.745 44.8201 648.076 45.4887L645.859 47.706C645.191 48.3742 644.123 48.3987 643.426 47.7754C642.806 47.0791 642.829 46.0119 643.497 45.3437L645.714 43.1264ZM648.076 45.4887C648.423 45.1423 648.877 44.969 649.33 44.969C649.752 44.969 650.173 45.1184 650.509 45.4181C651.13 46.1144 651.108 47.1824 650.439 47.851L648.222 50.0683C647.553 50.7362 646.487 50.761 645.789 50.1385C645.168 49.4425 645.191 48.3745 645.859 47.706L648.076 45.4887ZM650.439 47.851C650.785 47.5046 651.239 47.3313 651.692 47.3313C652.114 47.3313 652.536 47.4813 652.872 47.7816C653.493 48.4778 653.47 49.5447 652.801 50.2132L650.584 52.4305C649.916 53.0985 648.849 53.1233 648.151 52.5008C647.53 51.8048 647.553 50.7368 648.222 50.0683L650.439 47.851ZM652.801 50.2132C653.147 49.8669 653.601 49.6935 654.055 49.6935C654.477 49.6935 654.899 49.8435 655.235 50.1438C655.855 50.8401 655.831 51.907 655.163 52.5755L652.946 54.7928C652.278 55.4608 651.211 55.4856 650.514 54.8634C649.892 54.1671 649.915 53.0991 650.584 52.4305L652.801 50.2132Z" fill="#0864EE"/>
</g>
<path d="M699.173 35.7603H695.944V34.457H699.173C699.798 34.457 700.305 34.3574 700.692 34.1582C701.079 33.959 701.361 33.6823 701.539 33.3281C701.721 32.974 701.812 32.57 701.812 32.1162C701.812 31.7012 701.721 31.311 701.539 30.9458C701.361 30.5806 701.079 30.2873 700.692 30.0659C700.305 29.839 699.798 29.7256 699.173 29.7256H696.317V40.5H694.715V28.4141H699.173C700.086 28.4141 700.858 28.5718 701.489 28.8872C702.12 29.2026 702.598 29.6398 702.925 30.1987C703.251 30.7521 703.415 31.3857 703.415 32.0996C703.415 32.8743 703.251 33.5356 702.925 34.0835C702.598 34.6313 702.12 35.0492 701.489 35.3369C700.858 35.6191 700.086 35.7603 699.173 35.7603ZM710.404 38.9644V34.3408C710.404 33.9867 710.332 33.6795 710.188 33.4194C710.05 33.1538 709.839 32.9491 709.557 32.8052C709.275 32.6613 708.926 32.5894 708.511 32.5894C708.124 32.5894 707.784 32.6558 707.49 32.7886C707.202 32.9214 706.976 33.0957 706.81 33.3115C706.649 33.5273 706.569 33.7598 706.569 34.0088H705.033C705.033 33.6878 705.116 33.3696 705.282 33.0542C705.448 32.7388 705.686 32.4538 705.996 32.1992C706.312 31.9391 706.688 31.7344 707.125 31.585C707.568 31.43 708.06 31.3525 708.603 31.3525C709.256 31.3525 709.831 31.4632 710.329 31.6846C710.833 31.9059 711.226 32.2407 711.508 32.689C711.796 33.1317 711.939 33.6878 711.939 34.3574V38.541C711.939 38.8398 711.964 39.158 712.014 39.4956C712.069 39.8332 712.15 40.1237 712.255 40.3672V40.5H710.653C710.575 40.3229 710.514 40.0877 710.47 39.7944C710.426 39.4956 710.404 39.2189 710.404 38.9644ZM710.669 35.0547L710.686 36.1338H709.134C708.697 36.1338 708.306 36.1698 707.963 36.2417C707.62 36.3081 707.333 36.4105 707.1 36.5488C706.868 36.6872 706.691 36.8615 706.569 37.0718C706.447 37.2765 706.386 37.5173 706.386 37.7939C706.386 38.0762 706.45 38.3335 706.577 38.5659C706.704 38.7983 706.895 38.9837 707.15 39.1221C707.41 39.2549 707.728 39.3213 708.104 39.3213C708.575 39.3213 708.99 39.2217 709.35 39.0225C709.709 38.8232 709.994 38.5798 710.205 38.292C710.42 38.0042 710.537 37.7248 710.553 37.4536L711.209 38.1924C711.17 38.4248 711.065 38.6821 710.894 38.9644C710.722 39.2466 710.492 39.5177 710.205 39.7778C709.922 40.0324 709.585 40.2454 709.192 40.417C708.805 40.583 708.367 40.666 707.88 40.666C707.272 40.666 706.738 40.547 706.278 40.3091C705.825 40.0711 705.47 39.7529 705.216 39.3545C704.967 38.9505 704.842 38.4995 704.842 38.0015C704.842 37.52 704.936 37.0967 705.125 36.7314C705.313 36.3607 705.584 36.0535 705.938 35.8101C706.292 35.561 706.718 35.3729 707.216 35.2456C707.714 35.1183 708.271 35.0547 708.885 35.0547H710.669ZM720.174 31.5186H721.568V40.3091C721.568 41.1004 721.408 41.7756 721.087 42.3345C720.766 42.8934 720.318 43.3167 719.742 43.6045C719.172 43.8978 718.514 44.0444 717.767 44.0444C717.457 44.0444 717.091 43.9946 716.671 43.895C716.256 43.8009 715.846 43.6377 715.442 43.4053C715.044 43.1784 714.709 42.8713 714.438 42.4839L715.243 41.5708C715.619 42.0246 716.012 42.34 716.422 42.5171C716.837 42.6942 717.246 42.7827 717.65 42.7827C718.137 42.7827 718.558 42.6914 718.912 42.5088C719.266 42.3262 719.54 42.055 719.734 41.6953C719.933 41.3411 720.033 40.904 720.033 40.3838V33.4941L720.174 31.5186ZM713.99 36.1089V35.9346C713.99 35.2484 714.07 34.6258 714.23 34.0669C714.396 33.5024 714.632 33.0182 714.936 32.6143C715.246 32.2103 715.619 31.9004 716.057 31.6846C716.494 31.4632 716.986 31.3525 717.534 31.3525C718.099 31.3525 718.591 31.4521 719.012 31.6514C719.438 31.8451 719.798 32.13 720.091 32.5063C720.39 32.8771 720.625 33.3254 720.796 33.8511C720.968 34.3768 721.087 34.9717 721.153 35.6357V36.3994C721.092 37.0579 720.973 37.6501 720.796 38.1758C720.625 38.7015 720.39 39.1497 720.091 39.5205C719.798 39.8913 719.438 40.1763 719.012 40.3755C718.586 40.5692 718.088 40.666 717.518 40.666C716.981 40.666 716.494 40.5526 716.057 40.3257C715.625 40.0988 715.254 39.7806 714.944 39.3711C714.634 38.9616 714.396 38.4801 714.23 37.9268C714.07 37.3678 713.99 36.7619 713.99 36.1089ZM715.525 35.9346V36.1089C715.525 36.5571 715.57 36.9777 715.658 37.3706C715.752 37.7635 715.893 38.1094 716.082 38.4082C716.275 38.707 716.521 38.9422 716.82 39.1138C717.119 39.2798 717.476 39.3628 717.891 39.3628C718.4 39.3628 718.821 39.2549 719.153 39.0391C719.485 38.8232 719.748 38.5382 719.941 38.1841C720.141 37.8299 720.296 37.4453 720.406 37.0303V35.0298C720.345 34.7254 720.251 34.4321 720.124 34.1499C720.002 33.8621 719.842 33.6076 719.643 33.3862C719.449 33.1593 719.208 32.9795 718.92 32.8467C718.633 32.7139 718.295 32.6475 717.908 32.6475C717.487 32.6475 717.125 32.736 716.82 32.9131C716.521 33.0846 716.275 33.3226 716.082 33.627C715.893 33.9258 715.752 34.2744 715.658 34.6729C715.57 35.0658 715.525 35.4863 715.525 35.9346ZM729.197 38.9644V34.3408C729.197 33.9867 729.125 33.6795 728.981 33.4194C728.843 33.1538 728.632 32.9491 728.35 32.8052C728.068 32.6613 727.719 32.5894 727.304 32.5894C726.917 32.5894 726.576 32.6558 726.283 32.7886C725.995 32.9214 725.769 33.0957 725.603 33.3115C725.442 33.5273 725.362 33.7598 725.362 34.0088H723.826C723.826 33.6878 723.909 33.3696 724.075 33.0542C724.241 32.7388 724.479 32.4538 724.789 32.1992C725.104 31.9391 725.481 31.7344 725.918 31.585C726.361 31.43 726.853 31.3525 727.396 31.3525C728.049 31.3525 728.624 31.4632 729.122 31.6846C729.626 31.9059 730.019 32.2407 730.301 32.689C730.589 33.1317 730.732 33.6878 730.732 34.3574V38.541C730.732 38.8398 730.757 39.158 730.807 39.4956C730.862 39.8332 730.943 40.1237 731.048 40.3672V40.5H729.446C729.368 40.3229 729.307 40.0877 729.263 39.7944C729.219 39.4956 729.197 39.2189 729.197 38.9644ZM729.462 35.0547L729.479 36.1338H727.927C727.49 36.1338 727.099 36.1698 726.756 36.2417C726.413 36.3081 726.125 36.4105 725.893 36.5488C725.661 36.6872 725.484 36.8615 725.362 37.0718C725.24 37.2765 725.179 37.5173 725.179 37.7939C725.179 38.0762 725.243 38.3335 725.37 38.5659C725.497 38.7983 725.688 38.9837 725.943 39.1221C726.203 39.2549 726.521 39.3213 726.897 39.3213C727.368 39.3213 727.783 39.2217 728.143 39.0225C728.502 38.8232 728.787 38.5798 728.998 38.292C729.213 38.0042 729.33 37.7248 729.346 37.4536L730.002 38.1924C729.963 38.4248 729.858 38.6821 729.687 38.9644C729.515 39.2466 729.285 39.5177 728.998 39.7778C728.715 40.0324 728.378 40.2454 727.985 40.417C727.597 40.583 727.16 40.666 726.673 40.666C726.065 40.666 725.531 40.547 725.071 40.3091C724.618 40.0711 724.263 39.7529 724.009 39.3545C723.76 38.9505 723.635 38.4995 723.635 38.0015C723.635 37.52 723.729 37.0967 723.917 36.7314C724.106 36.3607 724.377 36.0535 724.731 35.8101C725.085 35.561 725.511 35.3729 726.009 35.2456C726.507 35.1183 727.063 35.0547 727.678 35.0547H729.462ZM741.092 40.666C740.466 40.666 739.899 40.5609 739.39 40.3506C738.887 40.1348 738.452 39.8332 738.087 39.4458C737.727 39.0584 737.451 38.5991 737.257 38.0679C737.063 37.5366 736.966 36.9556 736.966 36.3247V35.9761C736.966 35.2456 737.074 34.5954 737.29 34.0254C737.506 33.4499 737.799 32.9629 738.17 32.5645C738.541 32.166 738.961 31.8644 739.432 31.6597C739.902 31.4549 740.389 31.3525 740.893 31.3525C741.535 31.3525 742.088 31.4632 742.553 31.6846C743.023 31.9059 743.408 32.2158 743.707 32.6143C744.005 33.0072 744.227 33.472 744.371 34.0088C744.514 34.54 744.586 35.1211 744.586 35.752V36.4409H737.879V35.1875H743.051V35.0713C743.029 34.6729 742.946 34.2855 742.802 33.9092C742.663 33.5329 742.442 33.223 742.138 32.9795C741.833 32.736 741.418 32.6143 740.893 32.6143C740.544 32.6143 740.223 32.689 739.93 32.8384C739.636 32.9823 739.385 33.1981 739.174 33.4858C738.964 33.7736 738.801 34.125 738.685 34.54C738.568 34.9551 738.51 35.4338 738.51 35.9761V36.3247C738.51 36.7508 738.568 37.152 738.685 37.5283C738.806 37.8991 738.981 38.2256 739.208 38.5078C739.44 38.79 739.719 39.0114 740.046 39.1719C740.378 39.3324 740.754 39.4126 741.175 39.4126C741.717 39.4126 742.176 39.3019 742.553 39.0806C742.929 38.8592 743.258 38.5632 743.541 38.1924L744.47 38.9312C744.277 39.2244 744.03 39.5039 743.731 39.7695C743.433 40.0352 743.065 40.251 742.627 40.417C742.196 40.583 741.684 40.666 741.092 40.666ZM747.915 33.436V40.5H746.379V31.5186H747.832L747.915 33.436ZM747.55 35.6689L746.911 35.644C746.916 35.0298 747.007 34.4626 747.185 33.9424C747.362 33.4167 747.611 32.9601 747.932 32.5728C748.253 32.1854 748.634 31.8866 749.077 31.6763C749.525 31.4604 750.021 31.3525 750.563 31.3525C751.006 31.3525 751.404 31.4134 751.758 31.5352C752.112 31.6514 752.414 31.8395 752.663 32.0996C752.918 32.3597 753.111 32.6973 753.244 33.1123C753.377 33.5218 753.443 34.0226 753.443 34.6147V40.5H751.899V34.5981C751.899 34.1278 751.83 33.7515 751.692 33.4692C751.554 33.1815 751.352 32.974 751.086 32.8467C750.82 32.7139 750.494 32.6475 750.106 32.6475C749.725 32.6475 749.376 32.7277 749.061 32.8882C748.751 33.0487 748.482 33.27 748.255 33.5522C748.034 33.8345 747.86 34.1582 747.732 34.5234C747.611 34.8831 747.55 35.265 747.55 35.6689ZM763.72 40.666C763.094 40.666 762.527 40.5609 762.018 40.3506C761.514 40.1348 761.08 39.8332 760.715 39.4458C760.355 39.0584 760.078 38.5991 759.885 38.0679C759.691 37.5366 759.594 36.9556 759.594 36.3247V35.9761C759.594 35.2456 759.702 34.5954 759.918 34.0254C760.134 33.4499 760.427 32.9629 760.798 32.5645C761.169 32.166 761.589 31.8644 762.06 31.6597C762.53 31.4549 763.017 31.3525 763.521 31.3525C764.162 31.3525 764.716 31.4632 765.181 31.6846C765.651 31.9059 766.036 32.2158 766.334 32.6143C766.633 33.0072 766.855 33.472 766.999 34.0088C767.142 34.54 767.214 35.1211 767.214 35.752V36.4409H760.507V35.1875H765.679V35.0713C765.657 34.6729 765.574 34.2855 765.43 33.9092C765.291 33.5329 765.07 33.223 764.766 32.9795C764.461 32.736 764.046 32.6143 763.521 32.6143C763.172 32.6143 762.851 32.689 762.558 32.8384C762.264 32.9823 762.013 33.1981 761.802 33.4858C761.592 33.7736 761.429 34.125 761.312 34.54C761.196 34.9551 761.138 35.4338 761.138 35.9761V36.3247C761.138 36.7508 761.196 37.152 761.312 37.5283C761.434 37.8991 761.609 38.2256 761.835 38.5078C762.068 38.79 762.347 39.0114 762.674 39.1719C763.006 39.3324 763.382 39.4126 763.803 39.4126C764.345 39.4126 764.804 39.3019 765.181 39.0806C765.557 38.8592 765.886 38.5632 766.168 38.1924L767.098 38.9312C766.904 39.2244 766.658 39.5039 766.359 39.7695C766.061 40.0352 765.693 40.251 765.255 40.417C764.824 40.583 764.312 40.666 763.72 40.666ZM771.298 40.5H769.763V30.5723C769.763 29.9248 769.879 29.3797 770.111 28.937C770.349 28.4888 770.69 28.1512 771.132 27.9243C771.575 27.6919 772.101 27.5757 772.709 27.5757C772.887 27.5757 773.064 27.5868 773.241 27.6089C773.423 27.631 773.6 27.6642 773.772 27.7085L773.689 28.9619C773.573 28.9342 773.44 28.9149 773.291 28.9038C773.147 28.8927 773.003 28.8872 772.859 28.8872C772.532 28.8872 772.25 28.9536 772.012 29.0864C771.78 29.2137 771.603 29.4019 771.481 29.6509C771.359 29.8999 771.298 30.207 771.298 30.5723V40.5ZM773.208 31.5186V32.6973H768.343V31.5186H773.208ZM778.445 40.666C777.82 40.666 777.253 40.5609 776.744 40.3506C776.24 40.1348 775.806 39.8332 775.44 39.4458C775.081 39.0584 774.804 38.5991 774.61 38.0679C774.417 37.5366 774.32 36.9556 774.32 36.3247V35.9761C774.32 35.2456 774.428 34.5954 774.644 34.0254C774.859 33.4499 775.153 32.9629 775.523 32.5645C775.894 32.166 776.315 31.8644 776.785 31.6597C777.256 31.4549 777.743 31.3525 778.246 31.3525C778.888 31.3525 779.441 31.4632 779.906 31.6846C780.377 31.9059 780.761 32.2158 781.06 32.6143C781.359 33.0072 781.58 33.472 781.724 34.0088C781.868 34.54 781.94 35.1211 781.94 35.752V36.4409H775.233V35.1875H780.404V35.0713C780.382 34.6729 780.299 34.2855 780.155 33.9092C780.017 33.5329 779.796 33.223 779.491 32.9795C779.187 32.736 778.772 32.6143 778.246 32.6143C777.897 32.6143 777.576 32.689 777.283 32.8384C776.99 32.9823 776.738 33.1981 776.528 33.4858C776.318 33.7736 776.154 34.125 776.038 34.54C775.922 34.9551 775.864 35.4338 775.864 35.9761V36.3247C775.864 36.7508 775.922 37.152 776.038 37.5283C776.16 37.8991 776.334 38.2256 776.561 38.5078C776.793 38.79 777.073 39.0114 777.399 39.1719C777.731 39.3324 778.108 39.4126 778.528 39.4126C779.071 39.4126 779.53 39.3019 779.906 39.0806C780.283 38.8592 780.612 38.5632 780.894 38.1924L781.824 38.9312C781.63 39.2244 781.384 39.5039 781.085 39.7695C780.786 40.0352 780.418 40.251 779.981 40.417C779.549 40.583 779.037 40.666 778.445 40.666ZM787.327 39.4043C787.692 39.4043 788.03 39.3296 788.34 39.1802C788.65 39.0308 788.904 38.826 789.104 38.5659C789.303 38.3003 789.416 37.9987 789.444 37.6611H790.905C790.877 38.1924 790.697 38.6877 790.365 39.147C790.039 39.6007 789.61 39.9688 789.079 40.251C788.547 40.5277 787.964 40.666 787.327 40.666C786.652 40.666 786.063 40.547 785.559 40.3091C785.061 40.0711 784.646 39.7446 784.314 39.3296C783.987 38.9146 783.741 38.4386 783.575 37.9019C783.415 37.3595 783.334 36.7868 783.334 36.1836V35.835C783.334 35.2318 783.415 34.6618 783.575 34.125C783.741 33.5827 783.987 33.104 784.314 32.689C784.646 32.2739 785.061 31.9474 785.559 31.7095C786.063 31.4715 786.652 31.3525 787.327 31.3525C788.03 31.3525 788.644 31.4964 789.17 31.7842C789.696 32.0664 790.108 32.4538 790.407 32.9463C790.711 33.4333 790.877 33.9867 790.905 34.6064H789.444C789.416 34.2357 789.311 33.9009 789.128 33.6021C788.951 33.3032 788.708 33.0653 788.398 32.8882C788.094 32.7056 787.737 32.6143 787.327 32.6143C786.857 32.6143 786.461 32.7083 786.14 32.8965C785.825 33.0791 785.573 33.3281 785.385 33.6436C785.202 33.9535 785.069 34.2993 784.986 34.6812C784.909 35.0575 784.87 35.4421 784.87 35.835V36.1836C784.87 36.5765 784.909 36.9639 784.986 37.3457C785.064 37.7275 785.194 38.0734 785.376 38.3833C785.565 38.6932 785.816 38.9422 786.132 39.1304C786.453 39.313 786.851 39.4043 787.327 39.4043ZM796.392 31.5186V32.6973H791.536V31.5186H796.392ZM793.179 29.3354H794.715V38.2754C794.715 38.5798 794.762 38.8094 794.856 38.9644C794.95 39.1193 795.072 39.2217 795.221 39.2715C795.371 39.3213 795.531 39.3462 795.703 39.3462C795.83 39.3462 795.963 39.3351 796.101 39.313C796.245 39.2853 796.353 39.2632 796.425 39.2466L796.433 40.5C796.311 40.5387 796.151 40.5747 795.952 40.6079C795.758 40.6466 795.523 40.666 795.246 40.666C794.87 40.666 794.524 40.5913 794.208 40.4419C793.893 40.2925 793.641 40.0435 793.453 39.6948C793.271 39.3407 793.179 38.8647 793.179 38.2671V29.3354ZM799.861 31.5186V40.5H798.317V31.5186H799.861ZM798.201 29.1362C798.201 28.8872 798.276 28.6769 798.425 28.5054C798.58 28.3338 798.807 28.248 799.106 28.248C799.399 28.248 799.623 28.3338 799.778 28.5054C799.939 28.6769 800.019 28.8872 800.019 29.1362C800.019 29.3742 799.939 29.5789 799.778 29.7505C799.623 29.9165 799.399 29.9995 799.106 29.9995C798.807 29.9995 798.58 29.9165 798.425 29.7505C798.276 29.5789 798.201 29.3742 798.201 29.1362ZM805.058 39.1138L807.515 31.5186H809.083L805.854 40.5H804.825L805.058 39.1138ZM803.007 31.5186L805.539 39.1553L805.713 40.5H804.684L801.43 31.5186H803.007ZM810.021 36.1089V35.918C810.021 35.2705 810.116 34.6701 810.304 34.1167C810.492 33.5578 810.763 33.0736 811.117 32.6641C811.471 32.249 811.9 31.9281 812.404 31.7012C812.907 31.4688 813.472 31.3525 814.097 31.3525C814.728 31.3525 815.295 31.4688 815.799 31.7012C816.308 31.9281 816.74 32.249 817.094 32.6641C817.453 33.0736 817.727 33.5578 817.916 34.1167C818.104 34.6701 818.198 35.2705 818.198 35.918V36.1089C818.198 36.7563 818.104 37.3568 817.916 37.9102C817.727 38.4635 817.453 38.9478 817.094 39.3628C816.74 39.7723 816.311 40.0933 815.807 40.3257C815.309 40.5526 814.745 40.666 814.114 40.666C813.483 40.666 812.916 40.5526 812.412 40.3257C811.909 40.0933 811.477 39.7723 811.117 39.3628C810.763 38.9478 810.492 38.4635 810.304 37.9102C810.116 37.3568 810.021 36.7563 810.021 36.1089ZM811.557 35.918V36.1089C811.557 36.5571 811.61 36.9805 811.715 37.3789C811.82 37.7718 811.978 38.1204 812.188 38.4248C812.404 38.7292 812.672 38.9699 812.993 39.147C813.314 39.3185 813.688 39.4043 814.114 39.4043C814.534 39.4043 814.902 39.3185 815.218 39.147C815.539 38.9699 815.804 38.7292 816.015 38.4248C816.225 38.1204 816.383 37.7718 816.488 37.3789C816.598 36.9805 816.654 36.5571 816.654 36.1089V35.918C816.654 35.4753 816.598 35.0575 816.488 34.6646C816.383 34.2661 816.222 33.9147 816.006 33.6104C815.796 33.3005 815.53 33.057 815.209 32.8799C814.894 32.7028 814.523 32.6143 814.097 32.6143C813.677 32.6143 813.306 32.7028 812.985 32.8799C812.669 33.057 812.404 33.3005 812.188 33.6104C811.978 33.9147 811.82 34.2661 811.715 34.6646C811.61 35.0575 811.557 35.4753 811.557 35.918Z" fill="black"/>
<path d="M697.369 58.0972L700.092 50.2578H701.418L697.997 59.5H697.051L697.369 58.0972ZM694.823 50.2578L697.521 58.0972L697.857 59.5H696.912L693.497 50.2578H694.823ZM705.056 59.627C704.577 59.627 704.144 59.5465 703.754 59.3857C703.369 59.2207 703.037 58.9901 702.758 58.6938C702.483 58.3976 702.271 58.0464 702.123 57.6401C701.975 57.2339 701.901 56.7896 701.901 56.3071V56.0405C701.901 55.4819 701.983 54.9847 702.148 54.5488C702.313 54.1087 702.538 53.7363 702.821 53.4316C703.105 53.127 703.426 52.8963 703.786 52.7397C704.146 52.5832 704.518 52.5049 704.903 52.5049C705.394 52.5049 705.817 52.5895 706.173 52.7588C706.533 52.9281 706.827 53.165 707.055 53.4697C707.284 53.7702 707.453 54.1257 707.563 54.5361C707.673 54.9424 707.728 55.3867 707.728 55.8691V56.396H702.599V55.4375H706.554V55.3486C706.537 55.0439 706.473 54.7477 706.363 54.46C706.257 54.1722 706.088 53.9352 705.855 53.749C705.623 53.5628 705.305 53.4697 704.903 53.4697C704.637 53.4697 704.391 53.5269 704.167 53.6411C703.943 53.7511 703.75 53.9162 703.589 54.1362C703.429 54.3563 703.304 54.625 703.215 54.9424C703.126 55.2598 703.082 55.6258 703.082 56.0405V56.3071C703.082 56.633 703.126 56.9398 703.215 57.2275C703.308 57.5111 703.441 57.7607 703.615 57.9766C703.792 58.1924 704.006 58.3617 704.256 58.4844C704.51 58.6071 704.798 58.6685 705.119 58.6685C705.534 58.6685 705.885 58.5838 706.173 58.4146C706.461 58.2453 706.712 58.0189 706.928 57.7354L707.639 58.3003C707.491 58.5246 707.303 58.7383 707.074 58.9414C706.846 59.1445 706.564 59.3096 706.23 59.4365C705.9 59.5635 705.508 59.627 705.056 59.627ZM710.273 53.7109V59.5H709.099V52.6318H710.242L710.273 53.7109ZM712.419 52.5938L712.413 53.6855C712.315 53.6644 712.222 53.6517 712.133 53.6475C712.049 53.639 711.951 53.6348 711.841 53.6348C711.57 53.6348 711.331 53.6771 711.124 53.7617C710.917 53.8464 710.741 53.9648 710.597 54.1172C710.453 54.2695 710.339 54.4515 710.254 54.6631C710.174 54.8704 710.121 55.099 710.096 55.3486L709.766 55.5391C709.766 55.1243 709.806 54.735 709.886 54.3711C709.971 54.0072 710.1 53.6855 710.273 53.4062C710.447 53.1227 710.667 52.9027 710.934 52.7461C711.204 52.5853 711.526 52.5049 711.898 52.5049C711.983 52.5049 712.08 52.5155 712.19 52.5366C712.3 52.5535 712.377 52.5726 712.419 52.5938ZM717.897 53.9966V59.5H716.716V52.6318H717.833L717.897 53.9966ZM717.656 55.8057L717.11 55.7866C717.114 55.3169 717.175 54.8831 717.294 54.4854C717.412 54.0833 717.588 53.7342 717.821 53.438C718.054 53.1418 718.343 52.9132 718.69 52.7524C719.037 52.5874 719.439 52.5049 719.896 52.5049C720.218 52.5049 720.514 52.5514 720.785 52.6445C721.056 52.7334 721.291 52.8752 721.49 53.0698C721.689 53.2645 721.843 53.5142 721.953 53.8188C722.063 54.1235 722.118 54.4917 722.118 54.9233V59.5H720.944V54.9805C720.944 54.6208 720.882 54.333 720.76 54.1172C720.641 53.9014 720.472 53.7448 720.252 53.6475C720.032 53.5459 719.774 53.4951 719.478 53.4951C719.131 53.4951 718.841 53.5565 718.608 53.6792C718.375 53.8019 718.189 53.9712 718.049 54.187C717.91 54.4028 717.808 54.6504 717.745 54.9297C717.685 55.2048 717.656 55.4967 717.656 55.8057ZM722.105 55.1582L721.318 55.3994C721.323 55.0228 721.384 54.661 721.502 54.314C721.625 53.967 721.801 53.658 722.029 53.3872C722.262 53.1164 722.548 52.9027 722.886 52.7461C723.225 52.5853 723.612 52.5049 724.048 52.5049C724.416 52.5049 724.742 52.5535 725.025 52.6509C725.313 52.7482 725.554 52.8984 725.749 53.1016C725.948 53.3005 726.098 53.5565 726.2 53.8696C726.301 54.1828 726.352 54.5552 726.352 54.9868V59.5H725.171V54.9741C725.171 54.589 725.11 54.2907 724.987 54.0791C724.869 53.8633 724.7 53.7131 724.479 53.6284C724.264 53.5396 724.006 53.4951 723.705 53.4951C723.447 53.4951 723.218 53.5396 723.02 53.6284C722.821 53.7173 722.653 53.84 722.518 53.9966C722.383 54.1489 722.279 54.3245 722.207 54.5234C722.139 54.7223 722.105 54.9339 722.105 55.1582ZM732.179 58.3257V54.79C732.179 54.5192 732.124 54.2843 732.014 54.0854C731.908 53.8823 731.748 53.7257 731.532 53.6157C731.316 53.5057 731.049 53.4507 730.732 53.4507C730.436 53.4507 730.175 53.5015 729.951 53.603C729.731 53.7046 729.558 53.8379 729.431 54.0029C729.308 54.168 729.247 54.3457 729.247 54.5361H728.072C728.072 54.2907 728.136 54.0474 728.263 53.8062C728.39 53.5649 728.572 53.347 728.809 53.1523C729.05 52.9535 729.338 52.7969 729.672 52.6826C730.01 52.5641 730.387 52.5049 730.802 52.5049C731.301 52.5049 731.741 52.5895 732.122 52.7588C732.507 52.9281 732.808 53.1841 733.023 53.5269C733.243 53.8654 733.354 54.2907 733.354 54.8027V58.002C733.354 58.2305 733.373 58.4738 733.411 58.7319C733.453 58.9901 733.514 59.2122 733.595 59.3984V59.5H732.37C732.31 59.3646 732.264 59.1847 732.23 58.9604C732.196 58.7319 732.179 58.5203 732.179 58.3257ZM732.382 55.3359L732.395 56.1611H731.208C730.874 56.1611 730.575 56.1886 730.313 56.2437C730.051 56.2944 729.831 56.3727 729.653 56.4785C729.475 56.5843 729.34 56.7176 729.247 56.8784C729.153 57.035 729.107 57.2191 729.107 57.4307C729.107 57.6465 729.156 57.8433 729.253 58.021C729.35 58.1987 729.496 58.3405 729.691 58.4463C729.89 58.5479 730.133 58.5986 730.421 58.5986C730.781 58.5986 731.098 58.5225 731.373 58.3701C731.648 58.2178 731.866 58.0316 732.027 57.8115C732.192 57.5915 732.281 57.3778 732.293 57.1704L732.795 57.7354C732.765 57.9131 732.685 58.1099 732.554 58.3257C732.423 58.5415 732.247 58.7489 732.027 58.9478C731.811 59.1424 731.553 59.3053 731.252 59.4365C730.956 59.5635 730.622 59.627 730.25 59.627C729.784 59.627 729.376 59.536 729.024 59.354C728.677 59.172 728.407 58.9287 728.212 58.624C728.021 58.3151 727.926 57.9702 727.926 57.5894C727.926 57.2212 727.998 56.8975 728.142 56.6182C728.286 56.3346 728.493 56.0998 728.764 55.9136C729.035 55.7231 729.361 55.5793 729.742 55.4819C730.123 55.3846 730.548 55.3359 731.018 55.3359H732.382ZM730.281 51.6162L731.513 49.75H732.928L731.227 51.6162H730.281ZM739.2 57.6782C739.2 57.509 739.162 57.3524 739.085 57.2085C739.014 57.0604 738.863 56.9271 738.635 56.8086C738.41 56.6859 738.072 56.5801 737.619 56.4912C737.238 56.4108 736.893 56.3156 736.584 56.2056C736.28 56.0955 736.02 55.9622 735.804 55.8057C735.592 55.6491 735.429 55.465 735.315 55.2534C735.201 55.0418 735.144 54.7943 735.144 54.5107C735.144 54.2399 735.203 53.9839 735.321 53.7427C735.444 53.5015 735.615 53.2878 735.835 53.1016C736.06 52.9154 736.328 52.7694 736.642 52.6636C736.955 52.5578 737.304 52.5049 737.689 52.5049C738.239 52.5049 738.709 52.6022 739.098 52.7969C739.487 52.9915 739.786 53.2518 739.993 53.5776C740.201 53.8993 740.304 54.2568 740.304 54.6504H739.13C739.13 54.46 739.073 54.2759 738.958 54.0981C738.848 53.9162 738.686 53.766 738.47 53.6475C738.258 53.529 737.998 53.4697 737.689 53.4697C737.363 53.4697 737.099 53.5205 736.896 53.6221C736.697 53.7194 736.551 53.8442 736.458 53.9966C736.369 54.1489 736.324 54.3097 736.324 54.479C736.324 54.606 736.345 54.7202 736.388 54.8218C736.434 54.9191 736.515 55.0101 736.629 55.0947C736.743 55.1751 736.904 55.2513 737.111 55.3232C737.319 55.3952 737.583 55.4671 737.905 55.5391C738.468 55.666 738.931 55.8184 739.295 55.9961C739.659 56.1738 739.93 56.3918 740.107 56.6499C740.285 56.908 740.374 57.2212 740.374 57.5894C740.374 57.8898 740.311 58.1649 740.184 58.4146C740.061 58.6642 739.881 58.88 739.644 59.062C739.411 59.2397 739.132 59.3794 738.806 59.481C738.485 59.5783 738.123 59.627 737.721 59.627C737.116 59.627 736.604 59.519 736.185 59.3032C735.766 59.0874 735.448 58.8081 735.232 58.4653C735.017 58.1226 734.909 57.7607 734.909 57.3799H736.089C736.106 57.7015 736.199 57.9575 736.369 58.1479C736.538 58.3341 736.745 58.4674 736.991 58.5479C737.236 58.624 737.479 58.6621 737.721 58.6621C738.042 58.6621 738.311 58.6198 738.527 58.5352C738.747 58.4505 738.914 58.3341 739.028 58.186C739.143 58.0379 739.2 57.8687 739.2 57.6782Z" fill="#3483FA"/>
<defs>
<clipPath id="clip0_1_50">
<rect width="48" height="48" fill="white" transform="translate(20 20.5)"/>
</clipPath>
<clipPath id="clip1_1_50">
<rect width="48" height="48" fill="white" transform="translate(324.656 20.5)"/>
</clipPath>
<clipPath id="clip2_1_50">
<rect width="48" height="48" fill="white" transform="translate(629.312 20.5)"/>
</clipPath>
</defs>
</svg>
