<svg width="68" height="13" viewBox="0 0 68 13" fill="none" xmlns="http://www.w3.org/2000/svg">
<path d="M7.00781 8.31641V9.6875H2.09473V8.31641H7.00781ZM2.62793 0.445312V9.6875H0.882324V0.445312H2.62793ZM6.3667 4.26025V5.59961H2.09473V4.26025H6.3667ZM6.98877 0.445312V1.82275H2.09473V0.445312H6.98877ZM9.7373 4.28564V9.6875H8.06152V2.81934H9.63574L9.7373 4.28564ZM9.4707 6.00586H8.97559C8.97982 5.50651 9.04753 5.05371 9.17871 4.64746C9.3099 4.24121 9.49398 3.89209 9.73096 3.6001C9.97217 3.30811 10.2578 3.08382 10.5879 2.92725C10.918 2.77067 11.2861 2.69238 11.6924 2.69238C12.0225 2.69238 12.3208 2.73893 12.5874 2.83203C12.854 2.92513 13.0825 3.07324 13.2729 3.27637C13.4676 3.47949 13.6157 3.74609 13.7173 4.07617C13.8231 4.40202 13.876 4.80404 13.876 5.28223V9.6875H12.1875V5.26953C12.1875 4.95638 12.141 4.70882 12.0479 4.52686C11.959 4.34489 11.8278 4.21582 11.6543 4.13965C11.485 4.06348 11.2756 4.02539 11.0259 4.02539C10.7677 4.02539 10.5413 4.07829 10.3467 4.18408C10.1562 4.28564 9.99544 4.42741 9.86426 4.60938C9.7373 4.79134 9.63997 5.00081 9.57227 5.23779C9.50456 5.47477 9.4707 5.73079 9.4707 6.00586ZM17.6338 8.41797L19.2334 2.81934H20.9854L18.6304 9.6875H17.564L17.6338 8.41797ZM16.4658 2.81934L18.0845 8.43066L18.1416 9.6875H17.0688L14.7075 2.81934H16.4658ZM23.6768 2.81934V9.6875H21.9946V2.81934H23.6768ZM22.0264 1.94336L23.2705 0.0136719H25.124L23.3911 1.94336H22.0264ZM25.0479 6.32324V6.18994C25.0479 5.68636 25.1198 5.22298 25.2637 4.7998C25.4076 4.3724 25.617 4.00212 25.8921 3.68896C26.1672 3.37581 26.5036 3.13249 26.9014 2.95898C27.2992 2.78125 27.752 2.69238 28.2598 2.69238C28.776 2.69238 29.2331 2.78125 29.6309 2.95898C30.0329 3.13249 30.3714 3.37581 30.6465 3.68896C30.9215 4.00212 31.131 4.3724 31.2749 4.7998C31.4188 5.22298 31.4907 5.68636 31.4907 6.18994V6.32324C31.4907 6.82259 31.4188 7.28597 31.2749 7.71338C31.131 8.13656 30.9215 8.50684 30.6465 8.82422C30.3714 9.13737 30.035 9.3807 29.6372 9.5542C29.2394 9.7277 28.7845 9.81445 28.2725 9.81445C27.7646 9.81445 27.3097 9.7277 26.9077 9.5542C26.5057 9.3807 26.1672 9.13737 25.8921 8.82422C25.617 8.50684 25.4076 8.13656 25.2637 7.71338C25.1198 7.28597 25.0479 6.82259 25.0479 6.32324ZM26.7236 6.18994V6.32324C26.7236 6.6237 26.7533 6.90511 26.8125 7.16748C26.8717 7.42985 26.9627 7.66048 27.0854 7.85938C27.2082 8.05827 27.3669 8.21484 27.5615 8.3291C27.7604 8.43913 27.9974 8.49414 28.2725 8.49414C28.5433 8.49414 28.776 8.43913 28.9707 8.3291C29.1654 8.21484 29.3241 8.05827 29.4468 7.85938C29.5737 7.66048 29.6668 7.42985 29.7261 7.16748C29.7853 6.90511 29.8149 6.6237 29.8149 6.32324V6.18994C29.8149 5.89372 29.7853 5.61654 29.7261 5.3584C29.6668 5.09603 29.5737 4.8654 29.4468 4.6665C29.3241 4.46338 29.1632 4.30469 28.9644 4.19043C28.7697 4.07194 28.5348 4.0127 28.2598 4.0127C27.9889 4.0127 27.7562 4.07194 27.5615 4.19043C27.3669 4.30469 27.2082 4.46338 27.0854 4.6665C26.9627 4.8654 26.8717 5.09603 26.8125 5.3584C26.7533 5.61654 26.7236 5.89372 26.7236 6.18994ZM40.314 2.81934H41.8374V9.47803C41.8374 10.1001 41.702 10.627 41.4312 11.0586C41.1646 11.4945 40.79 11.8245 40.3076 12.0488C39.8252 12.2773 39.2645 12.3916 38.6255 12.3916C38.3504 12.3916 38.0521 12.3535 37.7305 12.2773C37.4131 12.2012 37.1063 12.0806 36.8101 11.9155C36.5181 11.7547 36.2747 11.5452 36.0801 11.2871L36.8354 10.2969C37.064 10.5635 37.3221 10.7645 37.6099 10.8999C37.8976 11.0396 38.2087 11.1094 38.543 11.1094C38.8815 11.1094 39.1693 11.0459 39.4062 10.9189C39.6475 10.7962 39.8315 10.6143 39.9585 10.373C40.0897 10.1361 40.1553 9.84408 40.1553 9.49707V4.38721L40.314 2.81934ZM35.6738 6.33594V6.20264C35.6738 5.6779 35.7373 5.20182 35.8643 4.77441C35.9912 4.34277 36.1732 3.97249 36.4102 3.66357C36.6514 3.35465 36.9412 3.11556 37.2798 2.94629C37.6226 2.77702 38.0076 2.69238 38.4351 2.69238C38.8879 2.69238 39.2687 2.7749 39.5776 2.93994C39.8908 3.10498 40.1489 3.33984 40.3521 3.64453C40.5594 3.94922 40.7202 4.31104 40.8345 4.72998C40.953 5.14469 41.0439 5.60173 41.1074 6.10107V6.46289C41.0482 6.94954 40.953 7.396 40.8218 7.80225C40.6948 8.2085 40.5256 8.56396 40.314 8.86865C40.1024 9.16911 39.84 9.40186 39.5269 9.56689C39.2137 9.73193 38.8455 9.81445 38.4224 9.81445C37.9992 9.81445 37.6183 9.7277 37.2798 9.5542C36.9412 9.3807 36.6514 9.13737 36.4102 8.82422C36.1732 8.51107 35.9912 8.1429 35.8643 7.71973C35.7373 7.29655 35.6738 6.83529 35.6738 6.33594ZM37.3496 6.20264V6.33594C37.3496 6.63216 37.3792 6.90934 37.4385 7.16748C37.4977 7.42562 37.5887 7.65413 37.7114 7.85303C37.8341 8.04769 37.9886 8.20003 38.1748 8.31006C38.361 8.42008 38.5832 8.4751 38.8413 8.4751C39.1883 8.4751 39.4718 8.40316 39.6919 8.25928C39.9162 8.11117 40.0854 7.91016 40.1997 7.65625C40.3182 7.39811 40.3944 7.10824 40.4282 6.78662V5.79004C40.4071 5.53613 40.3605 5.30127 40.2886 5.08545C40.2209 4.86963 40.1257 4.68343 40.0029 4.52686C39.8802 4.37028 39.7236 4.24756 39.5332 4.15869C39.3428 4.06982 39.1164 4.02539 38.854 4.02539C38.6001 4.02539 38.3779 4.08252 38.1875 4.19678C37.9971 4.3068 37.8405 4.46126 37.7178 4.66016C37.5951 4.85905 37.502 5.08968 37.4385 5.35205C37.3792 5.61442 37.3496 5.89795 37.3496 6.20264ZM45.0239 4.22217V9.6875H43.3481V2.81934H44.9351L45.0239 4.22217ZM47.1123 2.7749L47.0869 4.33643C46.9938 4.3195 46.888 4.3068 46.7695 4.29834C46.6553 4.28988 46.5474 4.28564 46.4458 4.28564C46.1877 4.28564 45.9613 4.32161 45.7666 4.39355C45.5719 4.46126 45.409 4.56071 45.2778 4.69189C45.1509 4.82308 45.0535 4.98389 44.9858 5.17432C44.9181 5.36051 44.88 5.5721 44.8716 5.80908L44.5098 5.76465C44.5098 5.32878 44.5542 4.92464 44.6431 4.55225C44.7319 4.17985 44.861 3.854 45.0303 3.57471C45.1995 3.29541 45.4111 3.07959 45.665 2.92725C45.9232 2.77067 46.2194 2.69238 46.5537 2.69238C46.6468 2.69238 46.7463 2.70085 46.8521 2.71777C46.9621 2.73047 47.0488 2.74951 47.1123 2.7749ZM51.6001 8.22754V5.06006C51.6001 4.82731 51.5599 4.6263 51.4795 4.45703C51.3991 4.28776 51.2764 4.15658 51.1113 4.06348C50.9463 3.97038 50.7368 3.92383 50.4829 3.92383C50.2586 3.92383 50.0618 3.96191 49.8926 4.03809C49.7275 4.11426 49.6006 4.22217 49.5117 4.36182C49.4229 4.49723 49.3784 4.65381 49.3784 4.83154H47.6963C47.6963 4.54801 47.764 4.2793 47.8994 4.02539C48.0348 3.76725 48.2274 3.53874 48.4771 3.33984C48.731 3.13672 49.0335 2.97803 49.3848 2.86377C49.7402 2.74951 50.138 2.69238 50.5781 2.69238C51.0986 2.69238 51.562 2.78125 51.9683 2.95898C52.3787 3.13249 52.7004 3.39486 52.9331 3.74609C53.1701 4.09733 53.2886 4.53955 53.2886 5.07275V8.06885C53.2886 8.41162 53.3097 8.70573 53.3521 8.95117C53.3986 9.19238 53.4663 9.40186 53.5552 9.57959V9.6875H51.8477C51.7673 9.514 51.7059 9.29395 51.6636 9.02734C51.6213 8.75651 51.6001 8.48991 51.6001 8.22754ZM51.835 5.50439L51.8477 6.50098H50.7876C50.5252 6.50098 50.2946 6.52848 50.0957 6.5835C49.8968 6.63428 49.7339 6.71045 49.6069 6.81201C49.48 6.90934 49.3848 7.02783 49.3213 7.16748C49.2578 7.3029 49.2261 7.45736 49.2261 7.63086C49.2261 7.80013 49.2642 7.95247 49.3403 8.08789C49.4207 8.22331 49.535 8.33122 49.6831 8.41162C49.8354 8.48779 50.0132 8.52588 50.2163 8.52588C50.5125 8.52588 50.7707 8.46663 50.9907 8.34814C51.2108 8.22542 51.3822 8.07731 51.5049 7.90381C51.6276 7.73031 51.6932 7.56527 51.7017 7.40869L52.1841 8.13232C52.1248 8.30583 52.036 8.48991 51.9175 8.68457C51.799 8.87923 51.6466 9.0612 51.4604 9.23047C51.2743 9.39974 51.05 9.53939 50.7876 9.64941C50.5252 9.75944 50.2205 9.81445 49.8735 9.81445C49.4292 9.81445 49.0314 9.72559 48.6802 9.54785C48.3289 9.37012 48.0518 9.12679 47.8486 8.81787C47.6455 8.50895 47.5439 8.15771 47.5439 7.76416C47.5439 7.40023 47.6117 7.07861 47.7471 6.79932C47.8825 6.52002 48.0835 6.28516 48.3501 6.09473C48.6167 5.90007 48.9468 5.75407 49.3403 5.65674C49.7381 5.55518 50.193 5.50439 50.7051 5.50439H51.835ZM58.0493 2.81934V4.02539H54.1138V2.81934H58.0493ZM55.1675 1.13086H56.8496V7.70703C56.8496 7.91016 56.8771 8.06673 56.9321 8.17676C56.9871 8.28678 57.0697 8.36084 57.1797 8.39893C57.2897 8.43701 57.4209 8.45605 57.5732 8.45605C57.6833 8.45605 57.7848 8.44971 57.8779 8.43701C57.971 8.42432 58.0493 8.41162 58.1128 8.39893L58.1191 9.65576C57.9795 9.70231 57.8208 9.7404 57.6431 9.77002C57.4696 9.79964 57.2728 9.81445 57.0527 9.81445C56.6761 9.81445 56.346 9.75098 56.0625 9.62402C55.779 9.49284 55.5589 9.28337 55.4023 8.99561C55.2458 8.70361 55.1675 8.31852 55.1675 7.84033V1.13086ZM60.9438 2.81934V9.6875H59.2617V2.81934H60.9438ZM59.1475 1.02295C59.1475 0.773275 59.2321 0.565918 59.4014 0.400879C59.5749 0.23584 59.8076 0.15332 60.0996 0.15332C60.3916 0.15332 60.6222 0.23584 60.7915 0.400879C60.965 0.565918 61.0518 0.773275 61.0518 1.02295C61.0518 1.26839 60.965 1.47363 60.7915 1.63867C60.6222 1.80371 60.3916 1.88623 60.0996 1.88623C59.8076 1.88623 59.5749 1.80371 59.4014 1.63867C59.2321 1.47363 59.1475 1.26839 59.1475 1.02295ZM66.3203 7.80859C66.3203 7.66471 66.2822 7.53564 66.2061 7.42139C66.1299 7.30713 65.986 7.20345 65.7744 7.11035C65.5671 7.01302 65.2624 6.92204 64.8604 6.8374C64.5049 6.76123 64.1769 6.66602 63.8765 6.55176C63.576 6.4375 63.3179 6.29997 63.1021 6.13916C62.8862 5.97412 62.717 5.78158 62.5942 5.56152C62.4757 5.33724 62.4165 5.0791 62.4165 4.78711C62.4165 4.50358 62.4779 4.23698 62.6006 3.9873C62.7233 3.7334 62.901 3.51123 63.1338 3.3208C63.3665 3.12614 63.6501 2.9738 63.9844 2.86377C64.3187 2.74951 64.6953 2.69238 65.1143 2.69238C65.6982 2.69238 66.1997 2.7876 66.6187 2.97803C67.0418 3.16846 67.3656 3.43083 67.5898 3.76514C67.8141 4.09521 67.9263 4.46761 67.9263 4.88232H66.2505C66.2505 4.70036 66.2082 4.53532 66.1235 4.38721C66.0431 4.2391 65.9183 4.12061 65.749 4.03174C65.5798 3.93864 65.366 3.89209 65.1079 3.89209C64.8752 3.89209 64.6784 3.93018 64.5176 4.00635C64.361 4.08252 64.2425 4.18197 64.1621 4.30469C64.0817 4.42741 64.0415 4.56283 64.0415 4.71094C64.0415 4.82096 64.0627 4.92041 64.105 5.00928C64.1515 5.09391 64.2256 5.1722 64.3271 5.24414C64.4287 5.31608 64.5662 5.38167 64.7397 5.44092C64.9175 5.50016 65.1354 5.55729 65.3936 5.6123C65.9056 5.71387 66.3521 5.84928 66.7329 6.01855C67.118 6.18359 67.4185 6.40365 67.6343 6.67871C67.8501 6.95378 67.958 7.30501 67.958 7.73242C67.958 8.03711 67.8924 8.31641 67.7612 8.57031C67.63 8.81999 67.4396 9.03792 67.1899 9.22412C66.9403 9.41032 66.6419 9.55632 66.2949 9.66211C65.9479 9.76367 65.5565 9.81445 65.1206 9.81445C64.4901 9.81445 63.9569 9.70231 63.521 9.47803C63.0851 9.24951 62.755 8.96175 62.5308 8.61475C62.3065 8.26351 62.1943 7.89958 62.1943 7.52295H63.8003C63.813 7.78955 63.8849 8.00326 64.0161 8.16406C64.1473 8.32487 64.3123 8.44124 64.5112 8.51318C64.7144 8.58089 64.9281 8.61475 65.1523 8.61475C65.4062 8.61475 65.62 8.58089 65.7935 8.51318C65.967 8.44124 66.0981 8.34603 66.187 8.22754C66.2759 8.10482 66.3203 7.96517 66.3203 7.80859Z" fill="#00A650"/>
</svg>
