<svg width="96" height="25" viewBox="0 0 96 25" fill="none" xmlns="http://www.w3.org/2000/svg">
<path d="M7.89844 0.859375V4.43359H6.14062V0.859375H7.89844ZM7.6875 19.9961V23.125H5.94141V19.9961H7.6875ZM10.0312 16.293C10.0312 15.8242 9.92578 15.4023 9.71484 15.0273C9.50391 14.6523 9.15625 14.3086 8.67188 13.9961C8.1875 13.6836 7.53906 13.3945 6.72656 13.1289C5.74219 12.8242 4.89062 12.4531 4.17188 12.0156C3.46094 11.5781 2.91016 11.0352 2.51953 10.3867C2.13672 9.73828 1.94531 8.95312 1.94531 8.03125C1.94531 7.07031 2.15234 6.24219 2.56641 5.54688C2.98047 4.85156 3.56641 4.31641 4.32422 3.94141C5.08203 3.56641 5.97266 3.37891 6.99609 3.37891C7.79297 3.37891 8.50391 3.5 9.12891 3.74219C9.75391 3.97656 10.2812 4.32812 10.7109 4.79688C11.1484 5.26562 11.4805 5.83984 11.707 6.51953C11.9414 7.19922 12.0586 7.98438 12.0586 8.875H9.90234C9.90234 8.35156 9.83984 7.87109 9.71484 7.43359C9.58984 6.99609 9.40234 6.61719 9.15234 6.29688C8.90234 5.96875 8.59766 5.71875 8.23828 5.54688C7.87891 5.36719 7.46484 5.27734 6.99609 5.27734C6.33984 5.27734 5.79688 5.39063 5.36719 5.61719C4.94531 5.84375 4.63281 6.16406 4.42969 6.57812C4.22656 6.98438 4.125 7.45703 4.125 7.99609C4.125 8.49609 4.22656 8.93359 4.42969 9.30859C4.63281 9.68359 4.97656 10.0234 5.46094 10.3281C5.95312 10.625 6.62891 10.918 7.48828 11.207C8.49609 11.5273 9.35156 11.9062 10.0547 12.3438C10.7578 12.7734 11.293 13.3047 11.6602 13.9375C12.0273 14.5625 12.2109 15.3398 12.2109 16.2695C12.2109 17.2773 11.9844 18.1289 11.5312 18.8242C11.0781 19.5117 10.4414 20.0352 9.62109 20.3945C8.80078 20.7539 7.83984 20.9336 6.73828 20.9336C6.07422 20.9336 5.41797 20.8438 4.76953 20.6641C4.12109 20.4844 3.53516 20.1914 3.01172 19.7852C2.48828 19.3711 2.07031 18.8281 1.75781 18.1562C1.44531 17.4766 1.28906 16.6445 1.28906 15.6602H3.46875C3.46875 16.3242 3.5625 16.875 3.75 17.3125C3.94531 17.7422 4.20312 18.0859 4.52344 18.3438C4.84375 18.5938 5.19531 18.7734 5.57812 18.8828C5.96875 18.9844 6.35547 19.0352 6.73828 19.0352C7.44141 19.0352 8.03516 18.9258 8.51953 18.707C9.01172 18.4805 9.38672 18.1602 9.64453 17.7461C9.90234 17.332 10.0312 16.8477 10.0312 16.293Z" fill="#333333"/>
<path d="M28.7695 3.60156H28.957V5.44141H28.7695C27.6211 5.44141 26.6602 5.62891 25.8867 6.00391C25.1133 6.37109 24.5 6.86719 24.0469 7.49219C23.5938 8.10938 23.2656 8.80469 23.0625 9.57812C22.8672 10.3516 22.7695 11.1367 22.7695 11.9336V14.4414C22.7695 15.1992 22.8594 15.8711 23.0391 16.457C23.2188 17.0352 23.4648 17.5234 23.7773 17.9219C24.0898 18.3203 24.4414 18.6211 24.832 18.8242C25.2305 19.0273 25.6445 19.1289 26.0742 19.1289C26.5742 19.1289 27.0195 19.0352 27.4102 18.8477C27.8008 18.6523 28.1289 18.3828 28.3945 18.0391C28.668 17.6875 28.875 17.2734 29.0156 16.7969C29.1562 16.3203 29.2266 15.7969 29.2266 15.2266C29.2266 14.7188 29.1641 14.2305 29.0391 13.7617C28.9141 13.2852 28.7227 12.8633 28.4648 12.4961C28.207 12.1211 27.8828 11.8281 27.4922 11.6172C27.1094 11.3984 26.6523 11.2891 26.1211 11.2891C25.5195 11.2891 24.957 11.4375 24.4336 11.7344C23.918 12.0234 23.4922 12.4062 23.1562 12.8828C22.8281 13.3516 22.6406 13.8633 22.5938 14.418L21.4453 14.4062C21.5547 13.5312 21.7578 12.7852 22.0547 12.168C22.3594 11.543 22.7344 11.0352 23.1797 10.6445C23.6328 10.2461 24.1367 9.95703 24.6914 9.77734C25.2539 9.58984 25.8477 9.49609 26.4727 9.49609C27.3242 9.49609 28.0586 9.65625 28.6758 9.97656C29.293 10.2969 29.8008 10.7266 30.1992 11.2656C30.5977 11.7969 30.8906 12.3984 31.0781 13.0703C31.2734 13.7344 31.3711 14.418 31.3711 15.1211C31.3711 15.9258 31.2578 16.6797 31.0312 17.3828C30.8047 18.0859 30.4648 18.7031 30.0117 19.2344C29.5664 19.7656 29.0156 20.1797 28.3594 20.4766C27.7031 20.7734 26.9414 20.9219 26.0742 20.9219C25.1523 20.9219 24.3477 20.7344 23.6602 20.3594C22.9727 19.9766 22.4023 19.4688 21.9492 18.8359C21.4961 18.2031 21.1562 17.5 20.9297 16.7266C20.7031 15.9531 20.5898 15.168 20.5898 14.3711V13.3516C20.5898 12.1484 20.7109 10.9688 20.9531 9.8125C21.1953 8.65625 21.6133 7.60938 22.207 6.67188C22.8086 5.73438 23.6406 4.98828 24.7031 4.43359C25.7656 3.87891 27.1211 3.60156 28.7695 3.60156ZM36.1055 18.8711H36.3281C37.5781 18.8711 38.5938 18.6953 39.375 18.3438C40.1562 17.9922 40.7578 17.5195 41.1797 16.9258C41.6016 16.332 41.8906 15.6641 42.0469 14.9219C42.2031 14.1719 42.2812 13.4023 42.2812 12.6133V10C42.2812 9.22656 42.1914 8.53906 42.0117 7.9375C41.8398 7.33594 41.5977 6.83203 41.2852 6.42578C40.9805 6.01953 40.6328 5.71094 40.2422 5.5C39.8516 5.28906 39.4375 5.18359 39 5.18359C38.5 5.18359 38.0508 5.28516 37.6523 5.48828C37.2617 5.68359 36.9297 5.96094 36.6562 6.32031C36.3906 6.67969 36.1875 7.10156 36.0469 7.58594C35.9062 8.07031 35.8359 8.59766 35.8359 9.16797C35.8359 9.67578 35.8984 10.168 36.0234 10.6445C36.1484 11.1211 36.3398 11.5508 36.5977 11.9336C36.8555 12.3164 37.1758 12.6211 37.5586 12.8477C37.9492 13.0664 38.4062 13.1758 38.9297 13.1758C39.4141 13.1758 39.8672 13.082 40.2891 12.8945C40.7188 12.6992 41.0977 12.4375 41.4258 12.1094C41.7617 11.7734 42.0273 11.3945 42.2227 10.9727C42.4258 10.5508 42.543 10.1094 42.5742 9.64844H43.6055C43.6055 10.2969 43.4766 10.9375 43.2188 11.5703C42.9688 12.1953 42.6172 12.7656 42.1641 13.2812C41.7109 13.7969 41.1797 14.2109 40.5703 14.5234C39.9609 14.8281 39.2969 14.9805 38.5781 14.9805C37.7344 14.9805 37.0039 14.8164 36.3867 14.4883C35.7695 14.1602 35.2617 13.7227 34.8633 13.1758C34.4727 12.6289 34.1797 12.0195 33.9844 11.3477C33.7969 10.668 33.7031 9.98047 33.7031 9.28516C33.7031 8.47266 33.8164 7.71094 34.043 7C34.2695 6.28906 34.6055 5.66406 35.0508 5.125C35.4961 4.57812 36.0469 4.15234 36.7031 3.84766C37.3672 3.54297 38.1328 3.39062 39 3.39062C39.9766 3.39062 40.8086 3.58594 41.4961 3.97656C42.1836 4.36719 42.7422 4.89062 43.1719 5.54688C43.6094 6.20312 43.9297 6.94141 44.1328 7.76172C44.3359 8.58203 44.4375 9.42578 44.4375 10.293V11.0781C44.4375 11.9609 44.3789 12.8594 44.2617 13.7734C44.1523 14.6797 43.9375 15.5469 43.6172 16.375C43.3047 17.2031 42.8477 17.9453 42.2461 18.6016C41.6445 19.25 40.8594 19.7656 39.8906 20.1484C38.9297 20.5234 37.7422 20.7109 36.3281 20.7109H36.1055V18.8711ZM47.7188 19.5391C47.7188 19.1719 47.832 18.8633 48.0586 18.6133C48.293 18.3555 48.6289 18.2266 49.0664 18.2266C49.5039 18.2266 49.8359 18.3555 50.0625 18.6133C50.2969 18.8633 50.4141 19.1719 50.4141 19.5391C50.4141 19.8984 50.2969 20.2031 50.0625 20.4531C49.8359 20.7031 49.5039 20.8281 49.0664 20.8281C48.6289 20.8281 48.293 20.7031 48.0586 20.4531C47.832 20.2031 47.7188 19.8984 47.7188 19.5391ZM55.9336 18.8711H56.1562C57.4062 18.8711 58.4219 18.6953 59.2031 18.3438C59.9844 17.9922 60.5859 17.5195 61.0078 16.9258C61.4297 16.332 61.7188 15.6641 61.875 14.9219C62.0312 14.1719 62.1094 13.4023 62.1094 12.6133V10C62.1094 9.22656 62.0195 8.53906 61.8398 7.9375C61.668 7.33594 61.4258 6.83203 61.1133 6.42578C60.8086 6.01953 60.4609 5.71094 60.0703 5.5C59.6797 5.28906 59.2656 5.18359 58.8281 5.18359C58.3281 5.18359 57.8789 5.28516 57.4805 5.48828C57.0898 5.68359 56.7578 5.96094 56.4844 6.32031C56.2188 6.67969 56.0156 7.10156 55.875 7.58594C55.7344 8.07031 55.6641 8.59766 55.6641 9.16797C55.6641 9.67578 55.7266 10.168 55.8516 10.6445C55.9766 11.1211 56.168 11.5508 56.4258 11.9336C56.6836 12.3164 57.0039 12.6211 57.3867 12.8477C57.7773 13.0664 58.2344 13.1758 58.7578 13.1758C59.2422 13.1758 59.6953 13.082 60.1172 12.8945C60.5469 12.6992 60.9258 12.4375 61.2539 12.1094C61.5898 11.7734 61.8555 11.3945 62.0508 10.9727C62.2539 10.5508 62.3711 10.1094 62.4023 9.64844H63.4336C63.4336 10.2969 63.3047 10.9375 63.0469 11.5703C62.7969 12.1953 62.4453 12.7656 61.9922 13.2812C61.5391 13.7969 61.0078 14.2109 60.3984 14.5234C59.7891 14.8281 59.125 14.9805 58.4062 14.9805C57.5625 14.9805 56.832 14.8164 56.2148 14.4883C55.5977 14.1602 55.0898 13.7227 54.6914 13.1758C54.3008 12.6289 54.0078 12.0195 53.8125 11.3477C53.625 10.668 53.5312 9.98047 53.5312 9.28516C53.5312 8.47266 53.6445 7.71094 53.8711 7C54.0977 6.28906 54.4336 5.66406 54.8789 5.125C55.3242 4.57812 55.875 4.15234 56.5312 3.84766C57.1953 3.54297 57.9609 3.39062 58.8281 3.39062C59.8047 3.39062 60.6367 3.58594 61.3242 3.97656C62.0117 4.36719 62.5703 4.89062 63 5.54688C63.4375 6.20312 63.7578 6.94141 63.9609 7.76172C64.1641 8.58203 64.2656 9.42578 64.2656 10.293V11.0781C64.2656 11.9609 64.207 12.8594 64.0898 13.7734C63.9805 14.6797 63.7656 15.5469 63.4453 16.375C63.1328 17.2031 62.6758 17.9453 62.0742 18.6016C61.4727 19.25 60.6875 19.7656 59.7188 20.1484C58.7578 20.5234 57.5703 20.7109 56.1562 20.7109H55.9336V18.8711ZM69.4336 18.8711H69.6562C70.9062 18.8711 71.9219 18.6953 72.7031 18.3438C73.4844 17.9922 74.0859 17.5195 74.5078 16.9258C74.9297 16.332 75.2188 15.6641 75.375 14.9219C75.5312 14.1719 75.6094 13.4023 75.6094 12.6133V10C75.6094 9.22656 75.5195 8.53906 75.3398 7.9375C75.168 7.33594 74.9258 6.83203 74.6133 6.42578C74.3086 6.01953 73.9609 5.71094 73.5703 5.5C73.1797 5.28906 72.7656 5.18359 72.3281 5.18359C71.8281 5.18359 71.3789 5.28516 70.9805 5.48828C70.5898 5.68359 70.2578 5.96094 69.9844 6.32031C69.7188 6.67969 69.5156 7.10156 69.375 7.58594C69.2344 8.07031 69.1641 8.59766 69.1641 9.16797C69.1641 9.67578 69.2266 10.168 69.3516 10.6445C69.4766 11.1211 69.668 11.5508 69.9258 11.9336C70.1836 12.3164 70.5039 12.6211 70.8867 12.8477C71.2773 13.0664 71.7344 13.1758 72.2578 13.1758C72.7422 13.1758 73.1953 13.082 73.6172 12.8945C74.0469 12.6992 74.4258 12.4375 74.7539 12.1094C75.0898 11.7734 75.3555 11.3945 75.5508 10.9727C75.7539 10.5508 75.8711 10.1094 75.9023 9.64844H76.9336C76.9336 10.2969 76.8047 10.9375 76.5469 11.5703C76.2969 12.1953 75.9453 12.7656 75.4922 13.2812C75.0391 13.7969 74.5078 14.2109 73.8984 14.5234C73.2891 14.8281 72.625 14.9805 71.9062 14.9805C71.0625 14.9805 70.332 14.8164 69.7148 14.4883C69.0977 14.1602 68.5898 13.7227 68.1914 13.1758C67.8008 12.6289 67.5078 12.0195 67.3125 11.3477C67.125 10.668 67.0312 9.98047 67.0312 9.28516C67.0312 8.47266 67.1445 7.71094 67.3711 7C67.5977 6.28906 67.9336 5.66406 68.3789 5.125C68.8242 4.57812 69.375 4.15234 70.0312 3.84766C70.6953 3.54297 71.4609 3.39062 72.3281 3.39062C73.3047 3.39062 74.1367 3.58594 74.8242 3.97656C75.5117 4.36719 76.0703 4.89062 76.5 5.54688C76.9375 6.20312 77.2578 6.94141 77.4609 7.76172C77.6641 8.58203 77.7656 9.42578 77.7656 10.293V11.0781C77.7656 11.9609 77.707 12.8594 77.5898 13.7734C77.4805 14.6797 77.2656 15.5469 76.9453 16.375C76.6328 17.2031 76.1758 17.9453 75.5742 18.6016C74.9727 19.25 74.1875 19.7656 73.2188 20.1484C72.2578 20.5234 71.0703 20.7109 69.6562 20.7109H69.4336V18.8711ZM91.4883 10.7969V13.3984C91.4883 14.7969 91.3633 15.9766 91.1133 16.9375C90.8633 17.8984 90.5039 18.6719 90.0352 19.2578C89.5664 19.8438 89 20.2695 88.3359 20.5352C87.6797 20.793 86.9375 20.9219 86.1094 20.9219C85.4531 20.9219 84.8477 20.8398 84.293 20.6758C83.7383 20.5117 83.2383 20.25 82.793 19.8906C82.3555 19.5234 81.9805 19.0469 81.668 18.4609C81.3555 17.875 81.1172 17.1641 80.9531 16.3281C80.7891 15.4922 80.707 14.5156 80.707 13.3984V10.7969C80.707 9.39844 80.832 8.22656 81.082 7.28125C81.3398 6.33594 81.7031 5.57813 82.1719 5.00781C82.6406 4.42969 83.2031 4.01562 83.8594 3.76562C84.5234 3.51563 85.2656 3.39062 86.0859 3.39062C86.75 3.39062 87.3594 3.47266 87.9141 3.63672C88.4766 3.79297 88.9766 4.04688 89.4141 4.39844C89.8516 4.74219 90.2227 5.20313 90.5273 5.78125C90.8398 6.35156 91.0781 7.05078 91.2422 7.87891C91.4062 8.70703 91.4883 9.67969 91.4883 10.7969ZM89.3086 13.75V10.4336C89.3086 9.66797 89.2617 8.99609 89.168 8.41797C89.082 7.83203 88.9531 7.33203 88.7812 6.91797C88.6094 6.50391 88.3906 6.16797 88.125 5.91016C87.8672 5.65234 87.5664 5.46484 87.2227 5.34766C86.8867 5.22266 86.5078 5.16016 86.0859 5.16016C85.5703 5.16016 85.1133 5.25781 84.7148 5.45312C84.3164 5.64062 83.9805 5.94141 83.707 6.35547C83.4414 6.76953 83.2383 7.3125 83.0977 7.98438C82.957 8.65625 82.8867 9.47266 82.8867 10.4336V13.75C82.8867 14.5156 82.9297 15.1914 83.0156 15.7773C83.1094 16.3633 83.2461 16.8711 83.4258 17.3008C83.6055 17.7227 83.8242 18.0703 84.082 18.3438C84.3398 18.6172 84.6367 18.8203 84.9727 18.9531C85.3164 19.0781 85.6953 19.1406 86.1094 19.1406C86.6406 19.1406 87.1055 19.0391 87.5039 18.8359C87.9023 18.6328 88.2344 18.3164 88.5 17.8867C88.7734 17.4492 88.9766 16.8906 89.1094 16.2109C89.2422 15.5234 89.3086 14.7031 89.3086 13.75Z" fill="#333333"/>
</svg>
