<svg width="170" height="25" viewBox="0 0 170 25" fill="none" xmlns="http://www.w3.org/2000/svg">
<path d="M7.89844 0.859375V4.43359H6.14062V0.859375H7.89844ZM7.6875 19.9961V23.125H5.94141V19.9961H7.6875ZM10.0312 16.293C10.0312 15.8242 9.92578 15.4023 9.71484 15.0273C9.50391 14.6523 9.15625 14.3086 8.67188 13.9961C8.1875 13.6836 7.53906 13.3945 6.72656 13.1289C5.74219 12.8242 4.89062 12.4531 4.17188 12.0156C3.46094 11.5781 2.91016 11.0352 2.51953 10.3867C2.13672 9.73828 1.94531 8.95312 1.94531 8.03125C1.94531 7.07031 2.15234 6.24219 2.56641 5.54688C2.98047 4.85156 3.56641 4.31641 4.32422 3.94141C5.08203 3.56641 5.97266 3.37891 6.99609 3.37891C7.79297 3.37891 8.50391 3.5 9.12891 3.74219C9.75391 3.97656 10.2812 4.32812 10.7109 4.79688C11.1484 5.26562 11.4805 5.83984 11.707 6.51953C11.9414 7.19922 12.0586 7.98438 12.0586 8.875H9.90234C9.90234 8.35156 9.83984 7.87109 9.71484 7.43359C9.58984 6.99609 9.40234 6.61719 9.15234 6.29688C8.90234 5.96875 8.59766 5.71875 8.23828 5.54688C7.87891 5.36719 7.46484 5.27734 6.99609 5.27734C6.33984 5.27734 5.79688 5.39063 5.36719 5.61719C4.94531 5.84375 4.63281 6.16406 4.42969 6.57812C4.22656 6.98438 4.125 7.45703 4.125 7.99609C4.125 8.49609 4.22656 8.93359 4.42969 9.30859C4.63281 9.68359 4.97656 10.0234 5.46094 10.3281C5.95312 10.625 6.62891 10.918 7.48828 11.207C8.49609 11.5273 9.35156 11.9062 10.0547 12.3438C10.7578 12.7734 11.293 13.3047 11.6602 13.9375C12.0273 14.5625 12.2109 15.3398 12.2109 16.2695C12.2109 17.2773 11.9844 18.1289 11.5312 18.8242C11.0781 19.5117 10.4414 20.0352 9.62109 20.3945C8.80078 20.7539 7.83984 20.9336 6.73828 20.9336C6.07422 20.9336 5.41797 20.8438 4.76953 20.6641C4.12109 20.4844 3.53516 20.1914 3.01172 19.7852C2.48828 19.3711 2.07031 18.8281 1.75781 18.1562C1.44531 17.4766 1.28906 16.6445 1.28906 15.6602H3.46875C3.46875 16.3242 3.5625 16.875 3.75 17.3125C3.94531 17.7422 4.20312 18.0859 4.52344 18.3438C4.84375 18.5938 5.19531 18.7734 5.57812 18.8828C5.96875 18.9844 6.35547 19.0352 6.73828 19.0352C7.44141 19.0352 8.03516 18.9258 8.51953 18.707C9.01172 18.4805 9.38672 18.1602 9.64453 17.7461C9.90234 17.332 10.0312 16.8477 10.0312 16.293Z" fill="#333333"/>
<path d="M27.2183 4.24609V20.6875H25.1406V6.84033L20.9517 8.36768V6.49219L26.8926 4.24609H27.2183ZM44.3784 15.1846V16.8916H32.564V15.6675L39.8862 4.33594H41.582L39.7627 7.61523L34.9224 15.1846H44.3784ZM42.0986 4.33594V20.6875H40.021V4.33594H42.0986ZM48.3315 18.9468H48.5449C49.7428 18.9468 50.7161 18.7783 51.4648 18.4414C52.2135 18.1045 52.79 17.6515 53.1943 17.0825C53.5986 16.5135 53.8757 15.8734 54.0254 15.1621C54.1751 14.4434 54.25 13.7059 54.25 12.9497V10.4453C54.25 9.7041 54.1639 9.04525 53.9917 8.46875C53.827 7.89225 53.5949 7.40934 53.2954 7.02002C53.0034 6.6307 52.6702 6.33496 52.2959 6.13281C51.9215 5.93066 51.5247 5.82959 51.1055 5.82959C50.6263 5.82959 50.1958 5.92692 49.814 6.12158C49.4396 6.30876 49.1214 6.57454 48.8594 6.91895C48.6048 7.26335 48.4102 7.66764 48.2754 8.13184C48.1406 8.59603 48.0732 9.1014 48.0732 9.64795C48.0732 10.1346 48.1331 10.6063 48.2529 11.063C48.3727 11.5197 48.5562 11.9315 48.8032 12.2983C49.0503 12.6652 49.3573 12.9572 49.7241 13.1743C50.0985 13.384 50.5365 13.4888 51.0381 13.4888C51.5023 13.4888 51.9365 13.3989 52.3408 13.2192C52.7526 13.0321 53.1157 12.7812 53.4302 12.4668C53.7521 12.1449 54.0067 11.7817 54.1938 11.3774C54.3885 10.9731 54.5008 10.5501 54.5308 10.1084H55.519C55.519 10.7298 55.3955 11.3438 55.1484 11.9502C54.9089 12.5492 54.5719 13.0957 54.1377 13.5898C53.7035 14.084 53.1943 14.4808 52.6104 14.7803C52.0264 15.0723 51.39 15.2183 50.7012 15.2183C49.8926 15.2183 49.1925 15.061 48.6011 14.7466C48.0096 14.4321 47.5229 14.0129 47.1411 13.4888C46.7668 12.9647 46.486 12.3807 46.2988 11.7368C46.1191 11.0854 46.0293 10.4266 46.0293 9.76025C46.0293 8.98161 46.1379 8.25163 46.355 7.57031C46.5721 6.889 46.894 6.29004 47.3208 5.77344C47.7476 5.24935 48.2754 4.84131 48.9043 4.54932C49.5407 4.25732 50.2744 4.11133 51.1055 4.11133C52.0413 4.11133 52.8387 4.2985 53.4976 4.67285C54.1564 5.0472 54.6917 5.54883 55.1035 6.17773C55.5228 6.80664 55.8298 7.51416 56.0244 8.30029C56.2191 9.08643 56.3164 9.89502 56.3164 10.7261V11.4785C56.3164 12.3245 56.2603 13.1855 56.1479 14.0615C56.0431 14.93 55.8372 15.7611 55.5303 16.5547C55.2308 17.3483 54.7928 18.0596 54.2163 18.6885C53.6398 19.3099 52.8874 19.804 51.959 20.1709C51.0381 20.5303 49.9001 20.71 48.5449 20.71H48.3315V18.9468ZM59.4609 19.5869C59.4609 19.235 59.5695 18.9393 59.7866 18.6997C60.0112 18.4526 60.3332 18.3291 60.7524 18.3291C61.1717 18.3291 61.4899 18.4526 61.707 18.6997C61.9316 18.9393 62.0439 19.235 62.0439 19.5869C62.0439 19.9313 61.9316 20.2233 61.707 20.4629C61.4899 20.7025 61.1717 20.8223 60.7524 20.8223C60.3332 20.8223 60.0112 20.7025 59.7866 20.4629C59.5695 20.2233 59.4609 19.9313 59.4609 19.5869ZM67.3335 18.9468H67.5469C68.7448 18.9468 69.7181 18.7783 70.4668 18.4414C71.2155 18.1045 71.792 17.6515 72.1963 17.0825C72.6006 16.5135 72.8776 15.8734 73.0273 15.1621C73.1771 14.4434 73.252 13.7059 73.252 12.9497V10.4453C73.252 9.7041 73.1659 9.04525 72.9937 8.46875C72.8289 7.89225 72.5968 7.40934 72.2974 7.02002C72.0054 6.6307 71.6722 6.33496 71.2979 6.13281C70.9235 5.93066 70.5267 5.82959 70.1074 5.82959C69.6283 5.82959 69.1978 5.92692 68.8159 6.12158C68.4416 6.30876 68.1234 6.57454 67.8613 6.91895C67.6068 7.26335 67.4121 7.66764 67.2773 8.13184C67.1426 8.59603 67.0752 9.1014 67.0752 9.64795C67.0752 10.1346 67.1351 10.6063 67.2549 11.063C67.3747 11.5197 67.5581 11.9315 67.8052 12.2983C68.0522 12.6652 68.3592 12.9572 68.7261 13.1743C69.1004 13.384 69.5384 13.4888 70.04 13.4888C70.5042 13.4888 70.9385 13.3989 71.3428 13.2192C71.7546 13.0321 72.1177 12.7812 72.4321 12.4668C72.7541 12.1449 73.0086 11.7817 73.1958 11.3774C73.3905 10.9731 73.5028 10.5501 73.5327 10.1084H74.521C74.521 10.7298 74.3975 11.3438 74.1504 11.9502C73.9108 12.5492 73.5739 13.0957 73.1396 13.5898C72.7054 14.084 72.1963 14.4808 71.6123 14.7803C71.0283 15.0723 70.3919 15.2183 69.7031 15.2183C68.8945 15.2183 68.1945 15.061 67.603 14.7466C67.0116 14.4321 66.5249 14.0129 66.1431 13.4888C65.7687 12.9647 65.488 12.3807 65.3008 11.7368C65.1211 11.0854 65.0312 10.4266 65.0312 9.76025C65.0312 8.98161 65.1398 8.25163 65.3569 7.57031C65.5741 6.889 65.896 6.29004 66.3228 5.77344C66.7495 5.24935 67.2773 4.84131 67.9062 4.54932C68.5426 4.25732 69.2764 4.11133 70.1074 4.11133C71.0433 4.11133 71.8407 4.2985 72.4995 4.67285C73.1584 5.0472 73.6937 5.54883 74.1055 6.17773C74.5247 6.80664 74.8317 7.51416 75.0264 8.30029C75.221 9.08643 75.3184 9.89502 75.3184 10.7261V11.4785C75.3184 12.3245 75.2622 13.1855 75.1499 14.0615C75.0451 14.93 74.8392 15.7611 74.5322 16.5547C74.2327 17.3483 73.7948 18.0596 73.2183 18.6885C72.6418 19.3099 71.8893 19.804 70.9609 20.1709C70.04 20.5303 68.902 20.71 67.5469 20.71H67.3335V18.9468ZM88.4692 11.209V13.7021C88.4692 15.0423 88.3494 16.1729 88.1099 17.0938C87.8703 18.0146 87.5259 18.7559 87.0767 19.3174C86.6274 19.8789 86.0846 20.2869 85.4482 20.5415C84.8193 20.7886 84.1081 20.9121 83.3145 20.9121C82.6855 20.9121 82.1053 20.8335 81.5737 20.6763C81.0422 20.519 80.563 20.2682 80.1362 19.9238C79.717 19.5719 79.3576 19.1152 79.0581 18.5537C78.7586 17.9922 78.5303 17.3109 78.373 16.5098C78.2158 15.7087 78.1372 14.7728 78.1372 13.7021V11.209C78.1372 9.86882 78.257 8.74577 78.4966 7.83984C78.7437 6.93392 79.0918 6.20768 79.541 5.66113C79.9902 5.1071 80.5293 4.71029 81.1582 4.4707C81.7946 4.23112 82.5059 4.11133 83.292 4.11133C83.9284 4.11133 84.5124 4.18994 85.0439 4.34717C85.583 4.49691 86.0622 4.74023 86.4814 5.07715C86.9007 5.40658 87.2563 5.84831 87.5483 6.40234C87.8478 6.94889 88.0762 7.61898 88.2334 8.4126C88.3906 9.20622 88.4692 10.1383 88.4692 11.209ZM86.3804 14.0391V10.8608C86.3804 10.1271 86.3354 9.48324 86.2456 8.9292C86.1632 8.36768 86.0397 7.88851 85.875 7.4917C85.7103 7.09489 85.5007 6.77295 85.2461 6.52588C84.999 6.27881 84.7108 6.09912 84.3813 5.98682C84.0594 5.86702 83.6963 5.80713 83.292 5.80713C82.7979 5.80713 82.3599 5.90072 81.978 6.08789C81.5962 6.26758 81.2743 6.55583 81.0122 6.95264C80.7576 7.34945 80.563 7.86979 80.4282 8.51367C80.2935 9.15755 80.2261 9.93994 80.2261 10.8608V14.0391C80.2261 14.7728 80.2673 15.4204 80.3496 15.9819C80.4395 16.5435 80.5705 17.0301 80.7427 17.4419C80.9149 17.8462 81.1245 18.1794 81.3716 18.4414C81.6187 18.7035 81.9032 18.8981 82.2251 19.0254C82.5545 19.1452 82.9176 19.2051 83.3145 19.2051C83.8236 19.2051 84.269 19.1077 84.6509 18.9131C85.0327 18.7184 85.3509 18.4152 85.6055 18.0034C85.8675 17.5841 86.0622 17.0488 86.1895 16.3975C86.3167 15.7386 86.3804 14.9525 86.3804 14.0391ZM101.407 11.209V13.7021C101.407 15.0423 101.287 16.1729 101.047 17.0938C100.808 18.0146 100.463 18.7559 100.014 19.3174C99.5649 19.8789 99.0221 20.2869 98.3857 20.5415C97.7568 20.7886 97.0456 20.9121 96.252 20.9121C95.623 20.9121 95.0428 20.8335 94.5112 20.6763C93.9797 20.519 93.5005 20.2682 93.0737 19.9238C92.6545 19.5719 92.2951 19.1152 91.9956 18.5537C91.6961 17.9922 91.4678 17.3109 91.3105 16.5098C91.1533 15.7087 91.0747 14.7728 91.0747 13.7021V11.209C91.0747 9.86882 91.1945 8.74577 91.4341 7.83984C91.6812 6.93392 92.0293 6.20768 92.4785 5.66113C92.9277 5.1071 93.4668 4.71029 94.0957 4.4707C94.7321 4.23112 95.4434 4.11133 96.2295 4.11133C96.8659 4.11133 97.4499 4.18994 97.9814 4.34717C98.5205 4.49691 98.9997 4.74023 99.4189 5.07715C99.8382 5.40658 100.194 5.84831 100.486 6.40234C100.785 6.94889 101.014 7.61898 101.171 8.4126C101.328 9.20622 101.407 10.1383 101.407 11.209ZM99.3179 14.0391V10.8608C99.3179 10.1271 99.2729 9.48324 99.1831 8.9292C99.1007 8.36768 98.9772 7.88851 98.8125 7.4917C98.6478 7.09489 98.4382 6.77295 98.1836 6.52588C97.9365 6.27881 97.6483 6.09912 97.3188 5.98682C96.9969 5.86702 96.6338 5.80713 96.2295 5.80713C95.7354 5.80713 95.2974 5.90072 94.9155 6.08789C94.5337 6.26758 94.2118 6.55583 93.9497 6.95264C93.6951 7.34945 93.5005 7.86979 93.3657 8.51367C93.231 9.15755 93.1636 9.93994 93.1636 10.8608V14.0391C93.1636 14.7728 93.2048 15.4204 93.2871 15.9819C93.377 16.5435 93.508 17.0301 93.6802 17.4419C93.8524 17.8462 94.062 18.1794 94.3091 18.4414C94.5562 18.7035 94.8407 18.8981 95.1626 19.0254C95.492 19.1452 95.8551 19.2051 96.252 19.2051C96.7611 19.2051 97.2065 19.1077 97.5884 18.9131C97.9702 18.7184 98.2884 18.4152 98.543 18.0034C98.805 17.5841 98.9997 17.0488 99.127 16.3975C99.2542 15.7386 99.3179 14.9525 99.3179 14.0391Z" fill="#333333"/>
<path d="M115.767 12.0889H116.669C117.111 12.0889 117.476 12.016 117.763 11.8701C118.054 11.7197 118.271 11.5169 118.412 11.2617C118.558 11.002 118.631 10.7103 118.631 10.3867C118.631 10.0039 118.567 9.68262 118.439 9.42285C118.312 9.16309 118.12 8.96712 117.865 8.83496C117.61 8.7028 117.286 8.63672 116.895 8.63672C116.539 8.63672 116.225 8.70736 115.951 8.84863C115.682 8.98535 115.47 9.18132 115.315 9.43652C115.165 9.69173 115.09 9.99251 115.09 10.3389H113.825C113.825 9.83301 113.953 9.37272 114.208 8.95801C114.463 8.54329 114.821 8.21289 115.281 7.9668C115.746 7.7207 116.284 7.59766 116.895 7.59766C117.496 7.59766 118.022 7.70475 118.474 7.91895C118.925 8.12858 119.276 8.44303 119.526 8.8623C119.777 9.27702 119.902 9.79427 119.902 10.4141C119.902 10.6647 119.843 10.9336 119.725 11.2207C119.611 11.5033 119.431 11.7676 119.185 12.0137C118.943 12.2598 118.629 12.4626 118.241 12.6221C117.854 12.777 117.389 12.8545 116.847 12.8545H115.767V12.0889ZM115.767 13.1279V12.3691H116.847C117.48 12.3691 118.004 12.4443 118.419 12.5947C118.834 12.7451 119.16 12.9456 119.396 13.1963C119.638 13.4469 119.807 13.7227 119.902 14.0234C120.003 14.3197 120.053 14.6159 120.053 14.9121C120.053 15.377 119.973 15.7894 119.813 16.1494C119.659 16.5094 119.438 16.8148 119.15 17.0654C118.868 17.3161 118.535 17.5052 118.152 17.6328C117.77 17.7604 117.353 17.8242 116.901 17.8242C116.468 17.8242 116.061 17.7627 115.678 17.6396C115.299 17.5166 114.965 17.3389 114.673 17.1064C114.381 16.8695 114.153 16.5801 113.989 16.2383C113.825 15.8919 113.743 15.4977 113.743 15.0557H115.008C115.008 15.402 115.083 15.7051 115.233 15.9648C115.388 16.2246 115.607 16.4274 115.89 16.5732C116.177 16.7145 116.514 16.7852 116.901 16.7852C117.289 16.7852 117.621 16.7191 117.899 16.5869C118.182 16.4502 118.398 16.2451 118.549 15.9717C118.704 15.6982 118.781 15.3542 118.781 14.9395C118.781 14.5247 118.695 14.1852 118.521 13.9209C118.348 13.652 118.102 13.4538 117.783 13.3262C117.469 13.194 117.097 13.1279 116.669 13.1279H115.767ZM128.044 11.918V13.4355C128.044 14.2513 127.971 14.9395 127.825 15.5C127.679 16.0605 127.47 16.5117 127.196 16.8535C126.923 17.1953 126.592 17.4437 126.205 17.5986C125.822 17.749 125.389 17.8242 124.906 17.8242C124.523 17.8242 124.17 17.7764 123.847 17.6807C123.523 17.585 123.231 17.4323 122.972 17.2227C122.716 17.0085 122.498 16.7305 122.315 16.3887C122.133 16.0469 121.994 15.6322 121.898 15.1445C121.803 14.6569 121.755 14.0872 121.755 13.4355V11.918C121.755 11.1022 121.828 10.4186 121.974 9.86719C122.124 9.31576 122.336 8.8737 122.609 8.54102C122.883 8.20378 123.211 7.96224 123.594 7.81641C123.981 7.67057 124.414 7.59766 124.893 7.59766C125.28 7.59766 125.635 7.64551 125.959 7.74121C126.287 7.83236 126.579 7.98047 126.834 8.18555C127.089 8.38607 127.306 8.65495 127.483 8.99219C127.666 9.32487 127.805 9.73275 127.9 10.2158C127.996 10.6989 128.044 11.2663 128.044 11.918ZM126.772 13.6406V11.7061C126.772 11.2594 126.745 10.8675 126.69 10.5303C126.64 10.1885 126.565 9.89681 126.465 9.65527C126.365 9.41374 126.237 9.21777 126.082 9.06738C125.932 8.91699 125.756 8.80762 125.556 8.73926C125.36 8.66634 125.139 8.62988 124.893 8.62988C124.592 8.62988 124.325 8.68685 124.093 8.80078C123.86 8.91016 123.664 9.08561 123.505 9.32715C123.35 9.56868 123.231 9.88542 123.149 10.2773C123.067 10.6693 123.026 11.1455 123.026 11.7061V13.6406C123.026 14.0872 123.051 14.4814 123.102 14.8232C123.156 15.165 123.236 15.4613 123.341 15.7119C123.446 15.958 123.573 16.1608 123.724 16.3203C123.874 16.4798 124.047 16.5983 124.243 16.6758C124.444 16.7487 124.665 16.7852 124.906 16.7852C125.216 16.7852 125.487 16.7259 125.72 16.6074C125.952 16.4889 126.146 16.3044 126.301 16.0537C126.46 15.7985 126.579 15.4727 126.656 15.0762C126.734 14.6751 126.772 14.1966 126.772 13.6406ZM129.562 10.1748V9.64844C129.562 9.27018 129.644 8.92611 129.808 8.61621C129.972 8.30632 130.206 8.05794 130.512 7.87109C130.817 7.68424 131.179 7.59082 131.599 7.59082C132.027 7.59082 132.392 7.68424 132.692 7.87109C132.998 8.05794 133.232 8.30632 133.396 8.61621C133.561 8.92611 133.643 9.27018 133.643 9.64844V10.1748C133.643 10.5439 133.561 10.8835 133.396 11.1934C133.237 11.5033 133.005 11.7516 132.699 11.9385C132.398 12.1253 132.036 12.2188 131.612 12.2188C131.188 12.2188 130.822 12.1253 130.512 11.9385C130.206 11.7516 129.972 11.5033 129.808 11.1934C129.644 10.8835 129.562 10.5439 129.562 10.1748ZM130.512 9.64844V10.1748C130.512 10.3844 130.55 10.5827 130.628 10.7695C130.71 10.9564 130.833 11.109 130.997 11.2275C131.161 11.3415 131.366 11.3984 131.612 11.3984C131.858 11.3984 132.061 11.3415 132.221 11.2275C132.38 11.109 132.499 10.9564 132.576 10.7695C132.654 10.5827 132.692 10.3844 132.692 10.1748V9.64844C132.692 9.43424 132.651 9.23372 132.569 9.04688C132.492 8.85547 132.371 8.7028 132.207 8.58887C132.048 8.47038 131.845 8.41113 131.599 8.41113C131.357 8.41113 131.154 8.47038 130.99 8.58887C130.831 8.7028 130.71 8.85547 130.628 9.04688C130.55 9.23372 130.512 9.43424 130.512 9.64844ZM134.408 15.7803V15.2471C134.408 14.8734 134.49 14.5316 134.654 14.2217C134.818 13.9118 135.053 13.6634 135.358 13.4766C135.664 13.2897 136.026 13.1963 136.445 13.1963C136.874 13.1963 137.238 13.2897 137.539 13.4766C137.844 13.6634 138.079 13.9118 138.243 14.2217C138.407 14.5316 138.489 14.8734 138.489 15.2471V15.7803C138.489 16.154 138.407 16.4958 138.243 16.8057C138.084 17.1156 137.851 17.3639 137.546 17.5508C137.245 17.7376 136.883 17.8311 136.459 17.8311C136.035 17.8311 135.671 17.7376 135.365 17.5508C135.06 17.3639 134.823 17.1156 134.654 16.8057C134.49 16.4958 134.408 16.154 134.408 15.7803ZM135.358 15.2471V15.7803C135.358 15.9899 135.397 16.1904 135.475 16.3818C135.557 16.5687 135.68 16.7214 135.844 16.8398C136.008 16.9538 136.213 17.0107 136.459 17.0107C136.705 17.0107 136.908 16.9538 137.067 16.8398C137.231 16.7214 137.352 16.5687 137.43 16.3818C137.507 16.195 137.546 15.9945 137.546 15.7803V15.2471C137.546 15.0329 137.505 14.8324 137.423 14.6455C137.345 14.4587 137.225 14.3083 137.061 14.1943C136.901 14.0758 136.696 14.0166 136.445 14.0166C136.204 14.0166 136.001 14.0758 135.837 14.1943C135.677 14.3083 135.557 14.4587 135.475 14.6455C135.397 14.8324 135.358 15.0329 135.358 15.2471ZM136.76 9.14941L131.899 16.9287L131.188 16.4775L136.049 8.69824L136.76 9.14941ZM151.389 12.3965V13.0254C151.389 13.7728 151.295 14.4427 151.108 15.0352C150.922 15.6276 150.653 16.1312 150.302 16.5459C149.951 16.9606 149.529 17.2773 149.037 17.4961C148.549 17.7148 148.003 17.8242 147.396 17.8242C146.809 17.8242 146.269 17.7148 145.776 17.4961C145.289 17.2773 144.865 16.9606 144.505 16.5459C144.149 16.1312 143.874 15.6276 143.678 15.0352C143.482 14.4427 143.384 13.7728 143.384 13.0254V12.3965C143.384 11.6491 143.479 10.9814 143.671 10.3936C143.867 9.80111 144.143 9.29753 144.498 8.88281C144.854 8.46354 145.275 8.14453 145.763 7.92578C146.255 7.70703 146.795 7.59766 147.383 7.59766C147.989 7.59766 148.536 7.70703 149.023 7.92578C149.516 8.14453 149.937 8.46354 150.288 8.88281C150.644 9.29753 150.915 9.80111 151.102 10.3936C151.293 10.9814 151.389 11.6491 151.389 12.3965ZM150.083 13.0254V12.3828C150.083 11.7904 150.021 11.2663 149.898 10.8105C149.78 10.3548 149.604 9.97201 149.372 9.66211C149.14 9.35221 148.855 9.11751 148.518 8.95801C148.185 8.7985 147.807 8.71875 147.383 8.71875C146.973 8.71875 146.601 8.7985 146.269 8.95801C145.94 9.11751 145.658 9.35221 145.421 9.66211C145.188 9.97201 145.008 10.3548 144.881 10.8105C144.753 11.2663 144.689 11.7904 144.689 12.3828V13.0254C144.689 13.6224 144.753 14.151 144.881 14.6113C145.008 15.0671 145.191 15.4521 145.428 15.7666C145.669 16.0765 145.954 16.3112 146.282 16.4707C146.615 16.6302 146.986 16.71 147.396 16.71C147.825 16.71 148.205 16.6302 148.538 16.4707C148.871 16.3112 149.151 16.0765 149.379 15.7666C149.611 15.4521 149.787 15.0671 149.905 14.6113C150.024 14.151 150.083 13.6224 150.083 13.0254ZM154.684 7.73438V17.6875H153.364V7.73438H154.684ZM158.854 12.2119V13.292H154.396V12.2119H158.854ZM159.53 7.73438V8.81445H154.396V7.73438H159.53ZM162.422 7.73438V17.6875H161.103V7.73438H162.422ZM166.592 12.2119V13.292H162.135V12.2119H166.592ZM167.269 7.73438V8.81445H162.135V7.73438H167.269Z" fill="#00A650"/>
</svg>
