<svg width="170" height="25" viewBox="0 0 170 25" fill="none" xmlns="http://www.w3.org/2000/svg">
<path d="M7.89844 0.859375V4.43359H6.14062V0.859375H7.89844ZM7.6875 19.9961V23.125H5.94141V19.9961H7.6875ZM10.0312 16.293C10.0312 15.8242 9.92578 15.4023 9.71484 15.0273C9.50391 14.6523 9.15625 14.3086 8.67188 13.9961C8.1875 13.6836 7.53906 13.3945 6.72656 13.1289C5.74219 12.8242 4.89062 12.4531 4.17188 12.0156C3.46094 11.5781 2.91016 11.0352 2.51953 10.3867C2.13672 9.73828 1.94531 8.95312 1.94531 8.03125C1.94531 7.07031 2.15234 6.24219 2.56641 5.54688C2.98047 4.85156 3.56641 4.31641 4.32422 3.94141C5.08203 3.56641 5.97266 3.37891 6.99609 3.37891C7.79297 3.37891 8.50391 3.5 9.12891 3.74219C9.75391 3.97656 10.2812 4.32812 10.7109 4.79688C11.1484 5.26562 11.4805 5.83984 11.707 6.51953C11.9414 7.19922 12.0586 7.98438 12.0586 8.875H9.90234C9.90234 8.35156 9.83984 7.87109 9.71484 7.43359C9.58984 6.99609 9.40234 6.61719 9.15234 6.29688C8.90234 5.96875 8.59766 5.71875 8.23828 5.54688C7.87891 5.36719 7.46484 5.27734 6.99609 5.27734C6.33984 5.27734 5.79688 5.39063 5.36719 5.61719C4.94531 5.84375 4.63281 6.16406 4.42969 6.57812C4.22656 6.98438 4.125 7.45703 4.125 7.99609C4.125 8.49609 4.22656 8.93359 4.42969 9.30859C4.63281 9.68359 4.97656 10.0234 5.46094 10.3281C5.95312 10.625 6.62891 10.918 7.48828 11.207C8.49609 11.5273 9.35156 11.9062 10.0547 12.3438C10.7578 12.7734 11.293 13.3047 11.6602 13.9375C12.0273 14.5625 12.2109 15.3398 12.2109 16.2695C12.2109 17.2773 11.9844 18.1289 11.5312 18.8242C11.0781 19.5117 10.4414 20.0352 9.62109 20.3945C8.80078 20.7539 7.83984 20.9336 6.73828 20.9336C6.07422 20.9336 5.41797 20.8438 4.76953 20.6641C4.12109 20.4844 3.53516 20.1914 3.01172 19.7852C2.48828 19.3711 2.07031 18.8281 1.75781 18.1562C1.44531 17.4766 1.28906 16.6445 1.28906 15.6602H3.46875C3.46875 16.3242 3.5625 16.875 3.75 17.3125C3.94531 17.7422 4.20312 18.0859 4.52344 18.3438C4.84375 18.5938 5.19531 18.7734 5.57812 18.8828C5.96875 18.9844 6.35547 19.0352 6.73828 19.0352C7.44141 19.0352 8.03516 18.9258 8.51953 18.707C9.01172 18.4805 9.38672 18.1602 9.64453 17.7461C9.90234 17.332 10.0312 16.8477 10.0312 16.293Z" fill="#333333"/>
<path d="M26.8623 4.96094V20.6875H24.875V7.44238L20.8682 8.90332V7.10938L26.5508 4.96094H26.8623ZM35.6064 11.8896H37.0244C37.7191 11.8896 38.292 11.7751 38.7432 11.5459C39.2015 11.3096 39.5417 10.9909 39.7637 10.5898C39.9928 10.1816 40.1074 9.72331 40.1074 9.21484C40.1074 8.61328 40.0072 8.1084 39.8066 7.7002C39.6061 7.29199 39.3053 6.98405 38.9043 6.77637C38.5033 6.56868 37.9948 6.46484 37.3789 6.46484C36.8203 6.46484 36.3262 6.57585 35.8965 6.79785C35.474 7.0127 35.141 7.32064 34.8975 7.72168C34.6611 8.12272 34.543 8.59538 34.543 9.13965H32.5557C32.5557 8.34473 32.7562 7.62142 33.1572 6.96973C33.5583 6.31803 34.1204 5.79883 34.8438 5.41211C35.5742 5.02539 36.4193 4.83203 37.3789 4.83203C38.3242 4.83203 39.1514 5.00033 39.8604 5.33691C40.5693 5.66634 41.1208 6.16048 41.5146 6.81934C41.9085 7.47103 42.1055 8.28385 42.1055 9.25781C42.1055 9.65169 42.0124 10.0742 41.8262 10.5254C41.6471 10.9694 41.3643 11.3848 40.9775 11.7715C40.598 12.1582 40.1038 12.4769 39.4951 12.7275C38.8864 12.971 38.1559 13.0928 37.3037 13.0928H35.6064V11.8896ZM35.6064 13.5225V12.3301H37.3037C38.2992 12.3301 39.1227 12.4482 39.7744 12.6846C40.4261 12.9209 40.9382 13.236 41.3105 13.6299C41.6901 14.0238 41.9551 14.457 42.1055 14.9297C42.263 15.3952 42.3418 15.8607 42.3418 16.3262C42.3418 17.0566 42.2165 17.7048 41.9658 18.2705C41.7223 18.8363 41.375 19.3161 40.9238 19.71C40.4798 20.1038 39.957 20.401 39.3555 20.6016C38.7539 20.8021 38.0986 20.9023 37.3896 20.9023C36.7093 20.9023 36.0684 20.8057 35.4668 20.6123C34.8724 20.4189 34.346 20.1396 33.8877 19.7744C33.4294 19.402 33.0713 18.9473 32.8135 18.4102C32.5557 17.8659 32.4268 17.2464 32.4268 16.5518H34.4141C34.4141 17.096 34.5322 17.5723 34.7686 17.9805C35.012 18.3887 35.3558 18.7074 35.7998 18.9365C36.251 19.1585 36.7809 19.2695 37.3896 19.2695C37.9984 19.2695 38.5212 19.1657 38.958 18.958C39.402 18.7432 39.7422 18.4209 39.9785 17.9912C40.222 17.5615 40.3438 17.0208 40.3438 16.3691C40.3438 15.7174 40.2077 15.1839 39.9355 14.7686C39.6634 14.346 39.2767 14.0345 38.7754 13.834C38.2812 13.6263 37.6976 13.5225 37.0244 13.5225H35.6064ZM55.6514 15.4238V17.0566H44.3506V15.8857L51.3545 5.04688H52.9766L51.2363 8.18359L46.6064 15.4238H55.6514ZM53.4707 5.04688V20.6875H51.4834V5.04688H53.4707ZM57.7031 19.6348C57.7031 19.2982 57.807 19.0153 58.0146 18.7861C58.2295 18.5498 58.5374 18.4316 58.9385 18.4316C59.3395 18.4316 59.6439 18.5498 59.8516 18.7861C60.0664 19.0153 60.1738 19.2982 60.1738 19.6348C60.1738 19.9642 60.0664 20.2435 59.8516 20.4727C59.6439 20.7018 59.3395 20.8164 58.9385 20.8164C58.5374 20.8164 58.2295 20.7018 58.0146 20.4727C57.807 20.2435 57.7031 19.9642 57.7031 19.6348ZM65.2334 19.0225H65.4375C66.5833 19.0225 67.5143 18.8613 68.2305 18.5391C68.9466 18.2168 69.498 17.7835 69.8848 17.2393C70.2715 16.695 70.5365 16.0827 70.6797 15.4023C70.8229 14.7148 70.8945 14.0094 70.8945 13.2861V10.8906C70.8945 10.1816 70.8122 9.55143 70.6475 9C70.4899 8.44857 70.2679 7.98665 69.9814 7.61426C69.7021 7.24186 69.3835 6.95898 69.0254 6.76562C68.6673 6.57227 68.2878 6.47559 67.8867 6.47559C67.4284 6.47559 67.0166 6.56868 66.6514 6.75488C66.2933 6.93392 65.9889 7.18815 65.7383 7.51758C65.4948 7.84701 65.3086 8.23372 65.1797 8.67773C65.0508 9.12174 64.9863 9.60514 64.9863 10.1279C64.9863 10.5934 65.0436 11.0446 65.1582 11.4814C65.2728 11.9183 65.4482 12.3122 65.6846 12.6631C65.9209 13.014 66.2145 13.2933 66.5654 13.501C66.9235 13.7015 67.3424 13.8018 67.8223 13.8018C68.2663 13.8018 68.6816 13.7158 69.0684 13.5439C69.4622 13.3649 69.8096 13.125 70.1104 12.8242C70.4183 12.5163 70.6618 12.1689 70.8408 11.7822C71.027 11.3955 71.1344 10.9909 71.1631 10.5684H72.1084C72.1084 11.1628 71.9902 11.75 71.7539 12.3301C71.5247 12.903 71.2025 13.4258 70.7871 13.8984C70.3717 14.3711 69.8848 14.7507 69.3262 15.0371C68.7676 15.3164 68.1589 15.4561 67.5 15.4561C66.7266 15.4561 66.057 15.3057 65.4912 15.0049C64.9255 14.7041 64.46 14.3031 64.0947 13.8018C63.7367 13.3005 63.4681 12.7419 63.2891 12.126C63.1172 11.5029 63.0312 10.8727 63.0312 10.2354C63.0312 9.49056 63.1351 8.79232 63.3428 8.14062C63.5505 7.48893 63.8584 6.91602 64.2666 6.42188C64.6748 5.92057 65.1797 5.53027 65.7812 5.25098C66.39 4.97168 67.0918 4.83203 67.8867 4.83203C68.7819 4.83203 69.5446 5.01107 70.1748 5.36914C70.805 5.72721 71.3171 6.20703 71.7109 6.80859C72.112 7.41016 72.4056 8.08691 72.5918 8.83887C72.778 9.59082 72.8711 10.3643 72.8711 11.1592V11.8789C72.8711 12.6882 72.8174 13.5117 72.71 14.3496C72.6097 15.1803 72.4128 15.9753 72.1191 16.7344C71.8327 17.4935 71.4137 18.1738 70.8623 18.7754C70.3109 19.3698 69.5911 19.8424 68.7031 20.1934C67.8223 20.5371 66.7337 20.709 65.4375 20.709H65.2334V19.0225ZM78.1455 13.2432L76.5557 12.835L77.3398 5.04688H85.3643V6.88379H79.0264L78.5537 11.1377C78.8402 10.973 79.2018 10.819 79.6387 10.6758C80.0827 10.5326 80.5911 10.4609 81.1641 10.4609C81.8874 10.4609 82.5355 10.5863 83.1084 10.8369C83.6813 11.0804 84.1683 11.4313 84.5693 11.8896C84.9775 12.348 85.2891 12.8994 85.5039 13.5439C85.7188 14.1885 85.8262 14.9082 85.8262 15.7031C85.8262 16.4551 85.7223 17.1462 85.5146 17.7764C85.3141 18.4066 85.0098 18.958 84.6016 19.4307C84.1934 19.8962 83.6777 20.2578 83.0547 20.5156C82.4388 20.7734 81.7119 20.9023 80.874 20.9023C80.2438 20.9023 79.6458 20.8164 79.0801 20.6445C78.5215 20.4655 78.0202 20.1969 77.5762 19.8389C77.1393 19.4736 76.7812 19.0225 76.502 18.4854C76.2298 17.9411 76.0579 17.3037 75.9863 16.5732H77.877C77.9629 17.1605 78.1348 17.6546 78.3926 18.0557C78.6504 18.4567 78.987 18.7611 79.4023 18.9688C79.8249 19.1693 80.3154 19.2695 80.874 19.2695C81.3467 19.2695 81.7656 19.1872 82.1309 19.0225C82.4961 18.8577 82.804 18.6214 83.0547 18.3135C83.3053 18.0055 83.4951 17.6331 83.624 17.1963C83.7601 16.7594 83.8281 16.2689 83.8281 15.7246C83.8281 15.2305 83.7601 14.7721 83.624 14.3496C83.488 13.9271 83.2839 13.5583 83.0117 13.2432C82.7467 12.9281 82.4209 12.6846 82.0342 12.5127C81.6475 12.3337 81.2035 12.2441 80.7021 12.2441C80.0361 12.2441 79.5312 12.3337 79.1875 12.5127C78.8509 12.6917 78.5036 12.9352 78.1455 13.2432ZM97.8252 11.6211V14.0059C97.8252 15.2878 97.7106 16.3691 97.4814 17.25C97.2523 18.1309 96.9229 18.8398 96.4932 19.377C96.0635 19.9141 95.5443 20.3044 94.9355 20.5479C94.334 20.7842 93.6536 20.9023 92.8945 20.9023C92.293 20.9023 91.738 20.8271 91.2295 20.6768C90.721 20.5264 90.2627 20.2865 89.8545 19.957C89.4535 19.6204 89.1097 19.1836 88.8232 18.6465C88.5368 18.1094 88.3184 17.4577 88.168 16.6914C88.0176 15.9251 87.9424 15.0299 87.9424 14.0059V11.6211C87.9424 10.3392 88.057 9.26497 88.2861 8.39844C88.5225 7.5319 88.8555 6.83724 89.2852 6.31445C89.7148 5.78451 90.2305 5.40495 90.832 5.17578C91.4408 4.94661 92.1211 4.83203 92.873 4.83203C93.4818 4.83203 94.0404 4.90723 94.5488 5.05762C95.0645 5.20085 95.5228 5.43359 95.9238 5.75586C96.3249 6.07096 96.665 6.49349 96.9443 7.02344C97.2308 7.54622 97.4492 8.18717 97.5996 8.94629C97.75 9.7054 97.8252 10.597 97.8252 11.6211ZM95.8271 14.3281V11.2881C95.8271 10.5863 95.7842 9.97038 95.6982 9.44043C95.6195 8.90332 95.5013 8.44499 95.3438 8.06543C95.1862 7.68587 94.9857 7.37793 94.7422 7.1416C94.5059 6.90527 94.2301 6.7334 93.915 6.62598C93.6071 6.51139 93.2598 6.4541 92.873 6.4541C92.4004 6.4541 91.9814 6.54362 91.6162 6.72266C91.251 6.89453 90.943 7.17025 90.6924 7.5498C90.4489 7.92936 90.2627 8.42708 90.1338 9.04297C90.0049 9.65885 89.9404 10.4072 89.9404 11.2881V14.3281C89.9404 15.0299 89.9798 15.6494 90.0586 16.1865C90.1445 16.7236 90.2699 17.1891 90.4346 17.583C90.5993 17.9697 90.7998 18.2884 91.0361 18.5391C91.2725 18.7897 91.5446 18.9759 91.8525 19.0977C92.1676 19.2122 92.515 19.2695 92.8945 19.2695C93.3815 19.2695 93.8076 19.1764 94.1729 18.9902C94.5381 18.804 94.8424 18.514 95.0859 18.1201C95.3366 17.7191 95.5228 17.207 95.6445 16.584C95.7663 15.9538 95.8271 15.2018 95.8271 14.3281Z" fill="#333333"/>
<path d="M114.911 12.9502L113.899 12.6904L114.398 7.73438H119.505V8.90332H115.472L115.171 11.6104C115.353 11.5055 115.583 11.4076 115.861 11.3164C116.144 11.2253 116.467 11.1797 116.832 11.1797C117.292 11.1797 117.705 11.2594 118.069 11.4189C118.434 11.5739 118.744 11.7972 118.999 12.0889C119.259 12.3805 119.457 12.7314 119.594 13.1416C119.73 13.5518 119.799 14.0098 119.799 14.5156C119.799 14.9941 119.733 15.4339 119.601 15.835C119.473 16.236 119.279 16.5869 119.02 16.8877C118.76 17.1839 118.432 17.4141 118.035 17.5781C117.643 17.7422 117.181 17.8242 116.647 17.8242C116.246 17.8242 115.866 17.7695 115.506 17.6602C115.15 17.5462 114.831 17.3753 114.549 17.1475C114.271 16.915 114.043 16.6279 113.865 16.2861C113.692 15.9398 113.583 15.5342 113.537 15.0693H114.74C114.795 15.443 114.904 15.7575 115.068 16.0127C115.232 16.2679 115.447 16.4616 115.711 16.5938C115.98 16.7214 116.292 16.7852 116.647 16.7852C116.948 16.7852 117.215 16.7327 117.447 16.6279C117.68 16.5231 117.876 16.3727 118.035 16.1768C118.195 15.9808 118.315 15.7438 118.397 15.4658C118.484 15.1878 118.527 14.8757 118.527 14.5293C118.527 14.2148 118.484 13.9232 118.397 13.6543C118.311 13.3854 118.181 13.1507 118.008 12.9502C117.839 12.7497 117.632 12.5947 117.386 12.4854C117.14 12.3714 116.857 12.3145 116.538 12.3145C116.114 12.3145 115.793 12.3714 115.574 12.4854C115.36 12.5993 115.139 12.7542 114.911 12.9502ZM127.435 11.918V13.4355C127.435 14.2513 127.362 14.9395 127.216 15.5C127.07 16.0605 126.86 16.5117 126.587 16.8535C126.313 17.1953 125.983 17.4437 125.596 17.5986C125.213 17.749 124.78 17.8242 124.297 17.8242C123.914 17.8242 123.561 17.7764 123.237 17.6807C122.914 17.585 122.622 17.4323 122.362 17.2227C122.107 17.0085 121.888 16.7305 121.706 16.3887C121.524 16.0469 121.385 15.6322 121.289 15.1445C121.193 14.6569 121.146 14.0872 121.146 13.4355V11.918C121.146 11.1022 121.218 10.4186 121.364 9.86719C121.515 9.31576 121.727 8.8737 122 8.54102C122.273 8.20378 122.602 7.96224 122.984 7.81641C123.372 7.67057 123.805 7.59766 124.283 7.59766C124.671 7.59766 125.026 7.64551 125.35 7.74121C125.678 7.83236 125.969 7.98047 126.225 8.18555C126.48 8.38607 126.696 8.65495 126.874 8.99219C127.056 9.32487 127.195 9.73275 127.291 10.2158C127.387 10.6989 127.435 11.2663 127.435 11.918ZM126.163 13.6406V11.7061C126.163 11.2594 126.136 10.8675 126.081 10.5303C126.031 10.1885 125.956 9.89681 125.855 9.65527C125.755 9.41374 125.628 9.21777 125.473 9.06738C125.322 8.91699 125.147 8.80762 124.946 8.73926C124.75 8.66634 124.529 8.62988 124.283 8.62988C123.982 8.62988 123.716 8.68685 123.483 8.80078C123.251 8.91016 123.055 9.08561 122.896 9.32715C122.741 9.56868 122.622 9.88542 122.54 10.2773C122.458 10.6693 122.417 11.1455 122.417 11.7061V13.6406C122.417 14.0872 122.442 14.4814 122.492 14.8232C122.547 15.165 122.627 15.4613 122.731 15.7119C122.836 15.958 122.964 16.1608 123.114 16.3203C123.265 16.4798 123.438 16.5983 123.634 16.6758C123.834 16.7487 124.055 16.7852 124.297 16.7852C124.607 16.7852 124.878 16.7259 125.11 16.6074C125.343 16.4889 125.536 16.3044 125.691 16.0537C125.851 15.7985 125.969 15.4727 126.047 15.0762C126.124 14.6751 126.163 14.1966 126.163 13.6406ZM128.952 10.1748V9.64844C128.952 9.27018 129.034 8.92611 129.198 8.61621C129.362 8.30632 129.597 8.05794 129.902 7.87109C130.208 7.68424 130.57 7.59082 130.989 7.59082C131.418 7.59082 131.782 7.68424 132.083 7.87109C132.388 8.05794 132.623 8.30632 132.787 8.61621C132.951 8.92611 133.033 9.27018 133.033 9.64844V10.1748C133.033 10.5439 132.951 10.8835 132.787 11.1934C132.628 11.5033 132.395 11.7516 132.09 11.9385C131.789 12.1253 131.427 12.2188 131.003 12.2188C130.579 12.2188 130.212 12.1253 129.902 11.9385C129.597 11.7516 129.362 11.5033 129.198 11.1934C129.034 10.8835 128.952 10.5439 128.952 10.1748ZM129.902 9.64844V10.1748C129.902 10.3844 129.941 10.5827 130.019 10.7695C130.101 10.9564 130.224 11.109 130.388 11.2275C130.552 11.3415 130.757 11.3984 131.003 11.3984C131.249 11.3984 131.452 11.3415 131.611 11.2275C131.771 11.109 131.889 10.9564 131.967 10.7695C132.044 10.5827 132.083 10.3844 132.083 10.1748V9.64844C132.083 9.43424 132.042 9.23372 131.96 9.04688C131.882 8.85547 131.762 8.7028 131.598 8.58887C131.438 8.47038 131.235 8.41113 130.989 8.41113C130.748 8.41113 130.545 8.47038 130.381 8.58887C130.221 8.7028 130.101 8.85547 130.019 9.04688C129.941 9.23372 129.902 9.43424 129.902 9.64844ZM133.799 15.7803V15.2471C133.799 14.8734 133.881 14.5316 134.045 14.2217C134.209 13.9118 134.444 13.6634 134.749 13.4766C135.054 13.2897 135.417 13.1963 135.836 13.1963C136.264 13.1963 136.629 13.2897 136.93 13.4766C137.235 13.6634 137.47 13.9118 137.634 14.2217C137.798 14.5316 137.88 14.8734 137.88 15.2471V15.7803C137.88 16.154 137.798 16.4958 137.634 16.8057C137.474 17.1156 137.242 17.3639 136.937 17.5508C136.636 17.7376 136.273 17.8311 135.85 17.8311C135.426 17.8311 135.061 17.7376 134.756 17.5508C134.451 17.3639 134.214 17.1156 134.045 16.8057C133.881 16.4958 133.799 16.154 133.799 15.7803ZM134.749 15.2471V15.7803C134.749 15.9899 134.788 16.1904 134.865 16.3818C134.947 16.5687 135.07 16.7214 135.234 16.8398C135.398 16.9538 135.604 17.0107 135.85 17.0107C136.096 17.0107 136.299 16.9538 136.458 16.8398C136.622 16.7214 136.743 16.5687 136.82 16.3818C136.898 16.195 136.937 15.9945 136.937 15.7803V15.2471C136.937 15.0329 136.896 14.8324 136.813 14.6455C136.736 14.4587 136.615 14.3083 136.451 14.1943C136.292 14.0758 136.087 14.0166 135.836 14.0166C135.594 14.0166 135.392 14.0758 135.228 14.1943C135.068 14.3083 134.947 14.4587 134.865 14.6455C134.788 14.8324 134.749 15.0329 134.749 15.2471ZM136.15 9.14941L131.29 16.9287L130.579 16.4775L135.439 8.69824L136.15 9.14941ZM150.779 12.3965V13.0254C150.779 13.7728 150.686 14.4427 150.499 15.0352C150.312 15.6276 150.043 16.1312 149.692 16.5459C149.341 16.9606 148.92 17.2773 148.428 17.4961C147.94 17.7148 147.393 17.8242 146.787 17.8242C146.199 17.8242 145.659 17.7148 145.167 17.4961C144.679 17.2773 144.256 16.9606 143.896 16.5459C143.54 16.1312 143.264 15.6276 143.068 15.0352C142.872 14.4427 142.774 13.7728 142.774 13.0254V12.3965C142.774 11.6491 142.87 10.9814 143.062 10.3936C143.257 9.80111 143.533 9.29753 143.889 8.88281C144.244 8.46354 144.666 8.14453 145.153 7.92578C145.646 7.70703 146.186 7.59766 146.773 7.59766C147.38 7.59766 147.926 7.70703 148.414 7.92578C148.906 8.14453 149.328 8.46354 149.679 8.88281C150.034 9.29753 150.305 9.80111 150.492 10.3936C150.684 10.9814 150.779 11.6491 150.779 12.3965ZM149.474 13.0254V12.3828C149.474 11.7904 149.412 11.2663 149.289 10.8105C149.171 10.3548 148.995 9.97201 148.763 9.66211C148.53 9.35221 148.245 9.11751 147.908 8.95801C147.576 8.7985 147.197 8.71875 146.773 8.71875C146.363 8.71875 145.992 8.7985 145.659 8.95801C145.331 9.11751 145.049 9.35221 144.812 9.66211C144.579 9.97201 144.399 10.3548 144.271 10.8105C144.144 11.2663 144.08 11.7904 144.08 12.3828V13.0254C144.08 13.6224 144.144 14.151 144.271 14.6113C144.399 15.0671 144.581 15.4521 144.818 15.7666C145.06 16.0765 145.345 16.3112 145.673 16.4707C146.006 16.6302 146.377 16.71 146.787 16.71C147.215 16.71 147.596 16.6302 147.929 16.4707C148.261 16.3112 148.542 16.0765 148.77 15.7666C149.002 15.4521 149.177 15.0671 149.296 14.6113C149.414 14.151 149.474 13.6224 149.474 13.0254ZM154.074 7.73438V17.6875H152.755V7.73438H154.074ZM158.244 12.2119V13.292H153.787V12.2119H158.244ZM158.921 7.73438V8.81445H153.787V7.73438H158.921ZM161.812 7.73438V17.6875H160.493V7.73438H161.812ZM165.982 12.2119V13.292H161.525V12.2119H165.982ZM166.659 7.73438V8.81445H161.525V7.73438H166.659Z" fill="#00A650"/>
</svg>
