<svg width="171" height="25" viewBox="0 0 171 25" fill="none" xmlns="http://www.w3.org/2000/svg">
<path d="M7.89844 0.859375V4.43359H6.14062V0.859375H7.89844ZM7.6875 19.9961V23.125H5.94141V19.9961H7.6875ZM10.0312 16.293C10.0312 15.8242 9.92578 15.4023 9.71484 15.0273C9.50391 14.6523 9.15625 14.3086 8.67188 13.9961C8.1875 13.6836 7.53906 13.3945 6.72656 13.1289C5.74219 12.8242 4.89062 12.4531 4.17188 12.0156C3.46094 11.5781 2.91016 11.0352 2.51953 10.3867C2.13672 9.73828 1.94531 8.95312 1.94531 8.03125C1.94531 7.07031 2.15234 6.24219 2.56641 5.54688C2.98047 4.85156 3.56641 4.31641 4.32422 3.94141C5.08203 3.56641 5.97266 3.37891 6.99609 3.37891C7.79297 3.37891 8.50391 3.5 9.12891 3.74219C9.75391 3.97656 10.2812 4.32812 10.7109 4.79688C11.1484 5.26562 11.4805 5.83984 11.707 6.51953C11.9414 7.19922 12.0586 7.98438 12.0586 8.875H9.90234C9.90234 8.35156 9.83984 7.87109 9.71484 7.43359C9.58984 6.99609 9.40234 6.61719 9.15234 6.29688C8.90234 5.96875 8.59766 5.71875 8.23828 5.54688C7.87891 5.36719 7.46484 5.27734 6.99609 5.27734C6.33984 5.27734 5.79688 5.39063 5.36719 5.61719C4.94531 5.84375 4.63281 6.16406 4.42969 6.57812C4.22656 6.98438 4.125 7.45703 4.125 7.99609C4.125 8.49609 4.22656 8.93359 4.42969 9.30859C4.63281 9.68359 4.97656 10.0234 5.46094 10.3281C5.95312 10.625 6.62891 10.918 7.48828 11.207C8.49609 11.5273 9.35156 11.9062 10.0547 12.3438C10.7578 12.7734 11.293 13.3047 11.6602 13.9375C12.0273 14.5625 12.2109 15.3398 12.2109 16.2695C12.2109 17.2773 11.9844 18.1289 11.5312 18.8242C11.0781 19.5117 10.4414 20.0352 9.62109 20.3945C8.80078 20.7539 7.83984 20.9336 6.73828 20.9336C6.07422 20.9336 5.41797 20.8438 4.76953 20.6641C4.12109 20.4844 3.53516 20.1914 3.01172 19.7852C2.48828 19.3711 2.07031 18.8281 1.75781 18.1562C1.44531 17.4766 1.28906 16.6445 1.28906 15.6602H3.46875C3.46875 16.3242 3.5625 16.875 3.75 17.3125C3.94531 17.7422 4.20312 18.0859 4.52344 18.3438C4.84375 18.5938 5.19531 18.7734 5.57812 18.8828C5.96875 18.9844 6.35547 19.0352 6.73828 19.0352C7.44141 19.0352 8.03516 18.9258 8.51953 18.707C9.01172 18.4805 9.38672 18.1602 9.64453 17.7461C9.90234 17.332 10.0312 16.8477 10.0312 16.293Z" fill="#333333"/>
<path d="M31.104 18.9805V20.6875H20.4014V19.1938L25.7583 13.2305C26.4172 12.4967 26.9263 11.8753 27.2856 11.3662C27.6525 10.8496 27.9071 10.3892 28.0493 9.98486C28.1991 9.57308 28.2739 9.15381 28.2739 8.72705C28.2739 8.18799 28.1616 7.70133 27.937 7.26709C27.7199 6.82536 27.3979 6.47347 26.9712 6.21143C26.5444 5.94938 26.0278 5.81836 25.4214 5.81836C24.6951 5.81836 24.0887 5.96061 23.6021 6.24512C23.1229 6.52214 22.7635 6.91146 22.5239 7.41309C22.2843 7.91471 22.1646 8.49121 22.1646 9.14258H20.0869C20.0869 8.22168 20.2891 7.37939 20.6934 6.61572C21.0977 5.85205 21.6966 5.24561 22.4902 4.79639C23.2839 4.33968 24.2609 4.11133 25.4214 4.11133C26.4546 4.11133 27.3381 4.29476 28.0718 4.66162C28.8055 5.021 29.367 5.53011 29.7563 6.18896C30.1532 6.84033 30.3516 7.604 30.3516 8.47998C30.3516 8.95915 30.2692 9.4458 30.1045 9.93994C29.9473 10.4266 29.7264 10.9132 29.4419 11.3999C29.1649 11.8866 28.8392 12.3657 28.4648 12.8374C28.098 13.3091 27.7049 13.7733 27.2856 14.23L22.9058 18.9805H31.104ZM40.1558 4.24609V20.6875H38.0781V6.84033L33.8892 8.36768V6.49219L39.8301 4.24609H40.1558ZM56.5298 11.209V13.7021C56.5298 15.0423 56.41 16.1729 56.1704 17.0938C55.9308 18.0146 55.5864 18.7559 55.1372 19.3174C54.688 19.8789 54.1452 20.2869 53.5088 20.5415C52.8799 20.7886 52.1686 20.9121 51.375 20.9121C50.7461 20.9121 50.1659 20.8335 49.6343 20.6763C49.1027 20.519 48.6235 20.2682 48.1968 19.9238C47.7775 19.5719 47.4181 19.1152 47.1187 18.5537C46.8192 17.9922 46.5908 17.3109 46.4336 16.5098C46.2764 15.7087 46.1978 14.7728 46.1978 13.7021V11.209C46.1978 9.86882 46.3175 8.74577 46.5571 7.83984C46.8042 6.93392 47.1523 6.20768 47.6016 5.66113C48.0508 5.1071 48.5898 4.71029 49.2188 4.4707C49.8551 4.23112 50.5664 4.11133 51.3525 4.11133C51.9889 4.11133 52.5729 4.18994 53.1045 4.34717C53.6436 4.49691 54.1227 4.74023 54.542 5.07715C54.9613 5.40658 55.3169 5.84831 55.6089 6.40234C55.9084 6.94889 56.1367 7.61898 56.2939 8.4126C56.4512 9.20622 56.5298 10.1383 56.5298 11.209ZM54.4409 14.0391V10.8608C54.4409 10.1271 54.396 9.48324 54.3062 8.9292C54.2238 8.36768 54.1003 7.88851 53.9355 7.4917C53.7708 7.09489 53.5612 6.77295 53.3066 6.52588C53.0596 6.27881 52.7713 6.09912 52.4419 5.98682C52.12 5.86702 51.7568 5.80713 51.3525 5.80713C50.8584 5.80713 50.4204 5.90072 50.0386 6.08789C49.6567 6.26758 49.3348 6.55583 49.0728 6.95264C48.8182 7.34945 48.6235 7.86979 48.4888 8.51367C48.354 9.15755 48.2866 9.93994 48.2866 10.8608V14.0391C48.2866 14.7728 48.3278 15.4204 48.4102 15.9819C48.5 16.5435 48.631 17.0301 48.8032 17.4419C48.9754 17.8462 49.1851 18.1794 49.4321 18.4414C49.6792 18.7035 49.9637 18.8981 50.2856 19.0254C50.6151 19.1452 50.9782 19.2051 51.375 19.2051C51.8841 19.2051 52.3296 19.1077 52.7114 18.9131C53.0933 18.7184 53.4115 18.4152 53.666 18.0034C53.9281 17.5841 54.1227 17.0488 54.25 16.3975C54.3773 15.7386 54.4409 14.9525 54.4409 14.0391ZM59.4609 19.5869C59.4609 19.235 59.5695 18.9393 59.7866 18.6997C60.0112 18.4526 60.3332 18.3291 60.7524 18.3291C61.1717 18.3291 61.4899 18.4526 61.707 18.6997C61.9316 18.9393 62.0439 19.235 62.0439 19.5869C62.0439 19.9313 61.9316 20.2233 61.707 20.4629C61.4899 20.7025 61.1717 20.8223 60.7524 20.8223C60.3332 20.8223 60.0112 20.7025 59.7866 20.4629C59.5695 20.2233 59.4609 19.9313 59.4609 19.5869ZM67.3335 18.9468H67.5469C68.7448 18.9468 69.7181 18.7783 70.4668 18.4414C71.2155 18.1045 71.792 17.6515 72.1963 17.0825C72.6006 16.5135 72.8776 15.8734 73.0273 15.1621C73.1771 14.4434 73.252 13.7059 73.252 12.9497V10.4453C73.252 9.7041 73.1659 9.04525 72.9937 8.46875C72.8289 7.89225 72.5968 7.40934 72.2974 7.02002C72.0054 6.6307 71.6722 6.33496 71.2979 6.13281C70.9235 5.93066 70.5267 5.82959 70.1074 5.82959C69.6283 5.82959 69.1978 5.92692 68.8159 6.12158C68.4416 6.30876 68.1234 6.57454 67.8613 6.91895C67.6068 7.26335 67.4121 7.66764 67.2773 8.13184C67.1426 8.59603 67.0752 9.1014 67.0752 9.64795C67.0752 10.1346 67.1351 10.6063 67.2549 11.063C67.3747 11.5197 67.5581 11.9315 67.8052 12.2983C68.0522 12.6652 68.3592 12.9572 68.7261 13.1743C69.1004 13.384 69.5384 13.4888 70.04 13.4888C70.5042 13.4888 70.9385 13.3989 71.3428 13.2192C71.7546 13.0321 72.1177 12.7812 72.4321 12.4668C72.7541 12.1449 73.0086 11.7817 73.1958 11.3774C73.3905 10.9731 73.5028 10.5501 73.5327 10.1084H74.521C74.521 10.7298 74.3975 11.3438 74.1504 11.9502C73.9108 12.5492 73.5739 13.0957 73.1396 13.5898C72.7054 14.084 72.1963 14.4808 71.6123 14.7803C71.0283 15.0723 70.3919 15.2183 69.7031 15.2183C68.8945 15.2183 68.1945 15.061 67.603 14.7466C67.0116 14.4321 66.5249 14.0129 66.1431 13.4888C65.7687 12.9647 65.488 12.3807 65.3008 11.7368C65.1211 11.0854 65.0312 10.4266 65.0312 9.76025C65.0312 8.98161 65.1398 8.25163 65.3569 7.57031C65.5741 6.889 65.896 6.29004 66.3228 5.77344C66.7495 5.24935 67.2773 4.84131 67.9062 4.54932C68.5426 4.25732 69.2764 4.11133 70.1074 4.11133C71.0433 4.11133 71.8407 4.2985 72.4995 4.67285C73.1584 5.0472 73.6937 5.54883 74.1055 6.17773C74.5247 6.80664 74.8317 7.51416 75.0264 8.30029C75.221 9.08643 75.3184 9.89502 75.3184 10.7261V11.4785C75.3184 12.3245 75.2622 13.1855 75.1499 14.0615C75.0451 14.93 74.8392 15.7611 74.5322 16.5547C74.2327 17.3483 73.7948 18.0596 73.2183 18.6885C72.6418 19.3099 71.8893 19.804 70.9609 20.1709C70.04 20.5303 68.902 20.71 67.5469 20.71H67.3335V18.9468ZM88.4692 11.209V13.7021C88.4692 15.0423 88.3494 16.1729 88.1099 17.0938C87.8703 18.0146 87.5259 18.7559 87.0767 19.3174C86.6274 19.8789 86.0846 20.2869 85.4482 20.5415C84.8193 20.7886 84.1081 20.9121 83.3145 20.9121C82.6855 20.9121 82.1053 20.8335 81.5737 20.6763C81.0422 20.519 80.563 20.2682 80.1362 19.9238C79.717 19.5719 79.3576 19.1152 79.0581 18.5537C78.7586 17.9922 78.5303 17.3109 78.373 16.5098C78.2158 15.7087 78.1372 14.7728 78.1372 13.7021V11.209C78.1372 9.86882 78.257 8.74577 78.4966 7.83984C78.7437 6.93392 79.0918 6.20768 79.541 5.66113C79.9902 5.1071 80.5293 4.71029 81.1582 4.4707C81.7946 4.23112 82.5059 4.11133 83.292 4.11133C83.9284 4.11133 84.5124 4.18994 85.0439 4.34717C85.583 4.49691 86.0622 4.74023 86.4814 5.07715C86.9007 5.40658 87.2563 5.84831 87.5483 6.40234C87.8478 6.94889 88.0762 7.61898 88.2334 8.4126C88.3906 9.20622 88.4692 10.1383 88.4692 11.209ZM86.3804 14.0391V10.8608C86.3804 10.1271 86.3354 9.48324 86.2456 8.9292C86.1632 8.36768 86.0397 7.88851 85.875 7.4917C85.7103 7.09489 85.5007 6.77295 85.2461 6.52588C84.999 6.27881 84.7108 6.09912 84.3813 5.98682C84.0594 5.86702 83.6963 5.80713 83.292 5.80713C82.7979 5.80713 82.3599 5.90072 81.978 6.08789C81.5962 6.26758 81.2743 6.55583 81.0122 6.95264C80.7576 7.34945 80.563 7.86979 80.4282 8.51367C80.2935 9.15755 80.2261 9.93994 80.2261 10.8608V14.0391C80.2261 14.7728 80.2673 15.4204 80.3496 15.9819C80.4395 16.5435 80.5705 17.0301 80.7427 17.4419C80.9149 17.8462 81.1245 18.1794 81.3716 18.4414C81.6187 18.7035 81.9032 18.8981 82.2251 19.0254C82.5545 19.1452 82.9176 19.2051 83.3145 19.2051C83.8236 19.2051 84.269 19.1077 84.6509 18.9131C85.0327 18.7184 85.3509 18.4152 85.6055 18.0034C85.8675 17.5841 86.0622 17.0488 86.1895 16.3975C86.3167 15.7386 86.3804 14.9525 86.3804 14.0391ZM101.407 11.209V13.7021C101.407 15.0423 101.287 16.1729 101.047 17.0938C100.808 18.0146 100.463 18.7559 100.014 19.3174C99.5649 19.8789 99.0221 20.2869 98.3857 20.5415C97.7568 20.7886 97.0456 20.9121 96.252 20.9121C95.623 20.9121 95.0428 20.8335 94.5112 20.6763C93.9797 20.519 93.5005 20.2682 93.0737 19.9238C92.6545 19.5719 92.2951 19.1152 91.9956 18.5537C91.6961 17.9922 91.4678 17.3109 91.3105 16.5098C91.1533 15.7087 91.0747 14.7728 91.0747 13.7021V11.209C91.0747 9.86882 91.1945 8.74577 91.4341 7.83984C91.6812 6.93392 92.0293 6.20768 92.4785 5.66113C92.9277 5.1071 93.4668 4.71029 94.0957 4.4707C94.7321 4.23112 95.4434 4.11133 96.2295 4.11133C96.8659 4.11133 97.4499 4.18994 97.9814 4.34717C98.5205 4.49691 98.9997 4.74023 99.4189 5.07715C99.8382 5.40658 100.194 5.84831 100.486 6.40234C100.785 6.94889 101.014 7.61898 101.171 8.4126C101.328 9.20622 101.407 10.1383 101.407 11.209ZM99.3179 14.0391V10.8608C99.3179 10.1271 99.2729 9.48324 99.1831 8.9292C99.1007 8.36768 98.9772 7.88851 98.8125 7.4917C98.6478 7.09489 98.4382 6.77295 98.1836 6.52588C97.9365 6.27881 97.6483 6.09912 97.3188 5.98682C96.9969 5.86702 96.6338 5.80713 96.2295 5.80713C95.7354 5.80713 95.2974 5.90072 94.9155 6.08789C94.5337 6.26758 94.2118 6.55583 93.9497 6.95264C93.6951 7.34945 93.5005 7.86979 93.3657 8.51367C93.231 9.15755 93.1636 9.93994 93.1636 10.8608V14.0391C93.1636 14.7728 93.2048 15.4204 93.2871 15.9819C93.377 16.5435 93.508 17.0301 93.6802 17.4419C93.8524 17.8462 94.062 18.1794 94.3091 18.4414C94.5562 18.7035 94.8407 18.8981 95.1626 19.0254C95.492 19.1452 95.8551 19.2051 96.252 19.2051C96.7611 19.2051 97.2065 19.1077 97.5884 18.9131C97.9702 18.7184 98.2884 18.4152 98.543 18.0034C98.805 17.5841 98.9997 17.0488 99.127 16.3975C99.2542 15.7386 99.3179 14.9525 99.3179 14.0391Z" fill="#333333"/>
<path d="M116.985 12.0889H117.888C118.33 12.0889 118.694 12.016 118.981 11.8701C119.273 11.7197 119.49 11.5169 119.631 11.2617C119.777 11.002 119.85 10.7103 119.85 10.3867C119.85 10.0039 119.786 9.68262 119.658 9.42285C119.531 9.16309 119.339 8.96712 119.084 8.83496C118.829 8.7028 118.505 8.63672 118.113 8.63672C117.758 8.63672 117.443 8.70736 117.17 8.84863C116.901 8.98535 116.689 9.18132 116.534 9.43652C116.384 9.69173 116.309 9.99251 116.309 10.3389H115.044C115.044 9.83301 115.172 9.37272 115.427 8.95801C115.682 8.54329 116.04 8.21289 116.5 7.9668C116.965 7.7207 117.503 7.59766 118.113 7.59766C118.715 7.59766 119.241 7.70475 119.692 7.91895C120.144 8.12858 120.494 8.44303 120.745 8.8623C120.996 9.27702 121.121 9.79427 121.121 10.4141C121.121 10.6647 121.062 10.9336 120.943 11.2207C120.829 11.5033 120.649 11.7676 120.403 12.0137C120.162 12.2598 119.847 12.4626 119.46 12.6221C119.073 12.777 118.608 12.8545 118.065 12.8545H116.985V12.0889ZM116.985 13.1279V12.3691H118.065C118.699 12.3691 119.223 12.4443 119.638 12.5947C120.052 12.7451 120.378 12.9456 120.615 13.1963C120.857 13.4469 121.025 13.7227 121.121 14.0234C121.221 14.3197 121.271 14.6159 121.271 14.9121C121.271 15.377 121.192 15.7894 121.032 16.1494C120.877 16.5094 120.656 16.8148 120.369 17.0654C120.087 17.3161 119.754 17.5052 119.371 17.6328C118.988 17.7604 118.571 17.8242 118.12 17.8242C117.687 17.8242 117.279 17.7627 116.896 17.6396C116.518 17.5166 116.183 17.3389 115.892 17.1064C115.6 16.8695 115.372 16.5801 115.208 16.2383C115.044 15.8919 114.962 15.4977 114.962 15.0557H116.227C116.227 15.402 116.302 15.7051 116.452 15.9648C116.607 16.2246 116.826 16.4274 117.108 16.5732C117.396 16.7145 117.733 16.7852 118.12 16.7852C118.507 16.7852 118.84 16.7191 119.118 16.5869C119.401 16.4502 119.617 16.2451 119.768 15.9717C119.923 15.6982 120 15.3542 120 14.9395C120 14.5247 119.913 14.1852 119.74 13.9209C119.567 13.652 119.321 13.4538 119.002 13.3262C118.688 13.194 118.316 13.1279 117.888 13.1279H116.985ZM129.536 16.6484V17.6875H123.021V16.7783L126.282 13.1484C126.683 12.7018 126.993 12.3236 127.212 12.0137C127.435 11.6992 127.59 11.4189 127.677 11.1729C127.768 10.9222 127.813 10.667 127.813 10.4072C127.813 10.0791 127.745 9.78288 127.608 9.51855C127.476 9.24967 127.28 9.03548 127.021 8.87598C126.761 8.71647 126.446 8.63672 126.077 8.63672C125.635 8.63672 125.266 8.72331 124.97 8.89648C124.678 9.0651 124.459 9.30208 124.313 9.60742C124.168 9.91276 124.095 10.2637 124.095 10.6602H122.83C122.83 10.0996 122.953 9.58691 123.199 9.12207C123.445 8.65723 123.81 8.28809 124.293 8.01465C124.776 7.73665 125.371 7.59766 126.077 7.59766C126.706 7.59766 127.244 7.70931 127.69 7.93262C128.137 8.15137 128.479 8.46126 128.716 8.8623C128.957 9.25879 129.078 9.72363 129.078 10.2568C129.078 10.5485 129.028 10.8447 128.928 11.1455C128.832 11.4417 128.698 11.738 128.524 12.0342C128.356 12.3304 128.158 12.6221 127.93 12.9092C127.706 13.1963 127.467 13.4788 127.212 13.7568L124.546 16.6484H129.536ZM130.78 10.1748V9.64844C130.78 9.27018 130.862 8.92611 131.026 8.61621C131.19 8.30632 131.425 8.05794 131.73 7.87109C132.036 7.68424 132.398 7.59082 132.817 7.59082C133.246 7.59082 133.61 7.68424 133.911 7.87109C134.216 8.05794 134.451 8.30632 134.615 8.61621C134.779 8.92611 134.861 9.27018 134.861 9.64844V10.1748C134.861 10.5439 134.779 10.8835 134.615 11.1934C134.456 11.5033 134.223 11.7516 133.918 11.9385C133.617 12.1253 133.255 12.2188 132.831 12.2188C132.407 12.2188 132.04 12.1253 131.73 11.9385C131.425 11.7516 131.19 11.5033 131.026 11.1934C130.862 10.8835 130.78 10.5439 130.78 10.1748ZM131.73 9.64844V10.1748C131.73 10.3844 131.769 10.5827 131.847 10.7695C131.929 10.9564 132.052 11.109 132.216 11.2275C132.38 11.3415 132.585 11.3984 132.831 11.3984C133.077 11.3984 133.28 11.3415 133.439 11.2275C133.599 11.109 133.717 10.9564 133.795 10.7695C133.872 10.5827 133.911 10.3844 133.911 10.1748V9.64844C133.911 9.43424 133.87 9.23372 133.788 9.04688C133.711 8.85547 133.59 8.7028 133.426 8.58887C133.266 8.47038 133.063 8.41113 132.817 8.41113C132.576 8.41113 132.373 8.47038 132.209 8.58887C132.049 8.7028 131.929 8.85547 131.847 9.04688C131.769 9.23372 131.73 9.43424 131.73 9.64844ZM135.627 15.7803V15.2471C135.627 14.8734 135.709 14.5316 135.873 14.2217C136.037 13.9118 136.272 13.6634 136.577 13.4766C136.882 13.2897 137.245 13.1963 137.664 13.1963C138.092 13.1963 138.457 13.2897 138.758 13.4766C139.063 13.6634 139.298 13.9118 139.462 14.2217C139.626 14.5316 139.708 14.8734 139.708 15.2471V15.7803C139.708 16.154 139.626 16.4958 139.462 16.8057C139.302 17.1156 139.07 17.3639 138.765 17.5508C138.464 17.7376 138.102 17.8311 137.678 17.8311C137.254 17.8311 136.889 17.7376 136.584 17.5508C136.279 17.3639 136.042 17.1156 135.873 16.8057C135.709 16.4958 135.627 16.154 135.627 15.7803ZM136.577 15.2471V15.7803C136.577 15.9899 136.616 16.1904 136.693 16.3818C136.775 16.5687 136.898 16.7214 137.062 16.8398C137.227 16.9538 137.432 17.0107 137.678 17.0107C137.924 17.0107 138.127 16.9538 138.286 16.8398C138.45 16.7214 138.571 16.5687 138.648 16.3818C138.726 16.195 138.765 15.9945 138.765 15.7803V15.2471C138.765 15.0329 138.724 14.8324 138.642 14.6455C138.564 14.4587 138.443 14.3083 138.279 14.1943C138.12 14.0758 137.915 14.0166 137.664 14.0166C137.423 14.0166 137.22 14.0758 137.056 14.1943C136.896 14.3083 136.775 14.4587 136.693 14.6455C136.616 14.8324 136.577 15.0329 136.577 15.2471ZM137.979 9.14941L133.118 16.9287L132.407 16.4775L137.268 8.69824L137.979 9.14941ZM152.607 12.3965V13.0254C152.607 13.7728 152.514 14.4427 152.327 15.0352C152.14 15.6276 151.871 16.1312 151.521 16.5459C151.17 16.9606 150.748 17.2773 150.256 17.4961C149.768 17.7148 149.221 17.8242 148.615 17.8242C148.027 17.8242 147.487 17.7148 146.995 17.4961C146.507 17.2773 146.084 16.9606 145.724 16.5459C145.368 16.1312 145.092 15.6276 144.896 15.0352C144.701 14.4427 144.603 13.7728 144.603 13.0254V12.3965C144.603 11.6491 144.698 10.9814 144.89 10.3936C145.086 9.80111 145.361 9.29753 145.717 8.88281C146.072 8.46354 146.494 8.14453 146.981 7.92578C147.474 7.70703 148.014 7.59766 148.602 7.59766C149.208 7.59766 149.755 7.70703 150.242 7.92578C150.734 8.14453 151.156 8.46354 151.507 8.88281C151.862 9.29753 152.133 9.80111 152.32 10.3936C152.512 10.9814 152.607 11.6491 152.607 12.3965ZM151.302 13.0254V12.3828C151.302 11.7904 151.24 11.2663 151.117 10.8105C150.999 10.3548 150.823 9.97201 150.591 9.66211C150.358 9.35221 150.074 9.11751 149.736 8.95801C149.404 8.7985 149.025 8.71875 148.602 8.71875C148.191 8.71875 147.82 8.7985 147.487 8.95801C147.159 9.11751 146.877 9.35221 146.64 9.66211C146.407 9.97201 146.227 10.3548 146.1 10.8105C145.972 11.2663 145.908 11.7904 145.908 12.3828V13.0254C145.908 13.6224 145.972 14.151 146.1 14.6113C146.227 15.0671 146.41 15.4521 146.646 15.7666C146.888 16.0765 147.173 16.3112 147.501 16.4707C147.834 16.6302 148.205 16.71 148.615 16.71C149.044 16.71 149.424 16.6302 149.757 16.4707C150.09 16.3112 150.37 16.0765 150.598 15.7666C150.83 15.4521 151.006 15.0671 151.124 14.6113C151.243 14.151 151.302 13.6224 151.302 13.0254ZM155.902 7.73438V17.6875H154.583V7.73438H155.902ZM160.072 12.2119V13.292H155.615V12.2119H160.072ZM160.749 7.73438V8.81445H155.615V7.73438H160.749ZM163.641 7.73438V17.6875H162.321V7.73438H163.641ZM167.811 12.2119V13.292H163.354V12.2119H167.811ZM168.487 7.73438V8.81445H163.354V7.73438H168.487Z" fill="#00A650"/>
</svg>
