<svg width="224" height="132" viewBox="0 0 224 132" fill="none" xmlns="http://www.w3.org/2000/svg">
<g clip-path="url(#clip0_1_138)">
<path d="M23.8984 19.8594V23.4336H22.1406V19.8594H23.8984ZM23.6875 38.9961V42.125H21.9414V38.9961H23.6875ZM26.0312 35.293C26.0312 34.8242 25.9258 34.4023 25.7148 34.0273C25.5039 33.6523 25.1562 33.3086 24.6719 32.9961C24.1875 32.6836 23.5391 32.3945 22.7266 32.1289C21.7422 31.8242 20.8906 31.4531 20.1719 31.0156C19.4609 30.5781 18.9102 30.0352 18.5195 29.3867C18.1367 28.7383 17.9453 27.9531 17.9453 27.0312C17.9453 26.0703 18.1523 25.2422 18.5664 24.5469C18.9805 23.8516 19.5664 23.3164 20.3242 22.9414C21.082 22.5664 21.9727 22.3789 22.9961 22.3789C23.793 22.3789 24.5039 22.5 25.1289 22.7422C25.7539 22.9766 26.2812 23.3281 26.7109 23.7969C27.1484 24.2656 27.4805 24.8398 27.707 25.5195C27.9414 26.1992 28.0586 26.9844 28.0586 27.875H25.9023C25.9023 27.3516 25.8398 26.8711 25.7148 26.4336C25.5898 25.9961 25.4023 25.6172 25.1523 25.2969C24.9023 24.9688 24.5977 24.7188 24.2383 24.5469C23.8789 24.3672 23.4648 24.2773 22.9961 24.2773C22.3398 24.2773 21.7969 24.3906 21.3672 24.6172C20.9453 24.8438 20.6328 25.1641 20.4297 25.5781C20.2266 25.9844 20.125 26.457 20.125 26.9961C20.125 27.4961 20.2266 27.9336 20.4297 28.3086C20.6328 28.6836 20.9766 29.0234 21.4609 29.3281C21.9531 29.625 22.6289 29.918 23.4883 30.207C24.4961 30.5273 25.3516 30.9062 26.0547 31.3438C26.7578 31.7734 27.293 32.3047 27.6602 32.9375C28.0273 33.5625 28.2109 34.3398 28.2109 35.2695C28.2109 36.2773 27.9844 37.1289 27.5312 37.8242C27.0781 38.5117 26.4414 39.0352 25.6211 39.3945C24.8008 39.7539 23.8398 39.9336 22.7383 39.9336C22.0742 39.9336 21.418 39.8438 20.7695 39.6641C20.1211 39.4844 19.5352 39.1914 19.0117 38.7852C18.4883 38.3711 18.0703 37.8281 17.7578 37.1562C17.4453 36.4766 17.2891 35.6445 17.2891 34.6602H19.4688C19.4688 35.3242 19.5625 35.875 19.75 36.3125C19.9453 36.7422 20.2031 37.0859 20.5234 37.3438C20.8438 37.5938 21.1953 37.7734 21.5781 37.8828C21.9688 37.9844 22.3555 38.0352 22.7383 38.0352C23.4414 38.0352 24.0352 37.9258 24.5195 37.707C25.0117 37.4805 25.3867 37.1602 25.6445 36.7461C25.9023 36.332 26.0312 35.8477 26.0312 35.293Z" fill="#333333"/>
<path d="M47.104 37.9805V39.6875H36.4014V38.1938L41.7583 32.2305C42.4172 31.4967 42.9263 30.8753 43.2856 30.3662C43.6525 29.8496 43.9071 29.3892 44.0493 28.9849C44.1991 28.5731 44.2739 28.1538 44.2739 27.7271C44.2739 27.188 44.1616 26.7013 43.937 26.2671C43.7199 25.8254 43.3979 25.4735 42.9712 25.2114C42.5444 24.9494 42.0278 24.8184 41.4214 24.8184C40.6951 24.8184 40.0887 24.9606 39.6021 25.2451C39.1229 25.5221 38.7635 25.9115 38.5239 26.4131C38.2843 26.9147 38.1646 27.4912 38.1646 28.1426H36.0869C36.0869 27.2217 36.2891 26.3794 36.6934 25.6157C37.0977 24.8521 37.6966 24.2456 38.4902 23.7964C39.2839 23.3397 40.2609 23.1113 41.4214 23.1113C42.4546 23.1113 43.3381 23.2948 44.0718 23.6616C44.8055 24.021 45.367 24.5301 45.7563 25.189C46.1532 25.8403 46.3516 26.604 46.3516 27.48C46.3516 27.9591 46.2692 28.4458 46.1045 28.9399C45.9473 29.4266 45.7264 29.9132 45.4419 30.3999C45.1649 30.8866 44.8392 31.3657 44.4648 31.8374C44.098 32.3091 43.7049 32.7733 43.2856 33.23L38.9058 37.9805H47.104ZM56.1558 23.2461V39.6875H54.0781V25.8403L49.8892 27.3677V25.4922L55.8301 23.2461H56.1558ZM72.5298 30.209V32.7021C72.5298 34.0423 72.41 35.1729 72.1704 36.0938C71.9308 37.0146 71.5864 37.7559 71.1372 38.3174C70.688 38.8789 70.1452 39.2869 69.5088 39.5415C68.8799 39.7886 68.1686 39.9121 67.375 39.9121C66.7461 39.9121 66.1659 39.8335 65.6343 39.6763C65.1027 39.519 64.6235 39.2682 64.1968 38.9238C63.7775 38.5719 63.4181 38.1152 63.1187 37.5537C62.8192 36.9922 62.5908 36.3109 62.4336 35.5098C62.2764 34.7087 62.1978 33.7728 62.1978 32.7021V30.209C62.1978 28.8688 62.3175 27.7458 62.5571 26.8398C62.8042 25.9339 63.1523 25.2077 63.6016 24.6611C64.0508 24.1071 64.5898 23.7103 65.2188 23.4707C65.8551 23.2311 66.5664 23.1113 67.3525 23.1113C67.9889 23.1113 68.5729 23.1899 69.1045 23.3472C69.6436 23.4969 70.1227 23.7402 70.542 24.0771C70.9613 24.4066 71.3169 24.8483 71.6089 25.4023C71.9084 25.9489 72.1367 26.619 72.2939 27.4126C72.4512 28.2062 72.5298 29.1383 72.5298 30.209ZM70.4409 33.0391V29.8608C70.4409 29.1271 70.396 28.4832 70.3062 27.9292C70.2238 27.3677 70.1003 26.8885 69.9355 26.4917C69.7708 26.0949 69.5612 25.7729 69.3066 25.5259C69.0596 25.2788 68.7713 25.0991 68.4419 24.9868C68.12 24.867 67.7568 24.8071 67.3525 24.8071C66.8584 24.8071 66.4204 24.9007 66.0386 25.0879C65.6567 25.2676 65.3348 25.5558 65.0728 25.9526C64.8182 26.3494 64.6235 26.8698 64.4888 27.5137C64.354 28.1576 64.2866 28.9399 64.2866 29.8608V33.0391C64.2866 33.7728 64.3278 34.4204 64.4102 34.9819C64.5 35.5435 64.631 36.0301 64.8032 36.4419C64.9754 36.8462 65.1851 37.1794 65.4321 37.4414C65.6792 37.7035 65.9637 37.8981 66.2856 38.0254C66.6151 38.1452 66.9782 38.2051 67.375 38.2051C67.8841 38.2051 68.3296 38.1077 68.7114 37.9131C69.0933 37.7184 69.4115 37.4152 69.666 37.0034C69.9281 36.5841 70.1227 36.0488 70.25 35.3975C70.3773 34.7386 70.4409 33.9525 70.4409 33.0391ZM75.4609 38.5869C75.4609 38.235 75.5695 37.9393 75.7866 37.6997C76.0112 37.4526 76.3332 37.3291 76.7524 37.3291C77.1717 37.3291 77.4899 37.4526 77.707 37.6997C77.9316 37.9393 78.0439 38.235 78.0439 38.5869C78.0439 38.9313 77.9316 39.2233 77.707 39.4629C77.4899 39.7025 77.1717 39.8223 76.7524 39.8223C76.3332 39.8223 76.0112 39.7025 75.7866 39.4629C75.5695 39.2233 75.4609 38.9313 75.4609 38.5869ZM83.3335 37.9468H83.5469C84.7448 37.9468 85.7181 37.7783 86.4668 37.4414C87.2155 37.1045 87.792 36.6515 88.1963 36.0825C88.6006 35.5135 88.8776 34.8734 89.0273 34.1621C89.1771 33.4434 89.252 32.7059 89.252 31.9497V29.4453C89.252 28.7041 89.1659 28.0452 88.9937 27.4688C88.8289 26.8923 88.5968 26.4093 88.2974 26.02C88.0054 25.6307 87.6722 25.335 87.2979 25.1328C86.9235 24.9307 86.5267 24.8296 86.1074 24.8296C85.6283 24.8296 85.1978 24.9269 84.8159 25.1216C84.4416 25.3088 84.1234 25.5745 83.8613 25.9189C83.6068 26.2633 83.4121 26.6676 83.2773 27.1318C83.1426 27.596 83.0752 28.1014 83.0752 28.6479C83.0752 29.1346 83.1351 29.6063 83.2549 30.063C83.3747 30.5197 83.5581 30.9315 83.8052 31.2983C84.0522 31.6652 84.3592 31.9572 84.7261 32.1743C85.1004 32.384 85.5384 32.4888 86.04 32.4888C86.5042 32.4888 86.9385 32.3989 87.3428 32.2192C87.7546 32.0321 88.1177 31.7812 88.4321 31.4668C88.7541 31.1449 89.0086 30.7817 89.1958 30.3774C89.3905 29.9731 89.5028 29.5501 89.5327 29.1084H90.521C90.521 29.7298 90.3975 30.3438 90.1504 30.9502C89.9108 31.5492 89.5739 32.0957 89.1396 32.5898C88.7054 33.084 88.1963 33.4808 87.6123 33.7803C87.0283 34.0723 86.3919 34.2183 85.7031 34.2183C84.8945 34.2183 84.1945 34.061 83.603 33.7466C83.0116 33.4321 82.5249 33.0129 82.1431 32.4888C81.7687 31.9647 81.488 31.3807 81.3008 30.7368C81.1211 30.0854 81.0312 29.4266 81.0312 28.7603C81.0312 27.9816 81.1398 27.2516 81.3569 26.5703C81.5741 25.889 81.896 25.29 82.3228 24.7734C82.7495 24.2493 83.2773 23.8413 83.9062 23.5493C84.5426 23.2573 85.2764 23.1113 86.1074 23.1113C87.0433 23.1113 87.8407 23.2985 88.4995 23.6729C89.1584 24.0472 89.6937 24.5488 90.1055 25.1777C90.5247 25.8066 90.8317 26.5142 91.0264 27.3003C91.221 28.0864 91.3184 28.895 91.3184 29.7261V30.4785C91.3184 31.3245 91.2622 32.1855 91.1499 33.0615C91.0451 33.93 90.8392 34.7611 90.5322 35.5547C90.2327 36.3483 89.7948 37.0596 89.2183 37.6885C88.6418 38.3099 87.8893 38.804 86.9609 39.1709C86.04 39.5303 84.902 39.71 83.5469 39.71H83.3335V37.9468ZM104.469 30.209V32.7021C104.469 34.0423 104.349 35.1729 104.11 36.0938C103.87 37.0146 103.526 37.7559 103.077 38.3174C102.627 38.8789 102.085 39.2869 101.448 39.5415C100.819 39.7886 100.108 39.9121 99.3145 39.9121C98.6855 39.9121 98.1053 39.8335 97.5737 39.6763C97.0422 39.519 96.563 39.2682 96.1362 38.9238C95.717 38.5719 95.3576 38.1152 95.0581 37.5537C94.7586 36.9922 94.5303 36.3109 94.373 35.5098C94.2158 34.7087 94.1372 33.7728 94.1372 32.7021V30.209C94.1372 28.8688 94.257 27.7458 94.4966 26.8398C94.7437 25.9339 95.0918 25.2077 95.541 24.6611C95.9902 24.1071 96.5293 23.7103 97.1582 23.4707C97.7946 23.2311 98.5059 23.1113 99.292 23.1113C99.9284 23.1113 100.512 23.1899 101.044 23.3472C101.583 23.4969 102.062 23.7402 102.481 24.0771C102.901 24.4066 103.256 24.8483 103.548 25.4023C103.848 25.9489 104.076 26.619 104.233 27.4126C104.391 28.2062 104.469 29.1383 104.469 30.209ZM102.38 33.0391V29.8608C102.38 29.1271 102.335 28.4832 102.246 27.9292C102.163 27.3677 102.04 26.8885 101.875 26.4917C101.71 26.0949 101.501 25.7729 101.246 25.5259C100.999 25.2788 100.711 25.0991 100.381 24.9868C100.059 24.867 99.6963 24.8071 99.292 24.8071C98.7979 24.8071 98.3599 24.9007 97.978 25.0879C97.5962 25.2676 97.2743 25.5558 97.0122 25.9526C96.7576 26.3494 96.563 26.8698 96.4282 27.5137C96.2935 28.1576 96.2261 28.9399 96.2261 29.8608V33.0391C96.2261 33.7728 96.2673 34.4204 96.3496 34.9819C96.4395 35.5435 96.5705 36.0301 96.7427 36.4419C96.9149 36.8462 97.1245 37.1794 97.3716 37.4414C97.6187 37.7035 97.9032 37.8981 98.2251 38.0254C98.5545 38.1452 98.9176 38.2051 99.3145 38.2051C99.8236 38.2051 100.269 38.1077 100.651 37.9131C101.033 37.7184 101.351 37.4152 101.605 37.0034C101.868 36.5841 102.062 36.0488 102.189 35.3975C102.317 34.7386 102.38 33.9525 102.38 33.0391ZM117.407 30.209V32.7021C117.407 34.0423 117.287 35.1729 117.047 36.0938C116.808 37.0146 116.463 37.7559 116.014 38.3174C115.565 38.8789 115.022 39.2869 114.386 39.5415C113.757 39.7886 113.046 39.9121 112.252 39.9121C111.623 39.9121 111.043 39.8335 110.511 39.6763C109.98 39.519 109.5 39.2682 109.074 38.9238C108.654 38.5719 108.295 38.1152 107.996 37.5537C107.696 36.9922 107.468 36.3109 107.311 35.5098C107.153 34.7087 107.075 33.7728 107.075 32.7021V30.209C107.075 28.8688 107.194 27.7458 107.434 26.8398C107.681 25.9339 108.029 25.2077 108.479 24.6611C108.928 24.1071 109.467 23.7103 110.096 23.4707C110.732 23.2311 111.443 23.1113 112.229 23.1113C112.866 23.1113 113.45 23.1899 113.981 23.3472C114.521 23.4969 115 23.7402 115.419 24.0771C115.838 24.4066 116.194 24.8483 116.486 25.4023C116.785 25.9489 117.014 26.619 117.171 27.4126C117.328 28.2062 117.407 29.1383 117.407 30.209ZM115.318 33.0391V29.8608C115.318 29.1271 115.273 28.4832 115.183 27.9292C115.101 27.3677 114.977 26.8885 114.812 26.4917C114.648 26.0949 114.438 25.7729 114.184 25.5259C113.937 25.2788 113.648 25.0991 113.319 24.9868C112.997 24.867 112.634 24.8071 112.229 24.8071C111.735 24.8071 111.297 24.9007 110.916 25.0879C110.534 25.2676 110.212 25.5558 109.95 25.9526C109.695 26.3494 109.5 26.8698 109.366 27.5137C109.231 28.1576 109.164 28.9399 109.164 29.8608V33.0391C109.164 33.7728 109.205 34.4204 109.287 34.9819C109.377 35.5435 109.508 36.0301 109.68 36.4419C109.852 36.8462 110.062 37.1794 110.309 37.4414C110.556 37.7035 110.841 37.8981 111.163 38.0254C111.492 38.1452 111.855 38.2051 112.252 38.2051C112.761 38.2051 113.207 38.1077 113.588 37.9131C113.97 37.7184 114.288 37.4152 114.543 37.0034C114.805 36.5841 115 36.0488 115.127 35.3975C115.254 34.7386 115.318 33.9525 115.318 33.0391Z" fill="#333333"/>
<path d="M132.985 31.0889H133.888C134.33 31.0889 134.694 31.016 134.981 30.8701C135.273 30.7197 135.49 30.5169 135.631 30.2617C135.777 30.002 135.85 29.7103 135.85 29.3867C135.85 29.0039 135.786 28.6826 135.658 28.4229C135.531 28.1631 135.339 27.9671 135.084 27.835C134.829 27.7028 134.505 27.6367 134.113 27.6367C133.758 27.6367 133.443 27.7074 133.17 27.8486C132.901 27.9854 132.689 28.1813 132.534 28.4365C132.384 28.6917 132.309 28.9925 132.309 29.3389H131.044C131.044 28.833 131.172 28.3727 131.427 27.958C131.682 27.5433 132.04 27.2129 132.5 26.9668C132.965 26.7207 133.503 26.5977 134.113 26.5977C134.715 26.5977 135.241 26.7048 135.692 26.9189C136.144 27.1286 136.494 27.443 136.745 27.8623C136.996 28.277 137.121 28.7943 137.121 29.4141C137.121 29.6647 137.062 29.9336 136.943 30.2207C136.829 30.5033 136.649 30.7676 136.403 31.0137C136.162 31.2598 135.847 31.4626 135.46 31.6221C135.073 31.777 134.608 31.8545 134.065 31.8545H132.985V31.0889ZM132.985 32.1279V31.3691H134.065C134.699 31.3691 135.223 31.4443 135.638 31.5947C136.052 31.7451 136.378 31.9456 136.615 32.1963C136.857 32.4469 137.025 32.7227 137.121 33.0234C137.221 33.3197 137.271 33.6159 137.271 33.9121C137.271 34.377 137.192 34.7894 137.032 35.1494C136.877 35.5094 136.656 35.8148 136.369 36.0654C136.087 36.3161 135.754 36.5052 135.371 36.6328C134.988 36.7604 134.571 36.8242 134.12 36.8242C133.687 36.8242 133.279 36.7627 132.896 36.6396C132.518 36.5166 132.183 36.3389 131.892 36.1064C131.6 35.8695 131.372 35.5801 131.208 35.2383C131.044 34.8919 130.962 34.4977 130.962 34.0557H132.227C132.227 34.402 132.302 34.7051 132.452 34.9648C132.607 35.2246 132.826 35.4274 133.108 35.5732C133.396 35.7145 133.733 35.7852 134.12 35.7852C134.507 35.7852 134.84 35.7191 135.118 35.5869C135.401 35.4502 135.617 35.2451 135.768 34.9717C135.923 34.6982 136 34.3542 136 33.9395C136 33.5247 135.913 33.1852 135.74 32.9209C135.567 32.652 135.321 32.4538 135.002 32.3262C134.688 32.194 134.316 32.1279 133.888 32.1279H132.985ZM145.536 35.6484V36.6875H139.021V35.7783L142.282 32.1484C142.683 31.7018 142.993 31.3236 143.212 31.0137C143.435 30.6992 143.59 30.4189 143.677 30.1729C143.768 29.9222 143.813 29.667 143.813 29.4072C143.813 29.0791 143.745 28.7829 143.608 28.5186C143.476 28.2497 143.28 28.0355 143.021 27.876C142.761 27.7165 142.446 27.6367 142.077 27.6367C141.635 27.6367 141.266 27.7233 140.97 27.8965C140.678 28.0651 140.459 28.3021 140.313 28.6074C140.168 28.9128 140.095 29.2637 140.095 29.6602H138.83C138.83 29.0996 138.953 28.5869 139.199 28.1221C139.445 27.6572 139.81 27.2881 140.293 27.0146C140.776 26.7367 141.371 26.5977 142.077 26.5977C142.706 26.5977 143.244 26.7093 143.69 26.9326C144.137 27.1514 144.479 27.4613 144.716 27.8623C144.957 28.2588 145.078 28.7236 145.078 29.2568C145.078 29.5485 145.028 29.8447 144.928 30.1455C144.832 30.4417 144.698 30.738 144.524 31.0342C144.356 31.3304 144.158 31.6221 143.93 31.9092C143.706 32.1963 143.467 32.4788 143.212 32.7568L140.546 35.6484H145.536ZM146.78 29.1748V28.6484C146.78 28.2702 146.862 27.9261 147.026 27.6162C147.19 27.3063 147.425 27.0579 147.73 26.8711C148.036 26.6842 148.398 26.5908 148.817 26.5908C149.246 26.5908 149.61 26.6842 149.911 26.8711C150.216 27.0579 150.451 27.3063 150.615 27.6162C150.779 27.9261 150.861 28.2702 150.861 28.6484V29.1748C150.861 29.5439 150.779 29.8835 150.615 30.1934C150.456 30.5033 150.223 30.7516 149.918 30.9385C149.617 31.1253 149.255 31.2188 148.831 31.2188C148.407 31.2188 148.04 31.1253 147.73 30.9385C147.425 30.7516 147.19 30.5033 147.026 30.1934C146.862 29.8835 146.78 29.5439 146.78 29.1748ZM147.73 28.6484V29.1748C147.73 29.3844 147.769 29.5827 147.847 29.7695C147.929 29.9564 148.052 30.109 148.216 30.2275C148.38 30.3415 148.585 30.3984 148.831 30.3984C149.077 30.3984 149.28 30.3415 149.439 30.2275C149.599 30.109 149.717 29.9564 149.795 29.7695C149.872 29.5827 149.911 29.3844 149.911 29.1748V28.6484C149.911 28.4342 149.87 28.2337 149.788 28.0469C149.711 27.8555 149.59 27.7028 149.426 27.5889C149.266 27.4704 149.063 27.4111 148.817 27.4111C148.576 27.4111 148.373 27.4704 148.209 27.5889C148.049 27.7028 147.929 27.8555 147.847 28.0469C147.769 28.2337 147.73 28.4342 147.73 28.6484ZM151.627 34.7803V34.2471C151.627 33.8734 151.709 33.5316 151.873 33.2217C152.037 32.9118 152.272 32.6634 152.577 32.4766C152.882 32.2897 153.245 32.1963 153.664 32.1963C154.092 32.1963 154.457 32.2897 154.758 32.4766C155.063 32.6634 155.298 32.9118 155.462 33.2217C155.626 33.5316 155.708 33.8734 155.708 34.2471V34.7803C155.708 35.154 155.626 35.4958 155.462 35.8057C155.302 36.1156 155.07 36.3639 154.765 36.5508C154.464 36.7376 154.102 36.8311 153.678 36.8311C153.254 36.8311 152.889 36.7376 152.584 36.5508C152.279 36.3639 152.042 36.1156 151.873 35.8057C151.709 35.4958 151.627 35.154 151.627 34.7803ZM152.577 34.2471V34.7803C152.577 34.9899 152.616 35.1904 152.693 35.3818C152.775 35.5687 152.898 35.7214 153.062 35.8398C153.227 35.9538 153.432 36.0107 153.678 36.0107C153.924 36.0107 154.127 35.9538 154.286 35.8398C154.45 35.7214 154.571 35.5687 154.648 35.3818C154.726 35.195 154.765 34.9945 154.765 34.7803V34.2471C154.765 34.0329 154.724 33.8324 154.642 33.6455C154.564 33.4587 154.443 33.3083 154.279 33.1943C154.12 33.0758 153.915 33.0166 153.664 33.0166C153.423 33.0166 153.22 33.0758 153.056 33.1943C152.896 33.3083 152.775 33.4587 152.693 33.6455C152.616 33.8324 152.577 34.0329 152.577 34.2471ZM153.979 28.1494L149.118 35.9287L148.407 35.4775L153.268 27.6982L153.979 28.1494ZM168.607 31.3965V32.0254C168.607 32.7728 168.514 33.4427 168.327 34.0352C168.14 34.6276 167.871 35.1312 167.521 35.5459C167.17 35.9606 166.748 36.2773 166.256 36.4961C165.768 36.7148 165.221 36.8242 164.615 36.8242C164.027 36.8242 163.487 36.7148 162.995 36.4961C162.507 36.2773 162.084 35.9606 161.724 35.5459C161.368 35.1312 161.092 34.6276 160.896 34.0352C160.701 33.4427 160.603 32.7728 160.603 32.0254V31.3965C160.603 30.6491 160.698 29.9814 160.89 29.3936C161.086 28.8011 161.361 28.2975 161.717 27.8828C162.072 27.4635 162.494 27.1445 162.981 26.9258C163.474 26.707 164.014 26.5977 164.602 26.5977C165.208 26.5977 165.755 26.707 166.242 26.9258C166.734 27.1445 167.156 27.4635 167.507 27.8828C167.862 28.2975 168.133 28.8011 168.32 29.3936C168.512 29.9814 168.607 30.6491 168.607 31.3965ZM167.302 32.0254V31.3828C167.302 30.7904 167.24 30.2663 167.117 29.8105C166.999 29.3548 166.823 28.972 166.591 28.6621C166.358 28.3522 166.074 28.1175 165.736 27.958C165.404 27.7985 165.025 27.7188 164.602 27.7188C164.191 27.7188 163.82 27.7985 163.487 27.958C163.159 28.1175 162.877 28.3522 162.64 28.6621C162.407 28.972 162.227 29.3548 162.1 29.8105C161.972 30.2663 161.908 30.7904 161.908 31.3828V32.0254C161.908 32.6224 161.972 33.151 162.1 33.6113C162.227 34.0671 162.41 34.4521 162.646 34.7666C162.888 35.0765 163.173 35.3112 163.501 35.4707C163.834 35.6302 164.205 35.71 164.615 35.71C165.044 35.71 165.424 35.6302 165.757 35.4707C166.09 35.3112 166.37 35.0765 166.598 34.7666C166.83 34.4521 167.006 34.0671 167.124 33.6113C167.243 33.151 167.302 32.6224 167.302 32.0254ZM171.902 26.7344V36.6875H170.583V26.7344H171.902ZM176.072 31.2119V32.292H171.615V31.2119H176.072ZM176.749 26.7344V27.8145H171.615V26.7344H176.749ZM179.641 26.7344V36.6875H178.321V26.7344H179.641ZM183.811 31.2119V32.292H179.354V31.2119H183.811ZM184.487 26.7344V27.8145H179.354V26.7344H184.487Z" fill="#00A650"/>
<path d="M23.0078 61.3164V62.6875H18.0947V61.3164H23.0078ZM18.6279 53.4453V62.6875H16.8823V53.4453H18.6279ZM22.3667 57.2603V58.5996H18.0947V57.2603H22.3667ZM22.9888 53.4453V54.8228H18.0947V53.4453H22.9888ZM25.7373 57.2856V62.6875H24.0615V55.8193H25.6357L25.7373 57.2856ZM25.4707 59.0059H24.9756C24.9798 58.5065 25.0475 58.0537 25.1787 57.6475C25.3099 57.2412 25.494 56.8921 25.731 56.6001C25.9722 56.3081 26.2578 56.0838 26.5879 55.9272C26.918 55.7707 27.2861 55.6924 27.6924 55.6924C28.0225 55.6924 28.3208 55.7389 28.5874 55.832C28.854 55.9251 29.0825 56.0732 29.2729 56.2764C29.4676 56.4795 29.6157 56.7461 29.7173 57.0762C29.8231 57.402 29.876 57.804 29.876 58.2822V62.6875H28.1875V58.2695C28.1875 57.9564 28.141 57.7088 28.0479 57.5269C27.959 57.3449 27.8278 57.2158 27.6543 57.1396C27.485 57.0635 27.2756 57.0254 27.0259 57.0254C26.7677 57.0254 26.5413 57.0783 26.3467 57.1841C26.1562 57.2856 25.9954 57.4274 25.8643 57.6094C25.7373 57.7913 25.64 58.0008 25.5723 58.2378C25.5046 58.4748 25.4707 58.7308 25.4707 59.0059ZM33.6338 61.418L35.2334 55.8193H36.9854L34.6304 62.6875H33.564L33.6338 61.418ZM32.4658 55.8193L34.0845 61.4307L34.1416 62.6875H33.0688L30.7075 55.8193H32.4658ZM39.6768 55.8193V62.6875H37.9946V55.8193H39.6768ZM38.0264 54.9434L39.2705 53.0137H41.124L39.3911 54.9434H38.0264ZM41.0479 59.3232V59.1899C41.0479 58.6864 41.1198 58.223 41.2637 57.7998C41.4076 57.3724 41.617 57.0021 41.8921 56.689C42.1672 56.3758 42.5036 56.1325 42.9014 55.959C43.2992 55.7812 43.752 55.6924 44.2598 55.6924C44.776 55.6924 45.2331 55.7812 45.6309 55.959C46.0329 56.1325 46.3714 56.3758 46.6465 56.689C46.9215 57.0021 47.131 57.3724 47.2749 57.7998C47.4188 58.223 47.4907 58.6864 47.4907 59.1899V59.3232C47.4907 59.8226 47.4188 60.286 47.2749 60.7134C47.131 61.1366 46.9215 61.5068 46.6465 61.8242C46.3714 62.1374 46.035 62.3807 45.6372 62.5542C45.2394 62.7277 44.7845 62.8145 44.2725 62.8145C43.7646 62.8145 43.3097 62.7277 42.9077 62.5542C42.5057 62.3807 42.1672 62.1374 41.8921 61.8242C41.617 61.5068 41.4076 61.1366 41.2637 60.7134C41.1198 60.286 41.0479 59.8226 41.0479 59.3232ZM42.7236 59.1899V59.3232C42.7236 59.6237 42.7533 59.9051 42.8125 60.1675C42.8717 60.4299 42.9627 60.6605 43.0854 60.8594C43.2082 61.0583 43.3669 61.2148 43.5615 61.3291C43.7604 61.4391 43.9974 61.4941 44.2725 61.4941C44.5433 61.4941 44.776 61.4391 44.9707 61.3291C45.1654 61.2148 45.3241 61.0583 45.4468 60.8594C45.5737 60.6605 45.6668 60.4299 45.7261 60.1675C45.7853 59.9051 45.8149 59.6237 45.8149 59.3232V59.1899C45.8149 58.8937 45.7853 58.6165 45.7261 58.3584C45.6668 58.096 45.5737 57.8654 45.4468 57.6665C45.3241 57.4634 45.1632 57.3047 44.9644 57.1904C44.7697 57.0719 44.5348 57.0127 44.2598 57.0127C43.9889 57.0127 43.7562 57.0719 43.5615 57.1904C43.3669 57.3047 43.2082 57.4634 43.0854 57.6665C42.9627 57.8654 42.8717 58.096 42.8125 58.3584C42.7533 58.6165 42.7236 58.8937 42.7236 59.1899ZM56.314 55.8193H57.8374V62.478C57.8374 63.1001 57.702 63.627 57.4312 64.0586C57.1646 64.4945 56.79 64.8245 56.3076 65.0488C55.8252 65.2773 55.2645 65.3916 54.6255 65.3916C54.3504 65.3916 54.0521 65.3535 53.7305 65.2773C53.4131 65.2012 53.1063 65.0806 52.8101 64.9155C52.5181 64.7547 52.2747 64.5452 52.0801 64.2871L52.8354 63.2969C53.064 63.5635 53.3221 63.7645 53.6099 63.8999C53.8976 64.0396 54.2087 64.1094 54.543 64.1094C54.8815 64.1094 55.1693 64.0459 55.4062 63.9189C55.6475 63.7962 55.8315 63.6143 55.9585 63.373C56.0897 63.1361 56.1553 62.8441 56.1553 62.4971V57.3872L56.314 55.8193ZM51.6738 59.3359V59.2026C51.6738 58.6779 51.7373 58.2018 51.8643 57.7744C51.9912 57.3428 52.1732 56.9725 52.4102 56.6636C52.6514 56.3547 52.9412 56.1156 53.2798 55.9463C53.6226 55.777 54.0076 55.6924 54.4351 55.6924C54.8879 55.6924 55.2687 55.7749 55.5776 55.9399C55.8908 56.105 56.1489 56.3398 56.3521 56.6445C56.5594 56.9492 56.7202 57.311 56.8345 57.73C56.953 58.1447 57.0439 58.6017 57.1074 59.1011V59.4629C57.0482 59.9495 56.953 60.396 56.8218 60.8022C56.6948 61.2085 56.5256 61.564 56.314 61.8687C56.1024 62.1691 55.84 62.4019 55.5269 62.5669C55.2137 62.7319 54.8455 62.8145 54.4224 62.8145C53.9992 62.8145 53.6183 62.7277 53.2798 62.5542C52.9412 62.3807 52.6514 62.1374 52.4102 61.8242C52.1732 61.5111 51.9912 61.1429 51.8643 60.7197C51.7373 60.2965 51.6738 59.8353 51.6738 59.3359ZM53.3496 59.2026V59.3359C53.3496 59.6322 53.3792 59.9093 53.4385 60.1675C53.4977 60.4256 53.5887 60.6541 53.7114 60.853C53.8341 61.0477 53.9886 61.2 54.1748 61.3101C54.361 61.4201 54.5832 61.4751 54.8413 61.4751C55.1883 61.4751 55.4718 61.4032 55.6919 61.2593C55.9162 61.1112 56.0854 60.9102 56.1997 60.6562C56.3182 60.3981 56.3944 60.1082 56.4282 59.7866V58.79C56.4071 58.5361 56.3605 58.3013 56.2886 58.0854C56.2209 57.8696 56.1257 57.6834 56.0029 57.5269C55.8802 57.3703 55.7236 57.2476 55.5332 57.1587C55.3428 57.0698 55.1164 57.0254 54.854 57.0254C54.6001 57.0254 54.3779 57.0825 54.1875 57.1968C53.9971 57.3068 53.8405 57.4613 53.7178 57.6602C53.5951 57.859 53.502 58.0897 53.4385 58.3521C53.3792 58.6144 53.3496 58.8979 53.3496 59.2026ZM61.0239 57.2222V62.6875H59.3481V55.8193H60.9351L61.0239 57.2222ZM63.1123 55.7749L63.0869 57.3364C62.9938 57.3195 62.888 57.3068 62.7695 57.2983C62.6553 57.2899 62.5474 57.2856 62.4458 57.2856C62.1877 57.2856 61.9613 57.3216 61.7666 57.3936C61.5719 57.4613 61.409 57.5607 61.2778 57.6919C61.1509 57.8231 61.0535 57.9839 60.9858 58.1743C60.9181 58.3605 60.88 58.5721 60.8716 58.8091L60.5098 58.7646C60.5098 58.3288 60.5542 57.9246 60.6431 57.5522C60.7319 57.1799 60.861 56.854 61.0303 56.5747C61.1995 56.2954 61.4111 56.0796 61.665 55.9272C61.9232 55.7707 62.2194 55.6924 62.5537 55.6924C62.6468 55.6924 62.7463 55.7008 62.8521 55.7178C62.9621 55.7305 63.0488 55.7495 63.1123 55.7749ZM67.6001 61.2275V58.0601C67.6001 57.8273 67.5599 57.6263 67.4795 57.457C67.3991 57.2878 67.2764 57.1566 67.1113 57.0635C66.9463 56.9704 66.7368 56.9238 66.4829 56.9238C66.2586 56.9238 66.0618 56.9619 65.8926 57.0381C65.7275 57.1143 65.6006 57.2222 65.5117 57.3618C65.4229 57.4972 65.3784 57.6538 65.3784 57.8315H63.6963C63.6963 57.548 63.764 57.2793 63.8994 57.0254C64.0348 56.7673 64.2274 56.5387 64.4771 56.3398C64.731 56.1367 65.0335 55.978 65.3848 55.8638C65.7402 55.7495 66.138 55.6924 66.5781 55.6924C67.0986 55.6924 67.562 55.7812 67.9683 55.959C68.3787 56.1325 68.7004 56.3949 68.9331 56.7461C69.1701 57.0973 69.2886 57.5396 69.2886 58.0728V61.0688C69.2886 61.4116 69.3097 61.7057 69.3521 61.9512C69.3986 62.1924 69.4663 62.4019 69.5552 62.5796V62.6875H67.8477C67.7673 62.514 67.7059 62.2939 67.6636 62.0273C67.6213 61.7565 67.6001 61.4899 67.6001 61.2275ZM67.835 58.5044L67.8477 59.501H66.7876C66.5252 59.501 66.2946 59.5285 66.0957 59.5835C65.8968 59.6343 65.7339 59.7104 65.6069 59.812C65.48 59.9093 65.3848 60.0278 65.3213 60.1675C65.2578 60.3029 65.2261 60.4574 65.2261 60.6309C65.2261 60.8001 65.2642 60.9525 65.3403 61.0879C65.4207 61.2233 65.535 61.3312 65.6831 61.4116C65.8354 61.4878 66.0132 61.5259 66.2163 61.5259C66.5125 61.5259 66.7707 61.4666 66.9907 61.3481C67.2108 61.2254 67.3822 61.0773 67.5049 60.9038C67.6276 60.7303 67.6932 60.5653 67.7017 60.4087L68.1841 61.1323C68.1248 61.3058 68.036 61.4899 67.9175 61.6846C67.799 61.8792 67.6466 62.0612 67.4604 62.2305C67.2743 62.3997 67.05 62.5394 66.7876 62.6494C66.5252 62.7594 66.2205 62.8145 65.8735 62.8145C65.4292 62.8145 65.0314 62.7256 64.6802 62.5479C64.3289 62.3701 64.0518 62.1268 63.8486 61.8179C63.6455 61.509 63.5439 61.1577 63.5439 60.7642C63.5439 60.4002 63.6117 60.0786 63.7471 59.7993C63.8825 59.52 64.0835 59.2852 64.3501 59.0947C64.6167 58.9001 64.9468 58.7541 65.3403 58.6567C65.7381 58.5552 66.193 58.5044 66.7051 58.5044H67.835ZM74.0493 55.8193V57.0254H70.1138V55.8193H74.0493ZM71.1675 54.1309H72.8496V60.707C72.8496 60.9102 72.8771 61.0667 72.9321 61.1768C72.9871 61.2868 73.0697 61.3608 73.1797 61.3989C73.2897 61.437 73.4209 61.4561 73.5732 61.4561C73.6833 61.4561 73.7848 61.4497 73.8779 61.437C73.971 61.4243 74.0493 61.4116 74.1128 61.3989L74.1191 62.6558C73.9795 62.7023 73.8208 62.7404 73.6431 62.77C73.4696 62.7996 73.2728 62.8145 73.0527 62.8145C72.6761 62.8145 72.346 62.751 72.0625 62.624C71.779 62.4928 71.5589 62.2834 71.4023 61.9956C71.2458 61.7036 71.1675 61.3185 71.1675 60.8403V54.1309ZM76.9438 55.8193V62.6875H75.2617V55.8193H76.9438ZM75.1475 54.0229C75.1475 53.7733 75.2321 53.5659 75.4014 53.4009C75.5749 53.2358 75.8076 53.1533 76.0996 53.1533C76.3916 53.1533 76.6222 53.2358 76.7915 53.4009C76.965 53.5659 77.0518 53.7733 77.0518 54.0229C77.0518 54.2684 76.965 54.4736 76.7915 54.6387C76.6222 54.8037 76.3916 54.8862 76.0996 54.8862C75.8076 54.8862 75.5749 54.8037 75.4014 54.6387C75.2321 54.4736 75.1475 54.2684 75.1475 54.0229ZM82.3203 60.8086C82.3203 60.6647 82.2822 60.5356 82.2061 60.4214C82.1299 60.3071 81.986 60.2035 81.7744 60.1104C81.5671 60.013 81.2624 59.922 80.8604 59.8374C80.5049 59.7612 80.1769 59.666 79.8765 59.5518C79.576 59.4375 79.3179 59.3 79.1021 59.1392C78.8862 58.9741 78.717 58.7816 78.5942 58.5615C78.4757 58.3372 78.4165 58.0791 78.4165 57.7871C78.4165 57.5036 78.4779 57.237 78.6006 56.9873C78.7233 56.7334 78.901 56.5112 79.1338 56.3208C79.3665 56.1261 79.6501 55.9738 79.9844 55.8638C80.3187 55.7495 80.6953 55.6924 81.1143 55.6924C81.6982 55.6924 82.1997 55.7876 82.6187 55.978C83.0418 56.1685 83.3656 56.4308 83.5898 56.7651C83.8141 57.0952 83.9263 57.4676 83.9263 57.8823H82.2505C82.2505 57.7004 82.2082 57.5353 82.1235 57.3872C82.0431 57.2391 81.9183 57.1206 81.749 57.0317C81.5798 56.9386 81.366 56.8921 81.1079 56.8921C80.8752 56.8921 80.6784 56.9302 80.5176 57.0063C80.361 57.0825 80.2425 57.182 80.1621 57.3047C80.0817 57.4274 80.0415 57.5628 80.0415 57.7109C80.0415 57.821 80.0627 57.9204 80.105 58.0093C80.1515 58.0939 80.2256 58.1722 80.3271 58.2441C80.4287 58.3161 80.5662 58.3817 80.7397 58.4409C80.9175 58.5002 81.1354 58.5573 81.3936 58.6123C81.9056 58.7139 82.3521 58.8493 82.7329 59.0186C83.118 59.1836 83.4185 59.4036 83.6343 59.6787C83.8501 59.9538 83.958 60.305 83.958 60.7324C83.958 61.0371 83.8924 61.3164 83.7612 61.5703C83.63 61.82 83.4396 62.0379 83.1899 62.2241C82.9403 62.4103 82.6419 62.5563 82.2949 62.6621C81.9479 62.7637 81.5565 62.8145 81.1206 62.8145C80.4901 62.8145 79.9569 62.7023 79.521 62.478C79.0851 62.2495 78.755 61.9618 78.5308 61.6147C78.3065 61.2635 78.1943 60.8996 78.1943 60.5229H79.8003C79.813 60.7896 79.8849 61.0033 80.0161 61.1641C80.1473 61.3249 80.3123 61.4412 80.5112 61.5132C80.7144 61.5809 80.9281 61.6147 81.1523 61.6147C81.4062 61.6147 81.62 61.5809 81.7935 61.5132C81.967 61.4412 82.0981 61.346 82.187 61.2275C82.2759 61.1048 82.3203 60.9652 82.3203 60.8086Z" fill="#00A650"/>
</g>
<path d="M0 1.6875H224V-0.3125H0V1.6875Z" fill="#333333" fill-opacity="0.1" mask="url(#path-1-inside-1_1_138)"/>
<defs>
<clipPath id="clip0_1_138">
<rect width="198" height="47" fill="white" transform="translate(16 19.6875)"/>
</clipPath>
</defs>
</svg>
